<?xml version="1.0" encoding="UTF-8" standalone="no"?>
<!-- Created with Inkscape (http://www.inkscape.org/) -->

<svg
   sodipodi:docname="figures.svg"
   inkscape:version="1.3 (0e150ed6c4, 2023-07-21)"
   id="svg854"
   version="1.1"
   viewBox="0 0 53.926841 82.773571"
   height="82.773521mm"
   width="53.926842mm"
   inkscape:export-filename="/home/home/ownCloud2/proposals/veni2021/figures/scheme.png"
   inkscape:export-xdpi="200"
   inkscape:export-ydpi="200"
   xml:space="preserve"
   xmlns:inkscape="http://www.inkscape.org/namespaces/inkscape"
   xmlns:sodipodi="http://sodipodi.sourceforge.net/DTD/sodipodi-0.dtd"
   xmlns="http://www.w3.org/2000/svg"
   xmlns:svg="http://www.w3.org/2000/svg"
   xmlns:rdf="http://www.w3.org/1999/02/22-rdf-syntax-ns#"
   xmlns:cc="http://creativecommons.org/ns#"
   xmlns:dc="http://purl.org/dc/elements/1.1/"
   xmlns:ns1="http://www.iki.fi/pav/software/textext/"><sodipodi:namedview
     id="base"
     pagecolor="#ffffff"
     bordercolor="#666666"
     borderopacity="1.0"
     inkscape:pageopacity="0.0"
     inkscape:pageshadow="2"
     inkscape:zoom="0.35355339"
     inkscape:cx="2900.552"
     inkscape:cy="-164.04877"
     inkscape:document-units="mm"
     inkscape:current-layer="layer1"
     showgrid="false"
     inkscape:window-width="1920"
     inkscape:window-height="1064"
     inkscape:window-x="0"
     inkscape:window-y="16"
     inkscape:window-maximized="1"
     inkscape:measure-start="1676.07,1011.79"
     inkscape:measure-end="1694.29,1021.79"
     fit-margin-top="0"
     fit-margin-left="0"
     fit-margin-right="0"
     fit-margin-bottom="0"
     inkscape:snap-object-midpoints="true"
     inkscape:snap-center="true"
     inkscape:snap-global="true"
     inkscape:lockguides="true"
     showguides="false"
     inkscape:snap-page="true"
     inkscape:showpageshadow="2"
     inkscape:pagecheckerboard="0"
     inkscape:deskcolor="#d1d1d1" /><defs
     id="defs848"><marker
       style="overflow:visible"
       id="marker179"
       refX="0"
       refY="0"
       orient="auto-start-reverse"
       inkscape:stockid="Dart arrow"
       markerWidth="1"
       markerHeight="1"
       viewBox="0 0 1 1"
       inkscape:isstock="true"
       inkscape:collect="always"
       preserveAspectRatio="xMidYMid"><path
         style="fill:context-stroke;fill-rule:evenodd;stroke:none"
         d="M 0,0 5,-5 -12.5,0 5,5 Z"
         transform="scale(-0.5)"
         id="path179" /></marker><marker
       style="overflow:visible"
       id="DartArrow"
       refX="0"
       refY="0"
       orient="auto-start-reverse"
       inkscape:stockid="Dart arrow"
       markerWidth="1"
       markerHeight="1"
       viewBox="0 0 1 1"
       inkscape:isstock="true"
       inkscape:collect="always"
       preserveAspectRatio="xMidYMid"><path
         style="fill:context-stroke;fill-rule:evenodd;stroke:none"
         d="M 0,0 5,-5 -12.5,0 5,5 Z"
         transform="scale(-0.5)"
         id="path176" /></marker></defs><metadata
     id="metadata851"><rdf:RDF><cc:Work
         rdf:about=""><dc:format>image/svg+xml</dc:format><dc:type
           rdf:resource="http://purl.org/dc/dcmitype/StillImage" /></cc:Work></rdf:RDF></metadata><g
     inkscape:label="Layer 1"
     inkscape:groupmode="layer"
     id="layer1"
     transform="translate(365.43097,-1615.3264)"><circle
       style="fill:none;fill-opacity:0.298163;stroke:#017188;stroke-width:0.852091;stroke-linejoin:bevel;stroke-miterlimit:3.9;stroke-opacity:1"
       id="circle17"
       cx="-357.12759"
       cy="1630.892"
       r="7.8773355"
       inkscape:export-filename="ancestralsampling.png"
       inkscape:export-xdpi="200"
       inkscape:export-ydpi="200" /><g
       transform="matrix(1.03285,0,0,1.03285,-348.04045,1617.9249)"
       ns1:version="1.9.0"
       ns1:texconverter="pdflatex"
       ns1:pdfconverter="inkscape"
       ns1:text="$a$"
       ns1:preamble="/home/iuribarcelos/.config/inkscape/extensions/textext/default_packages.tex"
       ns1:scale="2.927767037627063"
       ns1:alignment="middle center"
       ns1:stroke-to-path="0"
       ns1:inkscapeversion="1.3"
       id="g8232"
       ns1:jacobian_sqrt="1.03285"><defs
   id="id-74154217-8ec7-4efc-b478-050c98d12f24" />&#10;  <g
   fill="#000000"
   fill-opacity="1"
   id="id-9d10505a-1ffd-448b-8d1f-2ea42287391f"
   transform="translate(-149.118,-130.359)">&#10;    <g
   transform="translate(148.712,134.765)"
   id="g5210"><path
   d="M 3.71875,-3.765625 C 3.53125,-4.140625 3.25,-4.40625 2.796875,-4.40625 c -1.15625,0 -2.390625,1.46875 -2.390625,2.921875 0,0.9375 0.546875,1.59375 1.3125,1.59375 0.203125,0 0.703125,-0.046875 1.296875,-0.75 0.078125,0.421875 0.4375,0.75 0.90625,0.75 0.359375,0 0.578125,-0.234375 0.75,-0.546875 0.15625,-0.359375 0.296875,-0.96875 0.296875,-0.984375 0,-0.109375 -0.09375,-0.109375 -0.125,-0.109375 -0.09375,0 -0.109375,0.046875 -0.140625,0.1875 -0.171875,0.640625 -0.34375,1.234375 -0.75,1.234375 -0.28125,0 -0.296875,-0.265625 -0.296875,-0.453125 0,-0.21875 0.015625,-0.3125 0.125,-0.75 C 3.890625,-1.71875 3.90625,-1.828125 4,-2.203125 L 4.359375,-3.59375 c 0.0625,-0.28125 0.0625,-0.296875 0.0625,-0.34375 0,-0.171875 -0.109375,-0.265625 -0.28125,-0.265625 -0.25,0 -0.390625,0.21875 -0.421875,0.4375 z M 3.078125,-1.1875 C 3.015625,-1 3.015625,-0.984375 2.875,-0.8125 2.4375,-0.265625 2.03125,-0.109375 1.75,-0.109375 c -0.5,0 -0.640625,-0.546875 -0.640625,-0.9375 0,-0.5 0.3125,-1.71875 0.546875,-2.1875 0.3125,-0.578125 0.75,-0.953125 1.15625,-0.953125 0.640625,0 0.78125,0.8125 0.78125,0.875 0,0.0625 -0.015625,0.125 -0.03125,0.171875 z m 0,0"
   id="id-d233cecf-9299-4faf-a971-19aa1542962e" />&#10;      </g></g>&#10;</g><g
       transform="matrix(1.03285,0,0,1.03285,-315.47373,1616.6737)"
       ns1:version="1.9.0"
       ns1:texconverter="pdflatex"
       ns1:pdfconverter="inkscape"
       ns1:text="$b$"
       ns1:preamble="/home/iuribarcelos/.config/inkscape/extensions/textext/default_packages.tex"
       ns1:scale="2.927767037627063"
       ns1:alignment="middle center"
       ns1:stroke-to-path="0"
       ns1:inkscapeversion="1.3"
       id="g3023"
       ns1:jacobian_sqrt="1.03285"><defs
   id="id-4d25e961-52ba-45a8-8dc0-d1aef5438233" />&#10;  <g
   fill="#000000"
   fill-opacity="1"
   id="id-6d5ebd7a-5cf4-45ea-acfa-3a4cf36053c5"
   transform="translate(-149.00926,-129.14761)">&#10;    <g
   transform="translate(148.712,134.765)"
   id="g8406"><path
   d="m 2.375,-6.8125 c 0,0 0,-0.109375 -0.125,-0.109375 -0.21875,0 -0.953125,0.078125 -1.21875,0.109375 -0.078125,0 -0.1875,0.015625 -0.1875,0.1875 0,0.125 0.09375,0.125 0.25,0.125 0.46875,0 0.484375,0.0625 0.484375,0.171875 0,0.0625 -0.078125,0.40625 -0.125,0.609375 l -0.828125,3.25 c -0.109375,0.5 -0.15625,0.671875 -0.15625,1.015625 0,0.9375 0.53125,1.5625 1.265625,1.5625 1.171875,0 2.40625,-1.484375 2.40625,-2.921875 0,-0.90625 -0.53125,-1.59375 -1.328125,-1.59375 -0.453125,0 -0.875,0.296875 -1.171875,0.59375 z M 1.453125,-3.046875 C 1.5,-3.265625 1.5,-3.28125 1.59375,-3.390625 2.078125,-4.03125 2.53125,-4.1875 2.796875,-4.1875 c 0.359375,0 0.625,0.296875 0.625,0.9375 0,0.59375 -0.328125,1.734375 -0.515625,2.109375 -0.328125,0.671875 -0.78125,1.03125 -1.171875,1.03125 -0.34375,0 -0.671875,-0.265625 -0.671875,-1 0,-0.203125 0,-0.390625 0.15625,-1.015625 z m 0,0"
   id="id-38fb0223-c66e-4179-b752-c460e51560dc" />&#10;      </g></g>&#10;</g><circle
       style="fill:none;fill-opacity:0.298163;stroke:#017188;stroke-width:0.852091;stroke-linejoin:bevel;stroke-miterlimit:3.9;stroke-opacity:1"
       id="circle18"
       cx="-323.60001"
       cy="1630.892"
       r="7.8773355"
       inkscape:export-filename="graphsymbols.png"
       inkscape:export-xdpi="200"
       inkscape:export-ydpi="200" /><circle
       style="fill:none;fill-opacity:0.298163;stroke:#017188;stroke-width:0.852091;stroke-linejoin:bevel;stroke-miterlimit:3.9;stroke-opacity:1"
       id="circle174"
       cx="-340.56729"
       cy="1662.4589"
       r="7.8773355"
       inkscape:export-filename="graphsymbols.png"
       inkscape:export-xdpi="200"
       inkscape:export-ydpi="200" /><circle
       style="fill:none;fill-opacity:0.298163;stroke:#017188;stroke-width:0.852091;stroke-linejoin:bevel;stroke-miterlimit:3.9;stroke-opacity:1"
       id="circle175"
       cx="-340.56729"
       cy="1689.7965"
       r="7.8773355"
       inkscape:export-filename="graphsymbols.png"
       inkscape:export-xdpi="200"
       inkscape:export-ydpi="200" /><path
       style="fill:none;stroke:#000000;stroke-width:0.5;stroke-linecap:butt;stroke-linejoin:miter;stroke-dasharray:none;stroke-opacity:1;marker-end:url(#marker179)"
       d="m -340.56729,1670.9028 v 7.7038"
       id="path178"
       sodipodi:nodetypes="cc" /></g><g
     transform="matrix(1.03285,0,0,1.03285,33.166805,33.636199)"
     ns1:version="1.9.0"
     ns1:texconverter="pdflatex"
     ns1:pdfconverter="inkscape"
     ns1:text="$c$"
     ns1:preamble="/home/iuribarcelos/.config/inkscape/extensions/textext/default_packages.tex"
     ns1:scale="2.927767037627063"
     ns1:alignment="middle center"
     ns1:stroke-to-path="0"
     ns1:inkscapeversion="1.3"
     id="g4396"
     ns1:jacobian_sqrt="1.03285"><defs
   id="id-0b658081-2dbd-4cc2-aee2-807566b36407" />&#10;  <g
   fill="#000000"
   fill-opacity="1"
   id="id-a001ad64-6e54-43ef-b82b-12fd5097d649"
   transform="translate(-149.118,-130.359)">&#10;    <g
   transform="translate(148.712,134.765)"
   id="g2181"><path
   d="m 3.953125,-3.78125 c -0.171875,0 -0.296875,0 -0.4375,0.125 -0.171875,0.15625 -0.1875,0.328125 -0.1875,0.390625 0,0.25 0.1875,0.359375 0.375,0.359375 0.28125,0 0.546875,-0.25 0.546875,-0.640625 0,-0.484375 -0.46875,-0.859375 -1.171875,-0.859375 -1.34375,0 -2.671875,1.421875 -2.671875,2.828125 0,0.90625 0.578125,1.6875 1.625,1.6875 1.421875,0 2.25,-1.0625 2.25,-1.171875 0,-0.0625 -0.046875,-0.140625 -0.109375,-0.140625 -0.0625,0 -0.078125,0.03125 -0.140625,0.109375 -0.78125,0.984375 -1.875,0.984375 -1.984375,0.984375 -0.625,0 -0.90625,-0.484375 -0.90625,-1.09375 0,-0.40625 0.203125,-1.375 0.546875,-1.984375 0.3125,-0.578125 0.859375,-1 1.40625,-1 0.328125,0 0.71875,0.125 0.859375,0.40625 z m 0,0"
   id="id-36f5dbe5-53de-4fba-99fc-1733c539617f" />&#10;      </g></g>&#10;</g><g
     transform="matrix(1.03285,0,0,1.03285,33.166805,58.904367)"
     ns1:version="1.9.0"
     ns1:texconverter="pdflatex"
     ns1:pdfconverter="inkscape"
     ns1:text="$d$"
     ns1:preamble="/home/iuribarcelos/.config/inkscape/extensions/textext/default_packages.tex"
     ns1:scale="2.927767037627063"
     ns1:alignment="middle center"
     ns1:stroke-to-path="0"
     ns1:inkscapeversion="1.3"
     id="g2430"
     ns1:jacobian_sqrt="1.03285"><defs
   id="id-c823872b-b661-4b98-90e5-7213f2230caa" />&#10;  <g
   fill="#000000"
   fill-opacity="1"
   id="id-23651447-7f83-4621-949c-29aaaa2713e7"
   transform="translate(-149.118,-127.843)">&#10;    <g
   transform="translate(148.712,134.765)"
   id="g8275"><path
   d="m 5.140625,-6.8125 c 0,0 0,-0.109375 -0.125,-0.109375 -0.15625,0 -1.09375,0.09375 -1.265625,0.109375 -0.078125,0.015625 -0.140625,0.0625 -0.140625,0.1875 0,0.125 0.09375,0.125 0.234375,0.125 0.484375,0 0.5,0.0625 0.5,0.171875 L 4.3125,-6.125 3.71875,-3.765625 C 3.53125,-4.140625 3.25,-4.40625 2.796875,-4.40625 c -1.15625,0 -2.390625,1.46875 -2.390625,2.921875 0,0.9375 0.546875,1.59375 1.3125,1.59375 0.203125,0 0.703125,-0.046875 1.296875,-0.75 0.078125,0.421875 0.4375,0.75 0.90625,0.75 0.359375,0 0.578125,-0.234375 0.75,-0.546875 0.15625,-0.359375 0.296875,-0.96875 0.296875,-0.984375 0,-0.109375 -0.09375,-0.109375 -0.125,-0.109375 -0.09375,0 -0.109375,0.046875 -0.140625,0.1875 -0.171875,0.640625 -0.34375,1.234375 -0.75,1.234375 -0.28125,0 -0.296875,-0.265625 -0.296875,-0.453125 0,-0.25 0.015625,-0.3125 0.046875,-0.484375 z m -2.0625,5.625 C 3.015625,-1 3.015625,-0.984375 2.875,-0.8125 2.4375,-0.265625 2.03125,-0.109375 1.75,-0.109375 c -0.5,0 -0.640625,-0.546875 -0.640625,-0.9375 0,-0.5 0.3125,-1.71875 0.546875,-2.1875 0.3125,-0.578125 0.75,-0.953125 1.15625,-0.953125 0.640625,0 0.78125,0.8125 0.78125,0.875 0,0.0625 -0.015625,0.125 -0.03125,0.171875 z m 0,0"
   id="id-e2fd689b-611f-4de5-bfdb-38c71286046b" />&#10;      </g></g>&#10;</g><path
     style="fill:none;stroke:#000000;stroke-width:0.5;stroke-linecap:butt;stroke-linejoin:miter;stroke-dasharray:none;stroke-opacity:1;marker-end:url(#DartArrow)"
     d="m 13.071605,22.366629 9.71982,13.84608"
     id="path175"
     sodipodi:nodetypes="cc" /><path
     style="fill:none;stroke:#000000;stroke-width:0.5;stroke-linecap:butt;stroke-linejoin:miter;stroke-dasharray:none;stroke-opacity:1;marker-end:url(#DartArrow)"
     d="m 36.964745,22.366629 -9.71982,13.84608"
     id="path177"
     sodipodi:nodetypes="cc" /></svg>
