<?xml version="1.0" encoding="utf-8" standalone="no"?>
<!DOCTYPE svg PUBLIC "-//W3C//DTD SVG 1.1//EN"
  "http://www.w3.org/Graphics/SVG/1.1/DTD/svg11.dtd">
<svg xmlns:xlink="http://www.w3.org/1999/xlink" width="360pt" height="216pt" viewBox="0 0 360 216" xmlns="http://www.w3.org/2000/svg" version="1.1">
 <metadata>
  <rdf:RDF xmlns:dc="http://purl.org/dc/elements/1.1/" xmlns:cc="http://creativecommons.org/ns#" xmlns:rdf="http://www.w3.org/1999/02/22-rdf-syntax-ns#">
   <cc:Work>
    <dc:type rdf:resource="http://purl.org/dc/dcmitype/StillImage"/>
    <dc:date>2026-03-17T17:39:01.936692</dc:date>
    <dc:format>image/svg+xml</dc:format>
    <dc:creator>
     <cc:Agent>
      <dc:title>Matplotlib v3.8.0, https://matplotlib.org/</dc:title>
     </cc:Agent>
    </dc:creator>
   </cc:Work>
  </rdf:RDF>
 </metadata>
 <defs>
  <style type="text/css">*{stroke-linejoin: round; stroke-linecap: butt}</style>
 </defs>
 <g id="figure_1">
  <g id="patch_1">
   <path d="M 0 216 
L 360 216 
L 360 0 
L 0 0 
z
" style="fill: #ffffff"/>
  </g>
  <g id="axes_1">
   <g id="patch_2">
    <path d="M 45 192.24 
L 324 192.24 
L 324 25.92 
L 45 25.92 
z
" style="fill: #eaeaf2"/>
   </g>
   <g id="matplotlib.axis_1">
    <g id="xtick_1">
     <g id="line2d_1">
      <path d="M 57.681818 192.24 
L 57.681818 25.92 
" clip-path="url(#p9e4811d662)" style="fill: none; stroke: #ffffff; stroke-linecap: round"/>
     </g>
     <g id="text_1">
      <!-- 0 -->
      <g style="fill: #262626" transform="translate(54.623303 209.613594) scale(0.11 -0.11)">
       <defs>
        <path id="ArialMT-30" d="M 266 2259 
Q 266 3072 433 3567 
Q 600 4063 929 4331 
Q 1259 4600 1759 4600 
Q 2128 4600 2406 4451 
Q 2684 4303 2865 4023 
Q 3047 3744 3150 3342 
Q 3253 2941 3253 2259 
Q 3253 1453 3087 958 
Q 2922 463 2592 192 
Q 2263 -78 1759 -78 
Q 1097 -78 719 397 
Q 266 969 266 2259 
z
M 844 2259 
Q 844 1131 1108 757 
Q 1372 384 1759 384 
Q 2147 384 2411 759 
Q 2675 1134 2675 2259 
Q 2675 3391 2411 3762 
Q 2147 4134 1753 4134 
Q 1366 4134 1134 3806 
Q 844 3388 844 2259 
z
" transform="scale(0.015625)"/>
       </defs>
       <use xlink:href="#ArialMT-30"/>
      </g>
     </g>
    </g>
    <g id="xtick_2">
     <g id="line2d_2">
      <path d="M 98.049299 192.24 
L 98.049299 25.92 
" clip-path="url(#p9e4811d662)" style="fill: none; stroke: #ffffff; stroke-linecap: round"/>
     </g>
     <g id="text_2">
      <!-- 1 -->
      <g style="fill: #262626" transform="translate(94.990784 209.613594) scale(0.11 -0.11)">
       <defs>
        <path id="ArialMT-31" d="M 2384 0 
L 1822 0 
L 1822 3584 
Q 1619 3391 1289 3197 
Q 959 3003 697 2906 
L 697 3450 
Q 1169 3672 1522 3987 
Q 1875 4303 2022 4600 
L 2384 4600 
L 2384 0 
z
" transform="scale(0.015625)"/>
       </defs>
       <use xlink:href="#ArialMT-31"/>
      </g>
     </g>
    </g>
    <g id="xtick_3">
     <g id="line2d_3">
      <path d="M 138.41678 192.24 
L 138.41678 25.92 
" clip-path="url(#p9e4811d662)" style="fill: none; stroke: #ffffff; stroke-linecap: round"/>
     </g>
     <g id="text_3">
      <!-- 2 -->
      <g style="fill: #262626" transform="translate(135.358265 209.613594) scale(0.11 -0.11)">
       <defs>
        <path id="ArialMT-32" d="M 3222 541 
L 3222 0 
L 194 0 
Q 188 203 259 391 
Q 375 700 629 1000 
Q 884 1300 1366 1694 
Q 2113 2306 2375 2664 
Q 2638 3022 2638 3341 
Q 2638 3675 2398 3904 
Q 2159 4134 1775 4134 
Q 1369 4134 1125 3890 
Q 881 3647 878 3216 
L 300 3275 
Q 359 3922 746 4261 
Q 1134 4600 1788 4600 
Q 2447 4600 2831 4234 
Q 3216 3869 3216 3328 
Q 3216 3053 3103 2787 
Q 2991 2522 2730 2228 
Q 2469 1934 1863 1422 
Q 1356 997 1212 845 
Q 1069 694 975 541 
L 3222 541 
z
" transform="scale(0.015625)"/>
       </defs>
       <use xlink:href="#ArialMT-32"/>
      </g>
     </g>
    </g>
    <g id="xtick_4">
     <g id="line2d_4">
      <path d="M 178.784261 192.24 
L 178.784261 25.92 
" clip-path="url(#p9e4811d662)" style="fill: none; stroke: #ffffff; stroke-linecap: round"/>
     </g>
     <g id="text_4">
      <!-- 3 -->
      <g style="fill: #262626" transform="translate(175.725746 209.613594) scale(0.11 -0.11)">
       <defs>
        <path id="ArialMT-33" d="M 269 1209 
L 831 1284 
Q 928 806 1161 595 
Q 1394 384 1728 384 
Q 2125 384 2398 659 
Q 2672 934 2672 1341 
Q 2672 1728 2419 1979 
Q 2166 2231 1775 2231 
Q 1616 2231 1378 2169 
L 1441 2663 
Q 1497 2656 1531 2656 
Q 1891 2656 2178 2843 
Q 2466 3031 2466 3422 
Q 2466 3731 2256 3934 
Q 2047 4138 1716 4138 
Q 1388 4138 1169 3931 
Q 950 3725 888 3313 
L 325 3413 
Q 428 3978 793 4289 
Q 1159 4600 1703 4600 
Q 2078 4600 2393 4439 
Q 2709 4278 2876 4000 
Q 3044 3722 3044 3409 
Q 3044 3113 2884 2869 
Q 2725 2625 2413 2481 
Q 2819 2388 3044 2092 
Q 3269 1797 3269 1353 
Q 3269 753 2831 336 
Q 2394 -81 1725 -81 
Q 1122 -81 723 278 
Q 325 638 269 1209 
z
" transform="scale(0.015625)"/>
       </defs>
       <use xlink:href="#ArialMT-33"/>
      </g>
     </g>
    </g>
    <g id="xtick_5">
     <g id="line2d_5">
      <path d="M 219.151742 192.24 
L 219.151742 25.92 
" clip-path="url(#p9e4811d662)" style="fill: none; stroke: #ffffff; stroke-linecap: round"/>
     </g>
     <g id="text_5">
      <!-- 4 -->
      <g style="fill: #262626" transform="translate(216.093227 209.613594) scale(0.11 -0.11)">
       <defs>
        <path id="ArialMT-34" d="M 2069 0 
L 2069 1097 
L 81 1097 
L 81 1613 
L 2172 4581 
L 2631 4581 
L 2631 1613 
L 3250 1613 
L 3250 1097 
L 2631 1097 
L 2631 0 
L 2069 0 
z
M 2069 1613 
L 2069 3678 
L 634 1613 
L 2069 1613 
z
" transform="scale(0.015625)"/>
       </defs>
       <use xlink:href="#ArialMT-34"/>
      </g>
     </g>
    </g>
    <g id="xtick_6">
     <g id="line2d_6">
      <path d="M 259.519223 192.24 
L 259.519223 25.92 
" clip-path="url(#p9e4811d662)" style="fill: none; stroke: #ffffff; stroke-linecap: round"/>
     </g>
     <g id="text_6">
      <!-- 5 -->
      <g style="fill: #262626" transform="translate(256.460708 209.613594) scale(0.11 -0.11)">
       <defs>
        <path id="ArialMT-35" d="M 266 1200 
L 856 1250 
Q 922 819 1161 601 
Q 1400 384 1738 384 
Q 2144 384 2425 690 
Q 2706 997 2706 1503 
Q 2706 1984 2436 2262 
Q 2166 2541 1728 2541 
Q 1456 2541 1237 2417 
Q 1019 2294 894 2097 
L 366 2166 
L 809 4519 
L 3088 4519 
L 3088 3981 
L 1259 3981 
L 1013 2750 
Q 1425 3038 1878 3038 
Q 2478 3038 2890 2622 
Q 3303 2206 3303 1553 
Q 3303 931 2941 478 
Q 2500 -78 1738 -78 
Q 1113 -78 717 272 
Q 322 622 266 1200 
z
" transform="scale(0.015625)"/>
       </defs>
       <use xlink:href="#ArialMT-35"/>
      </g>
     </g>
    </g>
    <g id="xtick_7">
     <g id="line2d_7">
      <path d="M 299.886704 192.24 
L 299.886704 25.92 
" clip-path="url(#p9e4811d662)" style="fill: none; stroke: #ffffff; stroke-linecap: round"/>
     </g>
     <g id="text_7">
      <!-- 6 -->
      <g style="fill: #262626" transform="translate(296.828189 209.613594) scale(0.11 -0.11)">
       <defs>
        <path id="ArialMT-36" d="M 3184 3459 
L 2625 3416 
Q 2550 3747 2413 3897 
Q 2184 4138 1850 4138 
Q 1581 4138 1378 3988 
Q 1113 3794 959 3422 
Q 806 3050 800 2363 
Q 1003 2672 1297 2822 
Q 1591 2972 1913 2972 
Q 2475 2972 2870 2558 
Q 3266 2144 3266 1488 
Q 3266 1056 3080 686 
Q 2894 316 2569 119 
Q 2244 -78 1831 -78 
Q 1128 -78 684 439 
Q 241 956 241 2144 
Q 241 3472 731 4075 
Q 1159 4600 1884 4600 
Q 2425 4600 2770 4297 
Q 3116 3994 3184 3459 
z
M 888 1484 
Q 888 1194 1011 928 
Q 1134 663 1356 523 
Q 1578 384 1822 384 
Q 2178 384 2434 671 
Q 2691 959 2691 1453 
Q 2691 1928 2437 2201 
Q 2184 2475 1800 2475 
Q 1419 2475 1153 2201 
Q 888 1928 888 1484 
z
" transform="scale(0.015625)"/>
       </defs>
       <use xlink:href="#ArialMT-36"/>
      </g>
     </g>
    </g>
    <g id="text_8">
     <!-- x -->
     <g style="fill: #262626" transform="translate(181.5 224.389219) scale(0.12 -0.12)">
      <defs>
       <path id="ArialMT-78" d="M 47 0 
L 1259 1725 
L 138 3319 
L 841 3319 
L 1350 2541 
Q 1494 2319 1581 2169 
Q 1719 2375 1834 2534 
L 2394 3319 
L 3066 3319 
L 1919 1756 
L 3153 0 
L 2463 0 
L 1781 1031 
L 1600 1309 
L 728 0 
L 47 0 
z
" transform="scale(0.015625)"/>
      </defs>
      <use xlink:href="#ArialMT-78"/>
     </g>
    </g>
   </g>
   <g id="matplotlib.axis_2">
    <g id="ytick_1">
     <g id="line2d_8">
      <path d="M 45 179.824796 
L 324 179.824796 
" clip-path="url(#p9e4811d662)" style="fill: none; stroke: #ffffff; stroke-linecap: round"/>
     </g>
     <g id="text_9">
      <!-- −1.0 -->
      <g style="fill: #262626" transform="translate(13.785312 183.761593) scale(0.11 -0.11)">
       <defs>
        <path id="ArialMT-2212" d="M 3381 1997 
L 356 1997 
L 356 2522 
L 3381 2522 
L 3381 1997 
z
" transform="scale(0.015625)"/>
        <path id="ArialMT-2e" d="M 581 0 
L 581 641 
L 1222 641 
L 1222 0 
L 581 0 
z
" transform="scale(0.015625)"/>
       </defs>
       <use xlink:href="#ArialMT-2212"/>
       <use xlink:href="#ArialMT-31" x="58.398438"/>
       <use xlink:href="#ArialMT-2e" x="114.013672"/>
       <use xlink:href="#ArialMT-30" x="141.796875"/>
      </g>
     </g>
    </g>
    <g id="ytick_2">
     <g id="line2d_9">
      <path d="M 45 152.985655 
L 324 152.985655 
" clip-path="url(#p9e4811d662)" style="fill: none; stroke: #ffffff; stroke-linecap: round"/>
     </g>
     <g id="text_10">
      <!-- −0.5 -->
      <g style="fill: #262626" transform="translate(13.785312 156.922452) scale(0.11 -0.11)">
       <use xlink:href="#ArialMT-2212"/>
       <use xlink:href="#ArialMT-30" x="58.398438"/>
       <use xlink:href="#ArialMT-2e" x="114.013672"/>
       <use xlink:href="#ArialMT-35" x="141.796875"/>
      </g>
     </g>
    </g>
    <g id="ytick_3">
     <g id="line2d_10">
      <path d="M 45 126.146513 
L 324 126.146513 
" clip-path="url(#p9e4811d662)" style="fill: none; stroke: #ffffff; stroke-linecap: round"/>
     </g>
     <g id="text_11">
      <!-- 0.0 -->
      <g style="fill: #262626" transform="translate(20.21 130.08331) scale(0.11 -0.11)">
       <use xlink:href="#ArialMT-30"/>
       <use xlink:href="#ArialMT-2e" x="55.615234"/>
       <use xlink:href="#ArialMT-30" x="83.398438"/>
      </g>
     </g>
    </g>
    <g id="ytick_4">
     <g id="line2d_11">
      <path d="M 45 99.307372 
L 324 99.307372 
" clip-path="url(#p9e4811d662)" style="fill: none; stroke: #ffffff; stroke-linecap: round"/>
     </g>
     <g id="text_12">
      <!-- 0.5 -->
      <g style="fill: #262626" transform="translate(20.21 103.244169) scale(0.11 -0.11)">
       <use xlink:href="#ArialMT-30"/>
       <use xlink:href="#ArialMT-2e" x="55.615234"/>
       <use xlink:href="#ArialMT-35" x="83.398438"/>
      </g>
     </g>
    </g>
    <g id="ytick_5">
     <g id="line2d_12">
      <path d="M 45 72.46823 
L 324 72.46823 
" clip-path="url(#p9e4811d662)" style="fill: none; stroke: #ffffff; stroke-linecap: round"/>
     </g>
     <g id="text_13">
      <!-- 1.0 -->
      <g style="fill: #262626" transform="translate(20.21 76.405027) scale(0.11 -0.11)">
       <use xlink:href="#ArialMT-31"/>
       <use xlink:href="#ArialMT-2e" x="55.615234"/>
       <use xlink:href="#ArialMT-30" x="83.398438"/>
      </g>
     </g>
    </g>
    <g id="ytick_6">
     <g id="line2d_13">
      <path d="M 45 45.629089 
L 324 45.629089 
" clip-path="url(#p9e4811d662)" style="fill: none; stroke: #ffffff; stroke-linecap: round"/>
     </g>
     <g id="text_14">
      <!-- 1.5 -->
      <g style="fill: #262626" transform="translate(20.21 49.565886) scale(0.11 -0.11)">
       <use xlink:href="#ArialMT-31"/>
       <use xlink:href="#ArialMT-2e" x="55.615234"/>
       <use xlink:href="#ArialMT-35" x="83.398438"/>
      </g>
     </g>
    </g>
    <g id="text_15">
     <!-- y -->
     <g style="fill: #262626" transform="translate(7.259688 112.08) rotate(-90) scale(0.12 -0.12)">
      <defs>
       <path id="ArialMT-79" d="M 397 -1278 
L 334 -750 
Q 519 -800 656 -800 
Q 844 -800 956 -737 
Q 1069 -675 1141 -563 
Q 1194 -478 1313 -144 
Q 1328 -97 1363 -6 
L 103 3319 
L 709 3319 
L 1400 1397 
Q 1534 1031 1641 628 
Q 1738 1016 1872 1384 
L 2581 3319 
L 3144 3319 
L 1881 -56 
Q 1678 -603 1566 -809 
Q 1416 -1088 1222 -1217 
Q 1028 -1347 759 -1347 
Q 597 -1347 397 -1278 
z
" transform="scale(0.015625)"/>
      </defs>
      <use xlink:href="#ArialMT-79"/>
     </g>
    </g>
   </g>
   <g id="line2d_14">
    <path d="M 57.681818 102.401514 
L 60.982391 102.399166 
L 64.029075 102.619109 
L 66.821867 103.029559 
L 69.61466 103.656542 
L 72.407453 104.513008 
L 75.200246 105.607836 
L 77.993038 106.945056 
L 80.785831 108.52316 
L 83.832514 110.510336 
L 87.133088 112.954306 
L 90.687551 115.883794 
L 94.749795 119.531082 
L 100.843161 125.347546 
L 107.952088 132.083358 
L 111.760442 135.403284 
L 115.061016 137.997395 
L 117.853808 139.93352 
L 120.646601 141.595067 
L 123.185504 142.843578 
L 125.470516 143.740336 
L 127.755528 144.41419 
L 130.040541 144.861289 
L 132.325553 145.0815 
L 134.610565 145.078329 
L 136.895577 144.85878 
L 139.43448 144.373687 
L 141.973382 143.652744 
L 144.766175 142.614412 
L 147.812858 141.228838 
L 151.367322 139.345836 
L 155.937346 136.640867 
L 167.616298 129.586492 
L 171.170762 127.757206 
L 174.471335 126.312748 
L 177.264128 125.318438 
L 180.056921 124.557226 
L 182.595823 124.081155 
L 185.134726 123.818312 
L 187.673628 123.771136 
L 190.212531 123.937284 
L 193.005324 124.35791 
L 195.798116 125.012463 
L 198.844799 125.967715 
L 202.145373 127.24627 
L 205.953726 128.967612 
L 211.285422 131.647063 
L 219.6638 135.866812 
L 223.472154 137.534087 
L 226.772727 138.7461 
L 229.81941 139.622756 
L 232.612203 140.189534 
L 235.151106 140.487797 
L 237.690008 140.565297 
L 240.228911 140.412558 
L 242.767813 140.024421 
L 245.306716 139.400191 
L 247.845618 138.543687 
L 250.384521 137.46319 
L 253.177314 136.031053 
L 256.223997 134.203408 
L 259.52457 131.951981 
L 263.332924 129.072446 
L 268.410729 124.91863 
L 280.851351 114.598405 
L 284.913595 111.58071 
L 288.468059 109.203458 
L 291.768632 107.254897 
L 294.815315 105.699248 
L 297.861998 104.389566 
L 300.908681 103.331669 
L 303.955364 102.525319 
L 307.002048 101.964666 
L 310.048731 101.638778 
L 311.318182 101.568758 
L 311.318182 101.568758 
" clip-path="url(#p9e4811d662)" style="fill: none; stroke: #0076c2; stroke-linecap: round"/>
   </g>
   <g id="line2d_15">
    <path d="M 57.681818 97.614493 
L 60.728501 97.592723 
L 63.775184 97.791102 
L 67.329648 98.252716 
L 71.645782 99.047893 
L 85.101966 101.703727 
L 89.16421 102.196994 
L 93.226454 102.473786 
L 97.796478 102.559485 
L 113.029894 102.623134 
L 116.584357 102.999445 
L 119.88493 103.58003 
L 123.185504 104.403317 
L 126.486077 105.468561 
L 130.040541 106.861249 
L 134.102785 108.697389 
L 148.066749 115.255577 
L 151.113432 116.329576 
L 153.906224 117.087298 
L 156.445127 117.556056 
L 158.984029 117.792332 
L 161.269042 117.792524 
L 163.554054 117.583148 
L 165.839066 117.160234 
L 168.124079 116.523682 
L 170.662981 115.57038 
L 173.201884 114.367977 
L 175.994676 112.775662 
L 178.787469 110.926262 
L 182.088043 108.452634 
L 185.896396 105.286207 
L 190.720311 100.950593 
L 203.160934 89.60515 
L 206.969287 86.508567 
L 210.269861 84.1007 
L 213.316544 82.152225 
L 216.109337 80.627369 
L 218.648239 79.476767 
L 221.187142 78.563878 
L 223.726044 77.898329 
L 226.011057 77.516256 
L 228.296069 77.342501 
L 230.581081 77.37784 
L 232.866093 77.621267 
L 235.151106 78.070118 
L 237.690008 78.804616 
L 240.228911 79.779725 
L 242.767813 80.985734 
L 245.560606 82.56534 
L 248.353399 84.393105 
L 251.400082 86.647266 
L 254.700655 89.364565 
L 258.509009 92.807211 
L 262.825143 97.030983 
L 268.156839 102.580819 
L 284.913595 120.273124 
L 288.975839 124.122492 
L 292.530303 127.208847 
L 295.830876 129.793989 
L 298.877559 131.910505 
L 301.924242 133.746431 
L 304.717035 135.169959 
L 307.509828 136.33835 
L 310.302621 137.249843 
L 311.318182 137.518088 
L 311.318182 137.518088 
" clip-path="url(#p9e4811d662)" style="fill: none; stroke: #ec6842; stroke-linecap: round"/>
   </g>
   <g id="line2d_16">
    <path d="M 57.681818 184.68 
L 60.474611 184.090939 
L 63.267404 183.277543 
L 66.060197 182.244548 
L 69.10688 180.878705 
L 72.407453 179.138996 
L 75.961916 176.997657 
L 80.024161 174.267799 
L 84.848075 170.734643 
L 91.957002 165.211517 
L 102.112613 157.341698 
L 107.698198 153.306141 
L 112.522113 150.096223 
L 116.838247 147.485801 
L 120.900491 145.283431 
L 124.708845 143.463154 
L 128.517199 141.896388 
L 132.071663 140.67612 
L 135.626126 139.700801 
L 138.926699 139.022631 
L 142.227273 138.569377 
L 145.527846 138.344457 
L 148.828419 138.348425 
L 152.128993 138.578369 
L 155.429566 139.027342 
L 158.984029 139.742543 
L 162.792383 140.752249 
L 166.854627 142.068756 
L 171.678542 143.880395 
L 179.29525 147.026077 
L 186.150287 149.769913 
L 190.466421 151.253601 
L 194.020885 152.241162 
L 197.067568 152.872881 
L 200.114251 153.272814 
L 202.907043 153.413104 
L 205.699836 153.320793 
L 208.492629 152.985853 
L 211.285422 152.404515 
L 214.078215 151.579835 
L 216.871007 150.522066 
L 219.91769 149.12313 
L 223.218264 147.356257 
L 227.026618 145.062183 
L 232.866093 141.241793 
L 239.46724 136.967077 
L 243.275594 134.770317 
L 246.322277 133.260424 
L 249.11507 132.123736 
L 251.653972 131.330469 
L 253.938984 130.83433 
L 256.223997 130.561018 
L 258.509009 130.52317 
L 260.794021 130.730015 
L 263.079034 131.187192 
L 265.364046 131.896619 
L 267.649058 132.856406 
L 269.93407 134.060831 
L 272.472973 135.67428 
L 275.011876 137.559431 
L 277.804668 139.918258 
L 280.851351 142.787643 
L 284.405815 146.448315 
L 289.22973 151.770712 
L 299.38534 163.078718 
L 303.193694 166.929072 
L 306.494267 169.944716 
L 309.28706 172.216605 
L 311.318182 173.691197 
L 311.318182 173.691197 
" clip-path="url(#p9e4811d662)" style="fill: none; stroke: #a50034; stroke-linecap: round"/>
   </g>
   <g id="line2d_17">
    <path d="M 57.681818 67.5237 
L 60.474611 65.760269 
L 63.267404 64.270059 
L 65.806306 63.170277 
L 68.345209 62.326541 
L 70.630221 61.79426 
L 72.915233 61.482566 
L 75.200246 61.394956 
L 77.485258 61.533349 
L 79.77027 61.898216 
L 82.055283 62.48872 
L 84.340295 63.302829 
L 86.625307 64.337402 
L 89.16421 65.740374 
L 91.703112 67.403109 
L 94.495905 69.521567 
L 97.288698 71.929497 
L 100.335381 74.866522 
L 103.635954 78.383721 
L 107.190418 82.516346 
L 111.252662 87.600574 
L 116.330467 94.334632 
L 128.263309 110.314741 
L 132.071663 114.954901 
L 135.118346 118.342961 
L 137.911138 121.135905 
L 140.450041 123.37809 
L 142.988943 125.310578 
L 145.273956 126.769181 
L 147.558968 127.953108 
L 149.59009 128.772604 
L 151.621212 129.374943 
L 153.652334 129.765964 
L 155.937346 129.965332 
L 158.222359 129.928509 
L 160.507371 129.679827 
L 163.046274 129.190428 
L 166.092957 128.369269 
L 170.155201 127.019567 
L 178.533579 124.162458 
L 181.834152 123.300994 
L 184.626945 122.783143 
L 187.419738 122.494576 
L 189.95864 122.449124 
L 192.497543 122.617599 
L 195.036446 122.998818 
L 197.829238 123.653404 
L 200.622031 124.534451 
L 203.668714 125.720918 
L 207.223178 127.345547 
L 211.793202 129.698184 
L 228.803849 138.724671 
L 233.373874 140.756066 
L 237.436118 142.323637 
L 241.244472 143.560129 
L 244.798935 144.483228 
L 248.099509 145.112978 
L 251.146192 145.472847 
L 253.938984 145.591457 
L 256.731777 145.483689 
L 259.27068 145.168761 
L 261.809582 144.62878 
L 264.348485 143.84755 
L 266.887387 142.811685 
L 269.42629 141.511812 
L 271.965192 139.943722 
L 274.504095 138.109369 
L 277.296888 135.7949 
L 280.089681 133.191487 
L 283.390254 129.788641 
L 287.198608 125.517768 
L 293.038084 118.579417 
L 299.13145 111.433917 
L 302.685913 107.596421 
L 305.732596 104.627573 
L 308.525389 102.229464 
L 311.064292 100.354971 
L 311.318182 100.184548 
L 311.318182 100.184548 
" clip-path="url(#p9e4811d662)" style="fill: none; stroke: #009b77; stroke-linecap: round"/>
   </g>
   <g id="line2d_18">
    <path d="M 57.681818 85.682772 
L 60.982391 86.131779 
L 64.282965 86.813096 
L 67.583538 87.719272 
L 71.138002 88.92694 
L 75.200246 90.558506 
L 80.024161 92.749653 
L 92.972563 98.773206 
L 96.527027 100.110102 
L 99.57371 101.035317 
L 102.366503 101.66617 
L 105.159296 102.061088 
L 107.698198 102.197875 
L 110.237101 102.11272 
L 112.776003 101.802003 
L 115.314906 101.268911 
L 118.107699 100.438307 
L 120.900491 99.375556 
L 124.201065 97.86849 
L 128.263309 95.748316 
L 138.418919 90.316929 
L 141.465602 88.999468 
L 144.004505 88.120363 
L 146.543407 87.483982 
L 148.828419 87.147364 
L 151.113432 87.055117 
L 153.144554 87.189837 
L 155.175676 87.534812 
L 157.206798 88.092034 
L 159.23792 88.859528 
L 161.522932 89.96682 
L 163.807944 91.318617 
L 166.346847 93.083261 
L 169.13964 95.303691 
L 172.440213 98.231681 
L 176.756347 102.391186 
L 186.404177 111.808413 
L 189.70475 114.679763 
L 192.497543 116.842144 
L 195.036446 118.548659 
L 197.321458 119.844779 
L 199.60647 120.892844 
L 201.637592 121.603228 
L 203.668714 122.096588 
L 205.699836 122.367253 
L 207.730958 122.412268 
L 209.76208 122.231357 
L 211.793202 121.826864 
L 213.824324 121.203659 
L 216.109337 120.250249 
L 218.394349 119.042963 
L 220.933251 117.424408 
L 223.472154 115.540462 
L 226.264947 113.198094 
L 229.56552 110.123809 
L 233.373874 106.259236 
L 238.451679 100.770264 
L 252.923423 84.948497 
L 258.255119 79.553183 
L 263.332924 74.736161 
L 268.410729 70.235746 
L 273.234644 66.250818 
L 277.804668 62.749442 
L 282.120803 59.72202 
L 285.929156 57.322493 
L 289.22973 55.492555 
L 292.276413 54.047081 
L 295.069206 52.958496 
L 297.608108 52.188576 
L 300.147011 51.647531 
L 302.432023 51.370066 
L 304.717035 51.30129 
L 307.002048 51.448274 
L 309.28706 51.814904 
L 311.318182 52.325576 
L 311.318182 52.325576 
" clip-path="url(#p9e4811d662)" style="fill: none; stroke: #ffb81c; stroke-linecap: round"/>
   </g>
   <g id="line2d_19">
    <path d="M 57.681818 107.459518 
L 60.474611 106.739266 
L 63.267404 105.792368 
L 66.060197 104.621343 
L 69.10688 103.098231 
L 72.407453 101.180731 
L 75.961916 98.844458 
L 80.024161 95.903889 
L 86.371417 90.988379 
L 92.972563 85.946592 
L 96.780917 83.314972 
L 99.8276 81.460897 
L 102.620393 80.013484 
L 105.159296 78.943862 
L 107.444308 78.205831 
L 109.72932 77.698683 
L 112.014333 77.43632 
L 114.045455 77.416826 
L 116.076577 77.603031 
L 118.107699 77.996472 
L 120.138821 78.595859 
L 122.423833 79.51108 
L 124.708845 80.671524 
L 127.247748 82.230889 
L 129.78665 84.049777 
L 132.579443 86.313696 
L 135.880016 89.28245 
L 139.94226 93.253037 
L 147.558968 101.098622 
L 153.398444 106.947951 
L 157.460688 110.713581 
L 161.015152 113.722282 
L 164.315725 116.238128 
L 167.362408 118.302013 
L 170.409091 120.104504 
L 173.455774 121.635894 
L 176.248567 122.794208 
L 179.04136 123.710534 
L 181.834152 124.376556 
L 184.373055 124.756346 
L 186.911957 124.911981 
L 189.45086 124.833488 
L 191.735872 124.554019 
L 194.020885 124.068983 
L 196.305897 123.371731 
L 198.590909 122.457103 
L 200.875921 121.322176 
L 203.414824 119.803009 
L 205.953726 118.01771 
L 208.746519 115.76165 
L 211.793202 112.983395 
L 215.093776 109.660291 
L 219.40991 104.972942 
L 228.549959 94.938869 
L 231.596642 91.961116 
L 234.135545 89.757138 
L 236.420557 88.04016 
L 238.705569 86.613067 
L 240.736691 85.611327 
L 242.767813 84.876179 
L 244.545045 84.458803 
L 246.322277 84.254626 
L 248.099509 84.262052 
L 249.87674 84.475713 
L 251.907862 84.960601 
L 253.938984 85.683591 
L 256.223997 86.750324 
L 258.762899 88.199309 
L 261.809582 90.210407 
L 267.141278 94.062866 
L 271.457412 97.066757 
L 274.504095 98.911977 
L 277.042998 100.187664 
L 279.32801 101.089993 
L 281.359132 101.675499 
L 283.390254 102.045628 
L 285.421376 102.195612 
L 287.452498 102.126747 
L 289.48362 101.846128 
L 291.768632 101.293045 
L 294.053645 100.512847 
L 296.592547 99.417927 
L 299.63923 97.856109 
L 303.955364 95.358851 
L 311.318182 91.04995 
L 311.318182 91.04995 
" clip-path="url(#p9e4811d662)" style="fill: none; stroke: #e03c31; stroke-linecap: round"/>
   </g>
   <g id="line2d_20">
    <path d="M 57.681818 144.135952 
L 60.474611 142.589942 
L 63.267404 140.777095 
L 66.314087 138.512011 
L 69.61466 135.752621 
L 73.169124 132.482288 
L 77.739148 127.949737 
L 90.433661 115.154862 
L 93.734234 112.234008 
L 96.780917 109.838158 
L 99.31982 108.107099 
L 101.858722 106.64953 
L 104.143735 105.591572 
L 106.428747 104.787522 
L 108.459869 104.292335 
L 110.490991 104.00569 
L 112.522113 103.925646 
L 114.807125 104.075201 
L 117.092138 104.464677 
L 119.37715 105.073741 
L 121.916052 105.975858 
L 124.962735 107.310798 
L 129.02498 109.369721 
L 136.641687 113.293576 
L 139.68837 114.590138 
L 142.227273 115.446142 
L 144.512285 116.002725 
L 146.797297 116.330669 
L 149.08231 116.412739 
L 151.113432 116.271962 
L 153.144554 115.929505 
L 155.429566 115.309916 
L 157.714578 114.457543 
L 160.253481 113.266678 
L 163.046274 111.710684 
L 166.600737 109.46592 
L 177.264128 102.547662 
L 180.310811 100.945772 
L 182.849713 99.844883 
L 185.388616 98.984958 
L 187.927518 98.37929 
L 190.212531 98.05223 
L 192.751433 97.920721 
L 195.290336 98.011726 
L 198.083129 98.33074 
L 201.383702 98.932934 
L 206.461507 100.117451 
L 212.808763 101.557127 
L 216.617117 102.186478 
L 220.171581 102.541626 
L 223.726044 102.664833 
L 227.788288 102.565849 
L 241.244472 102.003388 
L 244.291155 102.249445 
L 246.830057 102.665119 
L 249.36896 103.302141 
L 251.907862 104.180494 
L 254.446765 105.311704 
L 256.985667 106.698507 
L 259.52457 108.33494 
L 262.317363 110.406183 
L 265.364046 112.95593 
L 268.918509 116.247413 
L 273.234644 120.569428 
L 286.944717 134.551446 
L 290.499181 137.753599 
L 293.799754 140.436821 
L 296.846437 142.629632 
L 299.63923 144.380977 
L 302.432023 145.874781 
L 305.224816 147.10772 
L 308.017609 148.082303 
L 310.810401 148.806308 
L 311.318182 148.911927 
L 311.318182 148.911927 
" clip-path="url(#p9e4811d662)" style="fill: none; stroke: #6cc24a; stroke-linecap: round"/>
   </g>
   <g id="line2d_21">
    <path d="M 57.681818 107.753001 
L 64.536855 111.198347 
L 74.692465 116.31428 
L 79.0086 118.233385 
L 82.563063 119.585961 
L 85.863636 120.598754 
L 88.656429 121.236014 
L 91.449222 121.643278 
L 93.988124 121.794117 
L 96.527027 121.721073 
L 99.06593 121.413712 
L 101.604832 120.866319 
L 104.143735 120.078684 
L 106.682637 119.056818 
L 109.47543 117.677808 
L 112.522113 115.900656 
L 115.822686 113.712312 
L 120.392711 110.390755 
L 127.501638 105.209183 
L 130.548321 103.264623 
L 133.087224 101.88908 
L 135.372236 100.89732 
L 137.403358 100.247836 
L 139.43448 99.845375 
L 141.211712 99.714706 
L 142.988943 99.80481 
L 144.766175 100.126153 
L 146.543407 100.686032 
L 148.320639 101.488308 
L 150.097871 102.533205 
L 151.875102 103.817178 
L 153.906224 105.567674 
L 155.937346 107.603537 
L 158.222359 110.205557 
L 160.761261 113.433468 
L 163.807944 117.677673 
L 168.124079 124.114797 
L 174.725225 133.966154 
L 177.771908 138.11768 
L 180.310811 141.229968 
L 182.595823 143.692692 
L 184.626945 145.572075 
L 186.658067 147.130649 
L 188.435299 148.213667 
L 190.212531 149.022966 
L 191.735872 149.493078 
L 193.259214 149.754042 
L 194.782555 149.80524 
L 196.305897 149.647931 
L 197.829238 149.285174 
L 199.60647 148.608751 
L 201.383702 147.669566 
L 203.160934 146.480634 
L 205.192056 144.83593 
L 207.223178 142.91159 
L 209.50819 140.449039 
L 212.047093 137.396408 
L 215.093776 133.383364 
L 219.15602 127.631659 
L 230.581081 111.193435 
L 234.135545 106.601789 
L 237.182228 103.036206 
L 239.97502 100.120281 
L 242.513923 97.791269 
L 244.798935 95.972424 
L 247.083948 94.42446 
L 249.36896 93.150621 
L 251.653972 92.149791 
L 253.938984 91.41674 
L 256.223997 90.942423 
L 258.509009 90.714342 
L 260.794021 90.716945 
L 263.079034 90.93206 
L 265.617936 91.395532 
L 268.410729 92.143135 
L 271.457412 93.193978 
L 275.011876 94.655905 
L 280.089681 97.013542 
L 290.245291 101.787343 
L 294.561425 103.528041 
L 298.369779 104.814304 
L 301.924242 105.76694 
L 305.224816 106.419852 
L 308.525389 106.843336 
L 311.318182 107.023968 
L 311.318182 107.023968 
" clip-path="url(#p9e4811d662)" style="fill: none; stroke: #ef60a3; stroke-linecap: round"/>
   </g>
   <g id="line2d_22">
    <path d="M 57.681818 87.945391 
L 61.236282 86.491185 
L 65.298526 85.090099 
L 71.391892 83.273238 
L 77.485258 81.387262 
L 81.293612 79.966585 
L 84.594185 78.496528 
L 87.640868 76.905068 
L 90.687551 75.07236 
L 93.988124 72.81749 
L 97.542588 70.106276 
L 101.858722 66.511931 
L 114.045455 56.140224 
L 117.092138 53.91799 
L 119.88493 52.149124 
L 122.423833 50.810562 
L 124.708845 49.855652 
L 126.739967 49.223909 
L 128.771089 48.809562 
L 130.802211 48.622383 
L 132.833333 48.669362 
L 134.864455 48.954689 
L 136.895577 49.479802 
L 138.926699 50.243464 
L 140.957821 51.241885 
L 143.242834 52.637923 
L 145.527846 54.311012 
L 148.066749 56.476127 
L 150.605651 58.939032 
L 153.398444 61.95766 
L 156.445127 65.571757 
L 159.99959 70.134067 
L 164.569615 76.394177 
L 172.947993 88.361221 
L 179.29525 97.232873 
L 183.865274 103.241202 
L 187.673628 107.905196 
L 191.228092 111.930436 
L 194.782555 115.613174 
L 198.083129 118.715134 
L 201.383702 121.509815 
L 204.684275 124.003377 
L 207.984848 126.207976 
L 211.285422 128.140449 
L 214.585995 129.821078 
L 218.140459 131.375331 
L 221.694922 132.693885 
L 225.503276 133.88041 
L 229.81941 134.990035 
L 234.897215 136.049022 
L 241.244472 137.129884 
L 257.239558 139.748259 
L 262.825143 140.956812 
L 267.902948 142.281948 
L 273.234644 143.912412 
L 279.32801 146.020545 
L 293.038084 150.85801 
L 297.100328 152.004374 
L 300.654791 152.786588 
L 303.955364 153.286506 
L 307.002048 153.528884 
L 310.048731 153.545143 
L 311.318182 153.483147 
L 311.318182 153.483147 
" clip-path="url(#p9e4811d662)" style="fill: none; stroke: #0c2340; stroke-linecap: round"/>
   </g>
   <g id="line2d_23">
    <path d="M 57.681818 43.955233 
L 60.474611 41.096504 
L 63.013514 38.808484 
L 65.298526 37.045368 
L 67.329648 35.743477 
L 69.36077 34.716046 
L 71.138002 34.059683 
L 72.915233 33.644167 
L 74.692465 33.481863 
L 76.215807 33.552551 
L 77.739148 33.823112 
L 79.26249 34.298384 
L 80.785831 34.982126 
L 82.563063 36.046724 
L 84.340295 37.400641 
L 86.117527 39.043609 
L 87.894758 40.972955 
L 89.92588 43.521915 
L 91.957002 46.42661 
L 94.242015 50.099978 
L 96.780917 54.651666 
L 99.57371 60.175147 
L 102.620393 66.733201 
L 106.174857 74.944035 
L 110.998771 86.723591 
L 121.916052 113.635238 
L 125.724406 122.341106 
L 129.02498 129.349804 
L 132.071663 135.287506 
L 134.864455 140.228326 
L 137.403358 144.272955 
L 139.68837 147.53382 
L 141.973382 150.427599 
L 144.258395 152.951957 
L 146.289517 154.887575 
L 148.320639 156.5379 
L 150.351761 157.91029 
L 152.382883 159.014525 
L 154.414005 159.862567 
L 156.445127 160.468293 
L 158.476249 160.847204 
L 160.507371 161.016107 
L 162.792383 160.977271 
L 165.077396 160.72141 
L 167.616298 160.214939 
L 170.409091 159.429271 
L 173.709664 158.252664 
L 177.518018 156.645569 
L 182.341933 154.354923 
L 188.943079 150.95625 
L 196.305897 146.922944 
L 202.145373 143.479889 
L 206.969287 140.380748 
L 211.285422 137.35255 
L 215.601556 134.051859 
L 220.171581 130.259895 
L 225.249386 125.741115 
L 234.389435 117.222193 
L 239.97502 112.182462 
L 244.037265 108.808845 
L 247.337838 106.337418 
L 250.384521 104.321338 
L 253.177314 102.728726 
L 255.970106 101.403397 
L 258.509009 100.444247 
L 261.047912 99.727085 
L 263.586814 99.255056 
L 266.125717 99.02677 
L 268.664619 99.036361 
L 271.203522 99.27362 
L 273.742424 99.724214 
L 276.535217 100.444493 
L 279.5819 101.465356 
L 283.136364 102.909578 
L 287.452498 104.923002 
L 301.670352 111.781128 
L 305.224816 113.151437 
L 308.525389 114.193851 
L 311.318182 114.880544 
L 311.318182 114.880544 
" clip-path="url(#p9e4811d662)" style="fill: none; stroke: #00b8c8; stroke-linecap: round"/>
   </g>
   <g id="patch_3">
    <path d="M 45 192.24 
L 45 25.92 
" style="fill: none; stroke: #ffffff; stroke-width: 1.25; stroke-linejoin: miter; stroke-linecap: square"/>
   </g>
   <g id="patch_4">
    <path d="M 324 192.24 
L 324 25.92 
" style="fill: none; stroke: #ffffff; stroke-width: 1.25; stroke-linejoin: miter; stroke-linecap: square"/>
   </g>
   <g id="patch_5">
    <path d="M 45 192.24 
L 324 192.24 
" style="fill: none; stroke: #ffffff; stroke-width: 1.25; stroke-linejoin: miter; stroke-linecap: square"/>
   </g>
   <g id="patch_6">
    <path d="M 45 25.92 
L 324 25.92 
" style="fill: none; stroke: #ffffff; stroke-width: 1.25; stroke-linejoin: miter; stroke-linecap: square"/>
   </g>
   <g id="legend_1">
    <g id="patch_7">
     <path d="M 257.029687 41.589062 
L 319.1 41.589062 
Q 320.5 41.589062 320.5 40.189062 
L 320.5 30.82 
Q 320.5 29.42 319.1 29.42 
L 257.029687 29.42 
Q 255.629687 29.42 255.629687 30.82 
L 255.629687 40.189062 
Q 255.629687 41.589062 257.029687 41.589062 
z
" style="fill: #eaeaf2; opacity: 0.8; stroke: #cccccc; stroke-linejoin: miter"/>
    </g>
    <g id="line2d_24">
     <path d="M 258.429688 34.865781 
L 265.429688 34.865781 
L 272.429688 34.865781 
" style="fill: none; stroke: #808080; stroke-linecap: round"/>
    </g>
    <g id="text_16">
     <!-- y(x) samples -->
     <g style="fill: #262626" transform="translate(278.029688 37.315781) scale(0.07 -0.07)">
      <defs>
       <path id="ArialMT-28" d="M 1497 -1347 
Q 1031 -759 709 28 
Q 388 816 388 1659 
Q 388 2403 628 3084 
Q 909 3875 1497 4659 
L 1900 4659 
Q 1522 4009 1400 3731 
Q 1209 3300 1100 2831 
Q 966 2247 966 1656 
Q 966 153 1900 -1347 
L 1497 -1347 
z
" transform="scale(0.015625)"/>
       <path id="ArialMT-29" d="M 791 -1347 
L 388 -1347 
Q 1322 153 1322 1656 
Q 1322 2244 1188 2822 
Q 1081 3291 891 3722 
Q 769 4003 388 4659 
L 791 4659 
Q 1378 3875 1659 3084 
Q 1900 2403 1900 1659 
Q 1900 816 1576 28 
Q 1253 -759 791 -1347 
z
" transform="scale(0.015625)"/>
       <path id="ArialMT-20" transform="scale(0.015625)"/>
       <path id="ArialMT-73" d="M 197 991 
L 753 1078 
Q 800 744 1014 566 
Q 1228 388 1613 388 
Q 2000 388 2187 545 
Q 2375 703 2375 916 
Q 2375 1106 2209 1216 
Q 2094 1291 1634 1406 
Q 1016 1563 777 1677 
Q 538 1791 414 1992 
Q 291 2194 291 2438 
Q 291 2659 392 2848 
Q 494 3038 669 3163 
Q 800 3259 1026 3326 
Q 1253 3394 1513 3394 
Q 1903 3394 2198 3281 
Q 2494 3169 2634 2976 
Q 2775 2784 2828 2463 
L 2278 2388 
Q 2241 2644 2061 2787 
Q 1881 2931 1553 2931 
Q 1166 2931 1000 2803 
Q 834 2675 834 2503 
Q 834 2394 903 2306 
Q 972 2216 1119 2156 
Q 1203 2125 1616 2013 
Q 2213 1853 2448 1751 
Q 2684 1650 2818 1456 
Q 2953 1263 2953 975 
Q 2953 694 2789 445 
Q 2625 197 2315 61 
Q 2006 -75 1616 -75 
Q 969 -75 630 194 
Q 291 463 197 991 
z
" transform="scale(0.015625)"/>
       <path id="ArialMT-61" d="M 2588 409 
Q 2275 144 1986 34 
Q 1697 -75 1366 -75 
Q 819 -75 525 192 
Q 231 459 231 875 
Q 231 1119 342 1320 
Q 453 1522 633 1644 
Q 813 1766 1038 1828 
Q 1203 1872 1538 1913 
Q 2219 1994 2541 2106 
Q 2544 2222 2544 2253 
Q 2544 2597 2384 2738 
Q 2169 2928 1744 2928 
Q 1347 2928 1158 2789 
Q 969 2650 878 2297 
L 328 2372 
Q 403 2725 575 2942 
Q 747 3159 1072 3276 
Q 1397 3394 1825 3394 
Q 2250 3394 2515 3294 
Q 2781 3194 2906 3042 
Q 3031 2891 3081 2659 
Q 3109 2516 3109 2141 
L 3109 1391 
Q 3109 606 3145 398 
Q 3181 191 3288 0 
L 2700 0 
Q 2613 175 2588 409 
z
M 2541 1666 
Q 2234 1541 1622 1453 
Q 1275 1403 1131 1340 
Q 988 1278 909 1158 
Q 831 1038 831 891 
Q 831 666 1001 516 
Q 1172 366 1500 366 
Q 1825 366 2078 508 
Q 2331 650 2450 897 
Q 2541 1088 2541 1459 
L 2541 1666 
z
" transform="scale(0.015625)"/>
       <path id="ArialMT-6d" d="M 422 0 
L 422 3319 
L 925 3319 
L 925 2853 
Q 1081 3097 1340 3245 
Q 1600 3394 1931 3394 
Q 2300 3394 2536 3241 
Q 2772 3088 2869 2813 
Q 3263 3394 3894 3394 
Q 4388 3394 4653 3120 
Q 4919 2847 4919 2278 
L 4919 0 
L 4359 0 
L 4359 2091 
Q 4359 2428 4304 2576 
Q 4250 2725 4106 2815 
Q 3963 2906 3769 2906 
Q 3419 2906 3187 2673 
Q 2956 2441 2956 1928 
L 2956 0 
L 2394 0 
L 2394 2156 
Q 2394 2531 2256 2718 
Q 2119 2906 1806 2906 
Q 1569 2906 1367 2781 
Q 1166 2656 1075 2415 
Q 984 2175 984 1722 
L 984 0 
L 422 0 
z
" transform="scale(0.015625)"/>
       <path id="ArialMT-70" d="M 422 -1272 
L 422 3319 
L 934 3319 
L 934 2888 
Q 1116 3141 1344 3267 
Q 1572 3394 1897 3394 
Q 2322 3394 2647 3175 
Q 2972 2956 3137 2557 
Q 3303 2159 3303 1684 
Q 3303 1175 3120 767 
Q 2938 359 2589 142 
Q 2241 -75 1856 -75 
Q 1575 -75 1351 44 
Q 1128 163 984 344 
L 984 -1272 
L 422 -1272 
z
M 931 1641 
Q 931 1000 1190 694 
Q 1450 388 1819 388 
Q 2194 388 2461 705 
Q 2728 1022 2728 1688 
Q 2728 2322 2467 2637 
Q 2206 2953 1844 2953 
Q 1484 2953 1207 2617 
Q 931 2281 931 1641 
z
" transform="scale(0.015625)"/>
       <path id="ArialMT-6c" d="M 409 0 
L 409 4581 
L 972 4581 
L 972 0 
L 409 0 
z
" transform="scale(0.015625)"/>
       <path id="ArialMT-65" d="M 2694 1069 
L 3275 997 
Q 3138 488 2766 206 
Q 2394 -75 1816 -75 
Q 1088 -75 661 373 
Q 234 822 234 1631 
Q 234 2469 665 2931 
Q 1097 3394 1784 3394 
Q 2450 3394 2872 2941 
Q 3294 2488 3294 1666 
Q 3294 1616 3291 1516 
L 816 1516 
Q 847 969 1125 678 
Q 1403 388 1819 388 
Q 2128 388 2347 550 
Q 2566 713 2694 1069 
z
M 847 1978 
L 2700 1978 
Q 2663 2397 2488 2606 
Q 2219 2931 1791 2931 
Q 1403 2931 1139 2672 
Q 875 2413 847 1978 
z
" transform="scale(0.015625)"/>
      </defs>
      <use xlink:href="#ArialMT-79"/>
      <use xlink:href="#ArialMT-28" x="50"/>
      <use xlink:href="#ArialMT-78" x="83.300781"/>
      <use xlink:href="#ArialMT-29" x="133.300781"/>
      <use xlink:href="#ArialMT-20" x="166.601562"/>
      <use xlink:href="#ArialMT-73" x="194.384766"/>
      <use xlink:href="#ArialMT-61" x="244.384766"/>
      <use xlink:href="#ArialMT-6d" x="300"/>
      <use xlink:href="#ArialMT-70" x="383.300781"/>
      <use xlink:href="#ArialMT-6c" x="438.916016"/>
      <use xlink:href="#ArialMT-65" x="461.132812"/>
      <use xlink:href="#ArialMT-73" x="516.748047"/>
     </g>
    </g>
   </g>
  </g>
 </g>
 <defs>
  <clipPath id="p9e4811d662">
   <rect x="45" y="25.92" width="279" height="166.32"/>
  </clipPath>
 </defs>
</svg>
