<?xml version="1.0" encoding="UTF-8" standalone="no"?>
<!-- Created with Inkscape (http://www.inkscape.org/) -->

<svg
   sodipodi:docname="figures_new_color.svg"
   inkscape:version="1.3 (1:1.3+202307231459+0e150ed6c4)"
   id="svg854"
   version="1.1"
   viewBox="0 0 294.16241 51.909264"
   height="51.909233mm"
   width="294.16241mm"
   inkscape:export-filename="/home/home/ownCloud2/proposals/veni2021/figures/scheme.png"
   inkscape:export-xdpi="200"
   inkscape:export-ydpi="200"
   xml:space="preserve"
   xmlns:inkscape="http://www.inkscape.org/namespaces/inkscape"
   xmlns:sodipodi="http://sodipodi.sourceforge.net/DTD/sodipodi-0.dtd"
   xmlns:xlink="http://www.w3.org/1999/xlink"
   xmlns="http://www.w3.org/2000/svg"
   xmlns:svg="http://www.w3.org/2000/svg"
   xmlns:rdf="http://www.w3.org/1999/02/22-rdf-syntax-ns#"
   xmlns:cc="http://creativecommons.org/ns#"
   xmlns:dc="http://purl.org/dc/elements/1.1/"
   xmlns:ns1="http://www.iki.fi/pav/software/textext/"><sodipodi:namedview
     id="base"
     pagecolor="#ffffff"
     bordercolor="#666666"
     borderopacity="1.0"
     inkscape:pageopacity="0.0"
     inkscape:pageshadow="2"
     inkscape:zoom="1.4875614"
     inkscape:cx="5666.3209"
     inkscape:cy="-4516.1162"
     inkscape:document-units="mm"
     inkscape:current-layer="layer1"
     showgrid="false"
     inkscape:window-width="1920"
     inkscape:window-height="1136"
     inkscape:window-x="0"
     inkscape:window-y="27"
     inkscape:window-maximized="1"
     inkscape:measure-start="1676.07,1011.79"
     inkscape:measure-end="1694.29,1021.79"
     fit-margin-top="0"
     fit-margin-left="0"
     fit-margin-right="0"
     fit-margin-bottom="0"
     inkscape:snap-object-midpoints="true"
     inkscape:snap-center="true"
     inkscape:snap-global="false"
     inkscape:lockguides="true"
     showguides="false"
     inkscape:snap-page="true"
     inkscape:showpageshadow="2"
     inkscape:pagecheckerboard="0"
     inkscape:deskcolor="#d1d1d1" /><defs
     id="defs848"><linearGradient
       id="linearGradient3045"
       inkscape:collect="always"><stop
         style="stop-color:#000000;stop-opacity:0.25400591;"
         offset="0"
         id="stop3045" /><stop
         style="stop-color:#000000;stop-opacity:1;"
         offset="1"
         id="stop3046" /></linearGradient><linearGradient
       id="linearGradient3042"
       inkscape:collect="always"><stop
         style="stop-color:#010000;stop-opacity:1;"
         offset="0"
         id="stop3042" /><stop
         style="stop-color:#010000;stop-opacity:0.24689339;"
         offset="1"
         id="stop3043" /></linearGradient><marker
       style="overflow:visible"
       id="marker191"
       refX="0"
       refY="0"
       orient="auto-start-reverse"
       inkscape:stockid="Dart arrow"
       markerWidth="1"
       markerHeight="1"
       viewBox="0 0 1 1"
       inkscape:isstock="true"
       inkscape:collect="always"
       preserveAspectRatio="xMidYMid"><path
         style="fill:context-stroke;fill-rule:evenodd;stroke:none"
         d="M 0,0 5,-5 -12.5,0 5,5 Z"
         transform="scale(-0.5)"
         id="path191" /></marker><linearGradient
       inkscape:collect="always"
       xlink:href="#linearGradient3042"
       id="linearGradient3226"
       gradientUnits="userSpaceOnUse"
       x1="83.681068"
       y1="552.06409"
       x2="101.45416"
       y2="552.06409"
       gradientTransform="translate(550.68513)" /><linearGradient
       inkscape:collect="always"
       xlink:href="#linearGradient3045"
       id="linearGradient3227"
       gradientUnits="userSpaceOnUse"
       gradientTransform="translate(569.8261)"
       x1="214.59422"
       y1="552.06409"
       x2="232.36731"
       y2="552.06409" /></defs><metadata
     id="metadata851"><rdf:RDF><cc:Work
         rdf:about=""><dc:format>image/svg+xml</dc:format><dc:type
           rdf:resource="http://purl.org/dc/dcmitype/StillImage" /></cc:Work></rdf:RDF></metadata><g
     inkscape:label="Layer 1"
     inkscape:groupmode="layer"
     id="layer1"
     transform="translate(-571.38005,-538.09293)"><g
       transform="matrix(1.03285,0,0,1.03285,599.90676,538.09321)"
       ns1:version="1.9.0"
       ns1:texconverter="pdflatex"
       ns1:pdfconverter="inkscape"
       ns1:text="$y_1$"
       ns1:preamble="/home/iuribarcelos/.config/inkscape/extensions/textext/default_packages.tex"
       ns1:scale="2.927767037627063"
       ns1:alignment="middle center"
       ns1:stroke-to-path="0"
       ns1:inkscapeversion="1.3"
       id="g2756"
       ns1:jacobian_sqrt="1.03285"
       inkscape:export-filename="../../../slides/figures/gpgraph2.pdf"
       inkscape:export-xdpi="200"
       inkscape:export-ydpi="200"><defs
   id="defs2751" />&#10;  <g
   fill="#000000"
   fill-opacity="1"
   id="g2753"
   transform="translate(-149.009,-130.359)">&#10;    <g
   transform="translate(148.712,134.765)"
   id="g2752"><path
   d="m 4.84375,-3.796875 c 0.046875,-0.140625 0.046875,-0.15625 0.046875,-0.234375 0,-0.171875 -0.140625,-0.265625 -0.296875,-0.265625 -0.09375,0 -0.25,0.0625 -0.34375,0.203125 -0.015625,0.0625 -0.109375,0.359375 -0.140625,0.546875 -0.078125,0.25 -0.140625,0.53125 -0.203125,0.796875 l -0.453125,1.796875 c -0.03125,0.140625 -0.46875,0.84375 -1.125,0.84375 -0.5,0 -0.609375,-0.4375 -0.609375,-0.8125 C 1.71875,-1.375 1.890625,-2 2.21875,-2.875 2.375,-3.28125 2.421875,-3.390625 2.421875,-3.59375 c 0,-0.4375 -0.3125,-0.8125 -0.8125,-0.8125 -0.953125,0 -1.3125,1.453125 -1.3125,1.53125 0,0.109375 0.09375,0.109375 0.109375,0.109375 0.109375,0 0.109375,-0.03125 0.15625,-0.1875 0.28125,-0.9375 0.671875,-1.234375 1.015625,-1.234375 0.078125,0 0.25,0 0.25,0.3125 0,0.25 -0.109375,0.515625 -0.171875,0.703125 -0.40625,1.0625 -0.578125,1.625 -0.578125,2.09375 0,0.890625 0.625,1.1875 1.21875,1.1875 0.390625,0 0.71875,-0.171875 1,-0.453125 -0.125,0.515625 -0.25,1.015625 -0.640625,1.546875 -0.265625,0.328125 -0.640625,0.625 -1.09375,0.625 -0.140625,0 -0.59375,-0.03125 -0.765625,-0.421875 0.15625,0 0.296875,0 0.421875,-0.125 C 1.328125,1.203125 1.421875,1.0625 1.421875,0.875 1.421875,0.5625 1.15625,0.53125 1.0625,0.53125 0.828125,0.53125 0.5,0.6875 0.5,1.171875 c 0,0.5 0.4375,0.875 1.0625,0.875 1.015625,0 2.046875,-0.90625 2.328125,-2.03125 z m 0,0"
   id="path2751" />&#10;      </g></g>&#10;  <g
   fill="#000000"
   fill-opacity="1"
   id="g2755"
   transform="translate(-149.009,-130.359)">&#10;    <g
   transform="translate(153.597,136.259)"
   id="g2754"><path
   d="m 2.328125,-4.4375 c 0,-0.1875 0,-0.1875 -0.203125,-0.1875 -0.453125,0.4375 -1.078125,0.4375 -1.359375,0.4375 v 0.25 c 0.15625,0 0.625,0 1,-0.1875 v 3.546875 c 0,0.234375 0,0.328125 -0.6875,0.328125 H 0.8125 V 0 c 0.125,0 0.984375,-0.03125 1.234375,-0.03125 0.21875,0 1.09375,0.03125 1.25,0.03125 V -0.25 H 3.03125 c -0.703125,0 -0.703125,-0.09375 -0.703125,-0.328125 z m 0,0"
   id="path2753" />&#10;      </g></g>&#10;</g><g
       transform="matrix(1.03285,0,0,1.03285,632.07746,538.46631)"
       ns1:version="1.9.0"
       ns1:texconverter="pdflatex"
       ns1:pdfconverter="inkscape"
       ns1:text="$y_2$"
       ns1:preamble="/home/iuribarcelos/.config/inkscape/extensions/textext/default_packages.tex"
       ns1:scale="2.927767037627063"
       ns1:alignment="middle center"
       ns1:stroke-to-path="0"
       ns1:inkscapeversion="1.3"
       id="g2766"
       ns1:jacobian_sqrt="1.03285"
       style="fill:#000000;fill-opacity:1"><defs
   id="defs2761" />&#10;  <g
   fill="#000000"
   fill-opacity="1"
   id="g2763"
   transform="translate(-149.009,-130.359)"
   style="fill:#000000;fill-opacity:1">&#10;    <g
   transform="translate(148.712,134.765)"
   id="g2762"
   style="fill:#000000;fill-opacity:1"><path
   d="m 4.84375,-3.796875 c 0.046875,-0.140625 0.046875,-0.15625 0.046875,-0.234375 0,-0.171875 -0.140625,-0.265625 -0.296875,-0.265625 -0.09375,0 -0.25,0.0625 -0.34375,0.203125 -0.015625,0.0625 -0.109375,0.359375 -0.140625,0.546875 -0.078125,0.25 -0.140625,0.53125 -0.203125,0.796875 l -0.453125,1.796875 c -0.03125,0.140625 -0.46875,0.84375 -1.125,0.84375 -0.5,0 -0.609375,-0.4375 -0.609375,-0.8125 C 1.71875,-1.375 1.890625,-2 2.21875,-2.875 2.375,-3.28125 2.421875,-3.390625 2.421875,-3.59375 c 0,-0.4375 -0.3125,-0.8125 -0.8125,-0.8125 -0.953125,0 -1.3125,1.453125 -1.3125,1.53125 0,0.109375 0.09375,0.109375 0.109375,0.109375 0.109375,0 0.109375,-0.03125 0.15625,-0.1875 0.28125,-0.9375 0.671875,-1.234375 1.015625,-1.234375 0.078125,0 0.25,0 0.25,0.3125 0,0.25 -0.109375,0.515625 -0.171875,0.703125 -0.40625,1.0625 -0.578125,1.625 -0.578125,2.09375 0,0.890625 0.625,1.1875 1.21875,1.1875 0.390625,0 0.71875,-0.171875 1,-0.453125 -0.125,0.515625 -0.25,1.015625 -0.640625,1.546875 -0.265625,0.328125 -0.640625,0.625 -1.09375,0.625 -0.140625,0 -0.59375,-0.03125 -0.765625,-0.421875 0.15625,0 0.296875,0 0.421875,-0.125 C 1.328125,1.203125 1.421875,1.0625 1.421875,0.875 1.421875,0.5625 1.15625,0.53125 1.0625,0.53125 0.828125,0.53125 0.5,0.6875 0.5,1.171875 c 0,0.5 0.4375,0.875 1.0625,0.875 1.015625,0 2.046875,-0.90625 2.328125,-2.03125 z m 0,0"
   id="path2761"
   style="fill:#000000;fill-opacity:1" />&#10;      </g></g>&#10;  <g
   fill="#000000"
   fill-opacity="1"
   id="g2765"
   transform="translate(-149.009,-130.359)"
   style="fill:#000000;fill-opacity:1">&#10;    <g
   transform="translate(153.597,136.259)"
   id="g2764"
   style="fill:#000000;fill-opacity:1"><path
   d="M 3.515625,-1.265625 H 3.28125 c -0.015625,0.15625 -0.09375,0.5625 -0.1875,0.625 C 3.046875,-0.59375 2.515625,-0.59375 2.40625,-0.59375 H 1.125 c 0.734375,-0.640625 0.984375,-0.84375 1.390625,-1.171875 0.515625,-0.40625 1,-0.84375 1,-1.5 0,-0.84375 -0.734375,-1.359375 -1.625,-1.359375 -0.859375,0 -1.453125,0.609375 -1.453125,1.25 0,0.34375 0.296875,0.390625 0.375,0.390625 0.15625,0 0.359375,-0.125 0.359375,-0.375 0,-0.125 -0.046875,-0.375 -0.40625,-0.375 C 0.984375,-4.21875 1.453125,-4.375 1.78125,-4.375 c 0.703125,0 1.0625,0.546875 1.0625,1.109375 0,0.609375 -0.4375,1.078125 -0.65625,1.328125 L 0.515625,-0.265625 C 0.4375,-0.203125 0.4375,-0.1875 0.4375,0 h 2.875 z m 0,0"
   id="path2763"
   style="fill:#000000;fill-opacity:1" />&#10;      </g></g>&#10;</g><circle
       style="fill:#a50034;fill-opacity:0.5;stroke:#00b8c8;stroke-width:0.26045;stroke-linejoin:bevel;stroke-miterlimit:3.9;stroke-opacity:1"
       id="circle2766"
       cx="592.53522"
       cy="579.69922"
       r="2.4077845" /><g
       transform="matrix(1.03285,0,0,1.03285,587.82226,583.37491)"
       ns1:version="1.9.0"
       ns1:texconverter="pdflatex"
       ns1:pdfconverter="inkscape"
       ns1:text="$\\mathbf{x}_1$"
       ns1:preamble="/home/iuribarcelos/.config/inkscape/extensions/textext/default_packages.tex"
       ns1:scale="2.927767037627063"
       ns1:alignment="middle center"
       ns1:stroke-to-path="0"
       ns1:inkscapeversion="1.3"
       id="g2841"
       ns1:jacobian_sqrt="1.03285"><defs
   id="defs2771" />&#10;  <g
   fill="#000000"
   fill-opacity="1"
   id="g2773"
   transform="translate(-148.931,-130.343)">&#10;    <g
   transform="translate(148.712,134.765)"
   id="g2772"><path
   d="M 3.453125,-2.453125 4.609375,-3.75 C 4.75,-3.890625 4.8125,-3.953125 5.625,-3.953125 v -0.46875 c -0.34375,0.015625 -0.859375,0.03125 -0.90625,0.03125 -0.25,0 -0.75,-0.03125 -1.03125,-0.03125 v 0.46875 c 0.140625,0 0.265625,0.015625 0.375,0.078125 -0.03125,0.0625 -0.03125,0.09375 -0.078125,0.125 L 3.15625,-2.8125 2.171875,-3.953125 h 0.40625 v -0.46875 c -0.265625,0 -0.890625,0.03125 -1.21875,0.03125 -0.3125,0 -0.765625,-0.03125 -1.09375,-0.03125 v 0.46875 h 0.71875 L 2.53125,-2.125 1.21875,-0.65625 c -0.15625,0.1875 -0.515625,0.1875 -1,0.1875 V 0 c 0.34375,-0.015625 0.875,-0.03125 0.921875,-0.03125 0.25,0 0.828125,0.015625 1.015625,0.03125 v -0.46875 c -0.171875,0 -0.359375,-0.046875 -0.359375,-0.109375 0,-0.015625 0,-0.015625 0.0625,-0.09375 l 0.96875,-1.09375 1.09375,1.296875 H 3.53125 V 0 c 0.265625,-0.015625 0.875,-0.03125 1.203125,-0.03125 0.3125,0 0.765625,0.015625 1.09375,0.03125 V -0.46875 H 5.125 Z m 0,0"
   id="path2771" />&#10;      </g></g>&#10;  <g
   fill="#000000"
   fill-opacity="1"
   id="g2775"
   transform="translate(-148.931,-130.343)">&#10;    <g
   transform="translate(154.759,136.259)"
   id="g2774"><path
   d="m 2.328125,-4.4375 c 0,-0.1875 0,-0.1875 -0.203125,-0.1875 -0.453125,0.4375 -1.078125,0.4375 -1.359375,0.4375 v 0.25 c 0.15625,0 0.625,0 1,-0.1875 v 3.546875 c 0,0.234375 0,0.328125 -0.6875,0.328125 H 0.8125 V 0 c 0.125,0 0.984375,-0.03125 1.234375,-0.03125 0.21875,0 1.09375,0.03125 1.25,0.03125 V -0.25 H 3.03125 c -0.703125,0 -0.703125,-0.09375 -0.703125,-0.328125 z m 0,0"
   id="path2773" />&#10;      </g></g>&#10;</g><path
       style="fill:none;stroke:#000000;stroke-width:0.5;stroke-linecap:butt;stroke-linejoin:miter;stroke-dasharray:none;stroke-opacity:1;marker-end:url(#marker191)"
       d="m 592.53522,577.29131 v -13.7988"
       id="path2846"
       sodipodi:nodetypes="cc" /><circle
       style="fill:#a50034;fill-opacity:0.5;stroke:#00b8c8;stroke-width:0.26045;stroke-linejoin:bevel;stroke-miterlimit:3.9;stroke-opacity:1"
       id="circle2849"
       cx="626.06281"
       cy="579.69922"
       r="2.4077845" /><g
       transform="matrix(1.03285,0,0,1.03285,621.23666,583.37321)"
       ns1:version="1.9.0"
       ns1:texconverter="pdflatex"
       ns1:pdfconverter="inkscape"
       ns1:text="$\\mathbf{x}_2$"
       ns1:preamble="/home/iuribarcelos/.config/inkscape/extensions/textext/default_packages.tex"
       ns1:scale="2.927767037627063"
       ns1:alignment="middle center"
       ns1:stroke-to-path="0"
       ns1:inkscapeversion="1.3"
       id="g2880"
       ns1:jacobian_sqrt="1.03285"
       style="fill:#000000;fill-opacity:1"><defs
   id="defs2853" />&#10;  <g
   fill="#000000"
   fill-opacity="1"
   id="g2865"
   transform="translate(-148.931,-130.343)"
   style="fill:#000000;fill-opacity:1">&#10;    <g
   transform="translate(148.712,134.765)"
   id="g2864"
   style="fill:#000000;fill-opacity:1"><path
   d="M 3.453125,-2.453125 4.609375,-3.75 C 4.75,-3.890625 4.8125,-3.953125 5.625,-3.953125 v -0.46875 c -0.34375,0.015625 -0.859375,0.03125 -0.90625,0.03125 -0.25,0 -0.75,-0.03125 -1.03125,-0.03125 v 0.46875 c 0.140625,0 0.265625,0.015625 0.375,0.078125 -0.03125,0.0625 -0.03125,0.09375 -0.078125,0.125 L 3.15625,-2.8125 2.171875,-3.953125 h 0.40625 v -0.46875 c -0.265625,0 -0.890625,0.03125 -1.21875,0.03125 -0.3125,0 -0.765625,-0.03125 -1.09375,-0.03125 v 0.46875 h 0.71875 L 2.53125,-2.125 1.21875,-0.65625 c -0.15625,0.1875 -0.515625,0.1875 -1,0.1875 V 0 c 0.34375,-0.015625 0.875,-0.03125 0.921875,-0.03125 0.25,0 0.828125,0.015625 1.015625,0.03125 v -0.46875 c -0.171875,0 -0.359375,-0.046875 -0.359375,-0.109375 0,-0.015625 0,-0.015625 0.0625,-0.09375 l 0.96875,-1.09375 1.09375,1.296875 H 3.53125 V 0 c 0.265625,-0.015625 0.875,-0.03125 1.203125,-0.03125 0.3125,0 0.765625,0.015625 1.09375,0.03125 V -0.46875 H 5.125 Z m 0,0"
   id="path2853"
   style="fill:#000000;fill-opacity:1" />&#10;      </g></g>&#10;  <g
   fill="#000000"
   fill-opacity="1"
   id="g2879"
   transform="translate(-148.931,-130.343)"
   style="fill:#000000;fill-opacity:1">&#10;    <g
   transform="translate(154.759,136.259)"
   id="g2878"
   style="fill:#000000;fill-opacity:1"><path
   d="M 3.515625,-1.265625 H 3.28125 c -0.015625,0.15625 -0.09375,0.5625 -0.1875,0.625 C 3.046875,-0.59375 2.515625,-0.59375 2.40625,-0.59375 H 1.125 c 0.734375,-0.640625 0.984375,-0.84375 1.390625,-1.171875 0.515625,-0.40625 1,-0.84375 1,-1.5 0,-0.84375 -0.734375,-1.359375 -1.625,-1.359375 -0.859375,0 -1.453125,0.609375 -1.453125,1.25 0,0.34375 0.296875,0.390625 0.375,0.390625 0.15625,0 0.359375,-0.125 0.359375,-0.375 0,-0.125 -0.046875,-0.375 -0.40625,-0.375 C 0.984375,-4.21875 1.453125,-4.375 1.78125,-4.375 c 0.703125,0 1.0625,0.546875 1.0625,1.109375 0,0.609375 -0.4375,1.078125 -0.65625,1.328125 L 0.515625,-0.265625 C 0.4375,-0.203125 0.4375,-0.1875 0.4375,0 h 2.875 z m 0,0"
   id="path2865"
   style="fill:#000000;fill-opacity:1" />&#10;      </g></g>&#10;</g><circle
       style="fill:#a50034;fill-opacity:0.116201;stroke:#00b8c8;stroke-width:0.26045;stroke-linejoin:bevel;stroke-miterlimit:3.9;stroke-opacity:0.246855"
       id="circle3096"
       cx="776.11694"
       cy="579.69922"
       r="2.4077845" /><path
       id="path3097"
       style="fill:none;stroke:#010000;stroke-width:2.5;stroke-linecap:butt;stroke-linejoin:miter;stroke-dasharray:none;stroke-opacity:1"
       d="m 600.4124,552.06411 h 17.77309" /><circle
       style="fill:none;fill-opacity:0.298163;stroke:#00b8c8;stroke-width:0.852091;stroke-linejoin:bevel;stroke-miterlimit:3.9;stroke-opacity:1"
       id="circle3098"
       cx="626.06281"
       cy="552.06421"
       r="7.8773355"
       inkscape:export-filename="graphsymbols.png"
       inkscape:export-xdpi="200"
       inkscape:export-ydpi="200" /><path
       id="path3098"
       style="fill:none;stroke:#000000;stroke-width:2.5;stroke-linecap:butt;stroke-linejoin:miter;stroke-dasharray:none;stroke-opacity:1"
       d="m 579.72478,552.06411 h 4.93305" /><circle
       style="fill:none;fill-opacity:0.298163;stroke:#00b8c8;stroke-width:0.852091;stroke-linejoin:bevel;stroke-miterlimit:3.9;stroke-opacity:1"
       id="circle3099"
       cx="592.53522"
       cy="552.06421"
       r="7.8773355"
       inkscape:export-filename="graph1.svg"
       inkscape:export-xdpi="200"
       inkscape:export-ydpi="200" /><path
       style="fill:none;stroke:#000000;stroke-width:2.5;stroke-linecap:butt;stroke-linejoin:miter;stroke-dasharray:5, 2.5, 1.25, 2.5;stroke-dashoffset:2.25;stroke-opacity:1"
       d="m 579.1956,552.06411 h -7.81551"
       id="path3099"
       sodipodi:nodetypes="cc" /><path
       style="fill:none;stroke:#000000;stroke-width:2.5;stroke-linecap:butt;stroke-linejoin:miter;stroke-dasharray:5, 2.5, 1.25, 2.5;stroke-dashoffset:4;stroke-opacity:0.123199"
       d="m 708.13314,552.06411 h 20.64245"
       id="path3100"
       sodipodi:nodetypes="cc" /><path
       id="path3101"
       style="fill:none;stroke:#000000;stroke-width:2.5;stroke-linecap:butt;stroke-linejoin:miter;stroke-dasharray:none;stroke-opacity:0.12111"
       d="m 728.77559,552.06411 h 4.65811" /><circle
       style="fill:none;fill-opacity:0.298163;stroke:#00b8c8;stroke-width:0.852091;stroke-linejoin:bevel;stroke-miterlimit:3.9;stroke-opacity:0.254445"
       id="circle3101"
       cx="776.11694"
       cy="552.06421"
       r="7.8773355"
       inkscape:export-filename="graphsymbols.png"
       inkscape:export-xdpi="200"
       inkscape:export-ydpi="200" /><circle
       style="fill:#a50034;fill-opacity:0.5;stroke:#00b8c8;stroke-width:0.26045;stroke-linejoin:bevel;stroke-miterlimit:3.9;stroke-opacity:1"
       id="circle3102"
       cx="844.87665"
       cy="579.69916"
       r="2.4077845" /><path
       id="path3103"
       style="fill:none;stroke:#000000;stroke-width:2.5;stroke-linecap:butt;stroke-linejoin:miter;stroke-dasharray:none;stroke-opacity:1"
       d="m 852.75383,552.06411 h 4.30514" /><circle
       style="fill:none;fill-opacity:0.298163;stroke:#00b8c8;stroke-width:0.852091;stroke-linejoin:bevel;stroke-miterlimit:3.9;stroke-opacity:1"
       id="circle3104"
       cx="844.87665"
       cy="552.06415"
       r="7.8773355"
       inkscape:export-filename="graphsymbols.png"
       inkscape:export-xdpi="200"
       inkscape:export-ydpi="200" /><path
       style="fill:none;stroke:#000000;stroke-width:2.5;stroke-linecap:butt;stroke-linejoin:miter;stroke-dasharray:5, 2.5, 1.25, 2.5;stroke-dashoffset:2.25;stroke-opacity:1"
       d="m 857.72698,552.06411 h 7.81551"
       id="path3104"
       sodipodi:nodetypes="cc" /><path
       id="path3105"
       style="fill:none;stroke:url(#linearGradient3227);stroke-width:2.5;stroke-linecap:butt;stroke-linejoin:miter;stroke-dasharray:none"
       d="m 784.42033,552.06411 h 17.77309" /><circle
       style="fill:#a50034;fill-opacity:0.116201;stroke:#00b8c8;stroke-width:0.26045;stroke-linejoin:bevel;stroke-miterlimit:3.9;stroke-opacity:0.246855"
       id="circle3105"
       cx="694.82251"
       cy="579.69922"
       r="2.4077845" /><path
       id="path3106"
       style="fill:none;stroke:#000000;stroke-width:2.5;stroke-linecap:butt;stroke-linejoin:miter;stroke-dasharray:none;stroke-opacity:0.115964"
       d="m 703.01456,552.06411 h 4.60282" /><circle
       style="fill:none;fill-opacity:0.298163;stroke:#00b8c8;stroke-width:0.852091;stroke-linejoin:bevel;stroke-miterlimit:3.9;stroke-opacity:0.254445"
       id="circle3107"
       cx="694.82251"
       cy="552.06421"
       r="7.8773355"
       inkscape:export-filename="graphsymbols.png"
       inkscape:export-xdpi="200"
       inkscape:export-ydpi="200" /><path
       id="path3107"
       style="fill:none;fill-opacity:0.251547;stroke:url(#linearGradient3226);stroke-width:2.5;stroke-linecap:butt;stroke-linejoin:miter;stroke-dasharray:none;stroke-opacity:0.253721"
       d="m 634.3662,552.06411 h 17.77309" /><circle
       style="fill:#a50034;fill-opacity:0.5;stroke:#00b8c8;stroke-width:0.26045;stroke-linejoin:bevel;stroke-miterlimit:3.9;stroke-opacity:1"
       id="circle3108"
       cx="810.49677"
       cy="579.69922"
       r="2.4077845" /><circle
       style="fill:none;fill-opacity:0.298163;stroke:#00b8c8;stroke-width:0.852091;stroke-linejoin:bevel;stroke-miterlimit:3.9;stroke-opacity:1"
       id="circle3110"
       cx="810.49677"
       cy="552.06421"
       r="7.8773355"
       inkscape:export-filename="graphsymbols.png"
       inkscape:export-xdpi="200"
       inkscape:export-ydpi="200" /><path
       id="path3110"
       style="fill:none;stroke:#010000;stroke-width:2.5;stroke-linecap:butt;stroke-linejoin:miter;stroke-dasharray:none;stroke-opacity:1"
       d="m 818.80017,552.06411 h 17.77309" /><path
       style="fill:#000000;fill-opacity:1;stroke:none;stroke-width:0.033125;stroke-linejoin:bevel;stroke-miterlimit:3.9;stroke-dasharray:none;stroke-dashoffset:8.50394;stroke-opacity:1"
       d="m 626.05075,560.35729 c -0.13682,0.25633 -0.17278,0.56687 -0.27216,0.84244 -0.31747,1.11074 -0.65206,2.21808 -0.94599,3.3347 0.0442,0.17746 0.22699,0.0214 0.29552,-0.055 0.22325,-0.20751 0.43608,-0.42585 0.6536,-0.63929 0,4.46172 0,8.92345 0,13.38517 0.11178,0.15777 0.39703,0.0573 0.57269,0.0661 0.10879,-0.15465 0.0206,-0.40362 0.0491,-0.59526 0,-4.28532 0,-8.57067 0,-12.856 0.28297,0.25292 0.52001,0.5706 0.83973,0.77669 0.2041,0 0.0521,-0.25427 0.0394,-0.35875 -0.36687,-1.29154 -0.72845,-2.58527 -1.11937,-3.86953 -0.0332,-0.0392 -0.0641,-0.0471 -0.11253,-0.0313 z"
       id="path3111" /><path
       style="fill:#000000;fill-opacity:0.249863;stroke:none;stroke-width:0.033125;stroke-linejoin:bevel;stroke-miterlimit:3.9;stroke-dasharray:none;stroke-dashoffset:8.50394;stroke-opacity:1"
       d="m 694.78249,560.35729 c -0.13682,0.25633 -0.17278,0.56687 -0.27216,0.84244 -0.31747,1.11074 -0.65206,2.21808 -0.94599,3.3347 0.0442,0.17746 0.22699,0.0214 0.29552,-0.055 0.22325,-0.20751 0.43608,-0.42585 0.6536,-0.63929 0,4.46172 0,8.92345 0,13.38517 0.11178,0.15777 0.39703,0.0573 0.57269,0.0661 0.10879,-0.15465 0.0206,-0.40362 0.0491,-0.59526 0,-4.28532 0,-8.57067 0,-12.856 0.28297,0.25292 0.52001,0.5706 0.83973,0.77669 0.2041,0 0.0521,-0.25427 0.0394,-0.35875 -0.36687,-1.29154 -0.72845,-2.58527 -1.11937,-3.86953 -0.0332,-0.0392 -0.0641,-0.0471 -0.11253,-0.0313 z"
       id="path3113" /><path
       style="fill:#000000;fill-opacity:0.253752;stroke:none;stroke-width:0.033125;stroke-linejoin:bevel;stroke-miterlimit:3.9;stroke-dasharray:none;stroke-dashoffset:8.50394;stroke-opacity:1"
       d="m 776.07692,560.35729 c -0.13682,0.25633 -0.17278,0.56687 -0.27216,0.84244 -0.31747,1.11074 -0.65206,2.21808 -0.94599,3.3347 0.0442,0.17746 0.22699,0.0214 0.29552,-0.055 0.22325,-0.20751 0.43608,-0.42585 0.6536,-0.63929 0,4.46172 0,8.92345 0,13.38517 0.11178,0.15777 0.39703,0.0573 0.57269,0.0661 0.10879,-0.15465 0.0206,-0.40362 0.0491,-0.59526 0,-4.28532 0,-8.57067 0,-12.856 0.28297,0.25292 0.52001,0.5706 0.83973,0.77669 0.2041,0 0.0521,-0.25427 0.0394,-0.35875 -0.36687,-1.29154 -0.72845,-2.58527 -1.11937,-3.86953 -0.0332,-0.0392 -0.0641,-0.0471 -0.11253,-0.0313 z"
       id="path3115" /><path
       style="fill:#000000;fill-opacity:1;stroke:none;stroke-width:0.033125;stroke-linejoin:bevel;stroke-miterlimit:3.9;stroke-dasharray:none;stroke-dashoffset:8.50394;stroke-opacity:1"
       d="m 810.44856,560.35729 c -0.13682,0.25633 -0.17278,0.56687 -0.27216,0.84244 -0.31747,1.11074 -0.65206,2.21808 -0.94599,3.3347 0.0442,0.17746 0.22699,0.0214 0.29552,-0.055 0.22325,-0.20751 0.43608,-0.42585 0.6536,-0.63929 0,4.46172 0,8.92345 0,13.38517 0.11178,0.15777 0.39703,0.0573 0.57269,0.0661 0.10879,-0.15465 0.0206,-0.40362 0.0491,-0.59526 0,-4.28532 0,-8.57067 0,-12.856 0.28297,0.25292 0.52001,0.5706 0.83973,0.77669 0.2041,0 0.0521,-0.25427 0.0394,-0.35875 -0.36687,-1.29154 -0.72845,-2.58527 -1.11937,-3.86953 -0.0332,-0.0392 -0.0641,-0.0471 -0.11253,-0.0313 z"
       id="path3116" /><path
       style="fill:#000000;fill-opacity:0.950272;stroke:none;stroke-width:0.033;stroke-linejoin:bevel;stroke-miterlimit:3.9;stroke-dasharray:none;stroke-dashoffset:8.50394;stroke-opacity:1"
       d="m 844.83662,560.35729 c -0.13682,0.25633 -0.17278,0.56687 -0.27216,0.84244 -0.31747,1.11074 -0.65206,2.21808 -0.94599,3.3347 0.0442,0.17746 0.22699,0.0214 0.29552,-0.055 0.22325,-0.20751 0.43608,-0.42585 0.6536,-0.63929 0,4.46172 0,8.92345 0,13.38517 0.11178,0.15777 0.39703,0.0573 0.57269,0.0661 0.10879,-0.15465 0.0206,-0.40362 0.0491,-0.59526 0,-4.28532 0,-8.57067 0,-12.856 0.28297,0.25292 0.52001,0.5706 0.83973,0.77669 0.2041,0 0.0521,-0.25427 0.0394,-0.35875 -0.36687,-1.29154 -0.72845,-2.58527 -1.11937,-3.86953 -0.0332,-0.0392 -0.0641,-0.0471 -0.11253,-0.0313 z"
       id="path3117" /><g
       transform="matrix(1.03285,0,0,1.03285,800.22267,582.85616)"
       ns1:version="1.9.0"
       ns1:texconverter="pdflatex"
       ns1:pdfconverter="inkscape"
       ns1:text="$\\mathbf{x}_{_{N-1}}$"
       ns1:preamble="/home/iuribarcelos/.config/inkscape/extensions/textext/default_packages.tex"
       ns1:scale="2.927767037627063"
       ns1:alignment="middle center"
       ns1:stroke-to-path="0"
       ns1:inkscapeversion="1.3"
       id="g3139"
       ns1:jacobian_sqrt="1.03285"
       style="fill:#000000;fill-opacity:1"><defs
   id="defs3129" />&#10;  <g
   fill="#000000"
   fill-opacity="1"
   id="g3131"
   transform="translate(-148.931,-130.343)"
   style="fill:#000000;fill-opacity:1">&#10;    <g
   transform="translate(148.712,134.765)"
   id="g3130"
   style="fill:#000000;fill-opacity:1"><path
   d="M 3.453125,-2.453125 4.609375,-3.75 C 4.75,-3.890625 4.8125,-3.953125 5.625,-3.953125 v -0.46875 c -0.34375,0.015625 -0.859375,0.03125 -0.90625,0.03125 -0.25,0 -0.75,-0.03125 -1.03125,-0.03125 v 0.46875 c 0.140625,0 0.265625,0.015625 0.375,0.078125 -0.03125,0.0625 -0.03125,0.09375 -0.078125,0.125 L 3.15625,-2.8125 2.171875,-3.953125 h 0.40625 v -0.46875 c -0.265625,0 -0.890625,0.03125 -1.21875,0.03125 -0.3125,0 -0.765625,-0.03125 -1.09375,-0.03125 v 0.46875 h 0.71875 L 2.53125,-2.125 1.21875,-0.65625 c -0.15625,0.1875 -0.515625,0.1875 -1,0.1875 V 0 c 0.34375,-0.015625 0.875,-0.03125 0.921875,-0.03125 0.25,0 0.828125,0.015625 1.015625,0.03125 v -0.46875 c -0.171875,0 -0.359375,-0.046875 -0.359375,-0.109375 0,-0.015625 0,-0.015625 0.0625,-0.09375 l 0.96875,-1.09375 1.09375,1.296875 H 3.53125 V 0 c 0.265625,-0.015625 0.875,-0.03125 1.203125,-0.03125 0.3125,0 0.765625,0.015625 1.09375,0.03125 V -0.46875 H 5.125 Z m 0,0"
   id="path3129"
   style="fill:#000000;fill-opacity:1" />&#10;      </g></g>&#10;  <g
   fill="#000000"
   fill-opacity="1"
   id="g3134"
   transform="translate(-148.931,-130.343)"
   style="fill:#000000;fill-opacity:1">&#10;    <g
   transform="translate(154.759,137.261)"
   id="g3132"
   style="fill:#000000;fill-opacity:1"><path
   d="m 4.765625,-2.84375 c 0.03125,-0.125 0.078125,-0.328125 0.53125,-0.34375 0.046875,0 0.125,0 0.125,-0.125 0,-0.03125 -0.015625,-0.09375 -0.078125,-0.09375 -0.09375,0 -0.1875,0.015625 -0.28125,0.015625 -0.09375,0 -0.1875,0 -0.28125,0 -0.09375,0 -0.203125,0 -0.296875,0 -0.09375,0 -0.1875,-0.015625 -0.28125,-0.015625 -0.03125,0 -0.125,0 -0.125,0.140625 0,0.078125 0.078125,0.078125 0.125,0.078125 0.328125,0.015625 0.359375,0.109375 0.359375,0.203125 0,0.03125 -0.015625,0.0625 -0.015625,0.09375 L 4,-0.75 2.5,-3.3125 C 2.453125,-3.40625 2.453125,-3.40625 2.328125,-3.40625 H 1.5625 c -0.109375,0 -0.1875,0 -0.1875,0.140625 0,0.078125 0.078125,0.078125 0.1875,0.078125 0.015625,0 0.21875,0 0.34375,0.03125 L 1.25,-0.5625 c -0.03125,0.140625 -0.078125,0.328125 -0.546875,0.34375 -0.03125,0 -0.125,0 -0.125,0.140625 C 0.578125,-0.046875 0.625,0 0.671875,0 0.75,0 0.859375,-0.015625 0.953125,-0.015625 c 0.09375,0 0.1875,0 0.28125,0 0.09375,0 0.203125,0 0.296875,0 C 1.625,-0.015625 1.71875,0 1.8125,0 1.875,0 1.9375,-0.03125 1.9375,-0.140625 1.9375,-0.21875 1.859375,-0.21875 1.796875,-0.21875 1.5625,-0.234375 1.453125,-0.296875 1.453125,-0.40625 c 0,-0.046875 0.015625,-0.078125 0.03125,-0.125 l 0.625,-2.5 1.703125,2.9375 C 3.875,0 3.890625,0 3.953125,0 c 0.09375,0 0.109375,-0.03125 0.125,-0.125 z m 0,0"
   id="path3131"
   style="fill:#000000;fill-opacity:1" />&#10;      </g></g>&#10;  <g
   fill="#000000"
   fill-opacity="1"
   id="g3136"
   transform="translate(-148.931,-130.343)"
   style="fill:#000000;fill-opacity:1">&#10;    <g
   transform="translate(160.661,137.261)"
   id="g3135"
   style="fill:#000000;fill-opacity:1"><path
   d="m 4.390625,-1.109375 c 0.078125,0 0.203125,0 0.203125,-0.140625 0,-0.140625 -0.125,-0.140625 -0.203125,-0.140625 h -3.375 c -0.078125,0 -0.21875,0 -0.21875,0.140625 0,0.140625 0.140625,0.140625 0.21875,0.140625 z m 0,0"
   id="path3134"
   style="fill:#000000;fill-opacity:1" />&#10;      </g></g>&#10;  <g
   fill="#000000"
   fill-opacity="1"
   id="g3138"
   transform="translate(-148.931,-130.343)"
   style="fill:#000000;fill-opacity:1">&#10;    <g
   transform="translate(166.057,137.261)"
   id="g3137"
   style="fill:#000000;fill-opacity:1"><path
   d="M 1.984375,-3.171875 C 1.984375,-3.3125 1.96875,-3.3125 1.796875,-3.3125 1.453125,-3 0.890625,-3 0.796875,-3 H 0.71875 v 0.21875 h 0.078125 c 0.109375,0 0.4375,-0.015625 0.734375,-0.140625 v 2.5 c 0,0.140625 0,0.203125 -0.53125,0.203125 H 0.75 V 0 c 0.265625,-0.015625 0.71875,-0.015625 1,-0.015625 0.296875,0 0.734375,0 1.015625,0.015625 v -0.21875 h -0.25 c -0.53125,0 -0.53125,-0.0625 -0.53125,-0.203125 z m 0,0"
   id="path3136"
   style="fill:#000000;fill-opacity:1" />&#10;      </g></g>&#10;</g><g
       transform="matrix(1.03285,0,0,1.03285,814.52791,538.23116)"
       ns1:version="1.9.0"
       ns1:texconverter="pdflatex"
       ns1:pdfconverter="inkscape"
       ns1:text="$y_{_{N-1}}$"
       ns1:preamble="/home/iuribarcelos/.config/inkscape/extensions/textext/default_packages.tex"
       ns1:scale="2.927767037627063"
       ns1:alignment="middle center"
       ns1:stroke-to-path="0"
       ns1:inkscapeversion="1.3"
       id="g3169"
       ns1:jacobian_sqrt="1.03285"
       style="fill:#000000;fill-opacity:1;stroke-width:0"><defs
   id="defs3160"
   style="fill:#000000;fill-opacity:0.249442;stroke-width:0" />&#10;  <g
   fill-opacity="1"
   id="g3162"
   transform="translate(-149.009,-130.359)"
   style="fill:#000000;fill-opacity:1;stroke-width:0">&#10;    <g
   transform="translate(148.712,134.765)"
   id="g3161"
   style="fill:#000000;fill-opacity:1;stroke-width:0"><path
   d="m 4.84375,-3.796875 c 0.046875,-0.140625 0.046875,-0.15625 0.046875,-0.234375 0,-0.171875 -0.140625,-0.265625 -0.296875,-0.265625 -0.09375,0 -0.25,0.0625 -0.34375,0.203125 -0.015625,0.0625 -0.109375,0.359375 -0.140625,0.546875 -0.078125,0.25 -0.140625,0.53125 -0.203125,0.796875 l -0.453125,1.796875 c -0.03125,0.140625 -0.46875,0.84375 -1.125,0.84375 -0.5,0 -0.609375,-0.4375 -0.609375,-0.8125 C 1.71875,-1.375 1.890625,-2 2.21875,-2.875 2.375,-3.28125 2.421875,-3.390625 2.421875,-3.59375 c 0,-0.4375 -0.3125,-0.8125 -0.8125,-0.8125 -0.953125,0 -1.3125,1.453125 -1.3125,1.53125 0,0.109375 0.09375,0.109375 0.109375,0.109375 0.109375,0 0.109375,-0.03125 0.15625,-0.1875 0.28125,-0.9375 0.671875,-1.234375 1.015625,-1.234375 0.078125,0 0.25,0 0.25,0.3125 0,0.25 -0.109375,0.515625 -0.171875,0.703125 -0.40625,1.0625 -0.578125,1.625 -0.578125,2.09375 0,0.890625 0.625,1.1875 1.21875,1.1875 0.390625,0 0.71875,-0.171875 1,-0.453125 -0.125,0.515625 -0.25,1.015625 -0.640625,1.546875 -0.265625,0.328125 -0.640625,0.625 -1.09375,0.625 -0.140625,0 -0.59375,-0.03125 -0.765625,-0.421875 0.15625,0 0.296875,0 0.421875,-0.125 C 1.328125,1.203125 1.421875,1.0625 1.421875,0.875 1.421875,0.5625 1.15625,0.53125 1.0625,0.53125 0.828125,0.53125 0.5,0.6875 0.5,1.171875 c 0,0.5 0.4375,0.875 1.0625,0.875 1.015625,0 2.046875,-0.90625 2.328125,-2.03125 z m 0,0"
   id="path3160"
   style="fill:#000000;fill-opacity:1;stroke-width:0" />&#10;      </g></g>&#10;  <g
   fill-opacity="1"
   id="g3164"
   transform="translate(-149.009,-130.359)"
   style="fill:#000000;fill-opacity:1;stroke-width:0">&#10;    <g
   transform="translate(153.597,137.261)"
   id="g3163"
   style="fill:#000000;fill-opacity:1;stroke-width:0"><path
   d="m 4.765625,-2.84375 c 0.03125,-0.125 0.078125,-0.328125 0.53125,-0.34375 0.046875,0 0.125,0 0.125,-0.125 0,-0.03125 -0.015625,-0.09375 -0.078125,-0.09375 -0.09375,0 -0.1875,0.015625 -0.28125,0.015625 -0.09375,0 -0.1875,0 -0.28125,0 -0.09375,0 -0.203125,0 -0.296875,0 -0.09375,0 -0.1875,-0.015625 -0.28125,-0.015625 -0.03125,0 -0.125,0 -0.125,0.140625 0,0.078125 0.078125,0.078125 0.125,0.078125 0.328125,0.015625 0.359375,0.109375 0.359375,0.203125 0,0.03125 -0.015625,0.0625 -0.015625,0.09375 L 4,-0.75 2.5,-3.3125 C 2.453125,-3.40625 2.453125,-3.40625 2.328125,-3.40625 H 1.5625 c -0.109375,0 -0.1875,0 -0.1875,0.140625 0,0.078125 0.078125,0.078125 0.1875,0.078125 0.015625,0 0.21875,0 0.34375,0.03125 L 1.25,-0.5625 c -0.03125,0.140625 -0.078125,0.328125 -0.546875,0.34375 -0.03125,0 -0.125,0 -0.125,0.140625 C 0.578125,-0.046875 0.625,0 0.671875,0 0.75,0 0.859375,-0.015625 0.953125,-0.015625 c 0.09375,0 0.1875,0 0.28125,0 0.09375,0 0.203125,0 0.296875,0 C 1.625,-0.015625 1.71875,0 1.8125,0 1.875,0 1.9375,-0.03125 1.9375,-0.140625 1.9375,-0.21875 1.859375,-0.21875 1.796875,-0.21875 1.5625,-0.234375 1.453125,-0.296875 1.453125,-0.40625 c 0,-0.046875 0.015625,-0.078125 0.03125,-0.125 l 0.625,-2.5 1.703125,2.9375 C 3.875,0 3.890625,0 3.953125,0 c 0.09375,0 0.109375,-0.03125 0.125,-0.125 z m 0,0"
   id="path3162"
   style="fill:#000000;fill-opacity:1;stroke-width:0" />&#10;      </g></g>&#10;  <g
   fill-opacity="1"
   id="g3166"
   transform="translate(-149.009,-130.359)"
   style="fill:#000000;fill-opacity:1;stroke-width:0">&#10;    <g
   transform="translate(159.498,137.261)"
   id="g3165"
   style="fill:#000000;fill-opacity:1;stroke-width:0"><path
   d="m 4.390625,-1.109375 c 0.078125,0 0.203125,0 0.203125,-0.140625 0,-0.140625 -0.125,-0.140625 -0.203125,-0.140625 h -3.375 c -0.078125,0 -0.21875,0 -0.21875,0.140625 0,0.140625 0.140625,0.140625 0.21875,0.140625 z m 0,0"
   id="path3164"
   style="fill:#000000;fill-opacity:1;stroke-width:0" />&#10;      </g></g>&#10;  <g
   fill-opacity="1"
   id="g3168"
   transform="translate(-149.009,-130.359)"
   style="fill:#000000;fill-opacity:1;stroke-width:0">&#10;    <g
   transform="translate(164.895,137.261)"
   id="g3167"
   style="fill:#000000;fill-opacity:1;stroke-width:0"><path
   d="M 1.984375,-3.171875 C 1.984375,-3.3125 1.96875,-3.3125 1.796875,-3.3125 1.453125,-3 0.890625,-3 0.796875,-3 H 0.71875 v 0.21875 h 0.078125 c 0.109375,0 0.4375,-0.015625 0.734375,-0.140625 v 2.5 c 0,0.140625 0,0.203125 -0.53125,0.203125 H 0.75 V 0 c 0.265625,-0.015625 0.71875,-0.015625 1,-0.015625 0.296875,0 0.734375,0 1.015625,0.015625 v -0.21875 h -0.25 c -0.53125,0 -0.53125,-0.0625 -0.53125,-0.203125 z m 0,0"
   id="path3166"
   style="fill:#000000;fill-opacity:1;stroke-width:0" />&#10;      </g></g>&#10;</g><circle
       style="fill:#a50034;fill-opacity:0.116238;stroke:#00b8c8;stroke-width:0.26045;stroke-linejoin:bevel;stroke-miterlimit:3.9;stroke-opacity:0.245315"
       id="circle3218"
       cx="660.44263"
       cy="579.69922"
       r="2.4077845" /><circle
       style="fill:none;fill-opacity:0.298163;stroke:#00b8c8;stroke-width:0.852091;stroke-linejoin:bevel;stroke-miterlimit:3.9;stroke-opacity:0.254445"
       id="circle3220"
       cx="660.44263"
       cy="552.06421"
       r="7.8773355"
       inkscape:export-filename="graphsymbols.png"
       inkscape:export-xdpi="200"
       inkscape:export-ydpi="200" /><path
       style="fill:#000000;fill-opacity:0.249863;stroke:none;stroke-width:0.033125;stroke-linejoin:bevel;stroke-miterlimit:3.9;stroke-dasharray:none;stroke-dashoffset:8.50394;stroke-opacity:1"
       d="m 660.40264,560.35729 c -0.13682,0.25633 -0.17278,0.56687 -0.27216,0.84244 -0.31747,1.11074 -0.65206,2.21808 -0.94599,3.3347 0.0442,0.17746 0.22699,0.0214 0.29552,-0.055 0.22325,-0.20751 0.43608,-0.42585 0.6536,-0.63929 0,4.46172 0,8.92345 0,13.38517 0.11178,0.15777 0.39703,0.0573 0.57269,0.0661 0.10879,-0.15465 0.0206,-0.40362 0.0491,-0.59526 0,-4.28532 0,-8.57067 0,-12.856 0.28297,0.25292 0.52001,0.5706 0.83973,0.77669 0.2041,0 0.0521,-0.25427 0.0394,-0.35875 -0.36687,-1.29154 -0.72845,-2.58527 -1.11937,-3.86953 -0.0332,-0.0392 -0.0641,-0.0471 -0.11253,-0.0313 z"
       id="path3220" /><path
       id="path3222"
       style="fill:none;stroke:#010000;stroke-width:2.5;stroke-linecap:butt;stroke-linejoin:miter;stroke-dasharray:none;stroke-opacity:0.246015"
       d="m 668.74605,552.06411 h 17.77309" /><circle
       style="fill:#a50034;fill-opacity:0.116201;stroke:#00b8c8;stroke-width:0.26045;stroke-linejoin:bevel;stroke-miterlimit:3.9;stroke-opacity:0.246855"
       id="circle3222"
       cx="741.73706"
       cy="579.69922"
       r="2.4077845" /><circle
       style="fill:none;fill-opacity:0.298163;stroke:#00b8c8;stroke-width:0.852091;stroke-linejoin:bevel;stroke-miterlimit:3.9;stroke-opacity:0.254445"
       id="circle3224"
       cx="741.73706"
       cy="552.06421"
       r="7.8773355"
       inkscape:export-filename="graphsymbols.png"
       inkscape:export-xdpi="200"
       inkscape:export-ydpi="200" /><path
       style="fill:#000000;fill-opacity:0.253752;stroke:none;stroke-width:0.033125;stroke-linejoin:bevel;stroke-miterlimit:3.9;stroke-dasharray:none;stroke-dashoffset:8.50394;stroke-opacity:1"
       d="m 741.69705,560.35729 c -0.13682,0.25633 -0.17278,0.56687 -0.27216,0.84244 -0.31747,1.11074 -0.65206,2.21808 -0.94599,3.3347 0.0442,0.17746 0.22699,0.0214 0.29552,-0.055 0.22325,-0.20751 0.43608,-0.42585 0.6536,-0.63929 0,4.46172 0,8.92345 0,13.38517 0.11178,0.15777 0.39703,0.0573 0.57269,0.0661 0.10879,-0.15465 0.0206,-0.40362 0.0491,-0.59526 0,-4.28532 0,-8.57067 0,-12.856 0.28297,0.25292 0.52001,0.5706 0.83973,0.77669 0.2041,0 0.0521,-0.25427 0.0394,-0.35875 -0.36687,-1.29154 -0.72845,-2.58527 -1.11937,-3.86953 -0.0332,-0.0392 -0.0641,-0.0471 -0.11253,-0.0313 z"
       id="path3224" /><path
       id="path3226"
       style="fill:none;stroke:#000000;stroke-width:2.5;stroke-linecap:butt;stroke-linejoin:miter;stroke-dasharray:none;stroke-opacity:0.253383"
       d="m 750.04047,552.06411 h 17.77309" /><g
       transform="matrix(1.03285,0,0,1.03285,849.907,538.23)"
       ns1:version="1.9.0"
       ns1:texconverter="pdflatex"
       ns1:pdfconverter="inkscape"
       ns1:text="$y_{_N}$"
       ns1:preamble="/home/iuribarcelos/.config/inkscape/extensions/textext/default_packages.tex"
       ns1:scale="2.927767037627063"
       ns1:alignment="middle center"
       ns1:stroke-to-path="0"
       ns1:inkscapeversion="1.3"
       id="g3208"
       ns1:jacobian_sqrt="1.03285"><defs
   id="id-e6f43d14-0886-4405-9e4c-c85553462216" />&#10;  <g
   id="id-75a4d3cf-ad71-4047-9a3b-a80d12efdf23"
   transform="translate(-149.009,-130.359)">&#10;    <g
   style="fill:#000000;fill-opacity:1"
   id="id-4b5bca10-2513-457a-a949-cb9c53edcdcf">&#10;      <g
   transform="translate(148.712,134.765)"
   id="g4270"><path
   style="stroke:none"
   d="m 4.84375,-3.796875 c 0.046875,-0.140625 0.046875,-0.15625 0.046875,-0.234375 0,-0.171875 -0.140625,-0.265625 -0.296875,-0.265625 -0.09375,0 -0.25,0.0625 -0.34375,0.203125 -0.015625,0.0625 -0.109375,0.359375 -0.140625,0.546875 -0.078125,0.25 -0.140625,0.53125 -0.203125,0.796875 l -0.453125,1.796875 c -0.03125,0.140625 -0.46875,0.84375 -1.125,0.84375 -0.5,0 -0.609375,-0.4375 -0.609375,-0.8125 C 1.71875,-1.375 1.890625,-2 2.21875,-2.875 2.375,-3.28125 2.421875,-3.390625 2.421875,-3.59375 c 0,-0.4375 -0.3125,-0.8125 -0.8125,-0.8125 -0.953125,0 -1.3125,1.453125 -1.3125,1.53125 0,0.109375 0.09375,0.109375 0.109375,0.109375 0.109375,0 0.109375,-0.03125 0.15625,-0.1875 0.28125,-0.9375 0.671875,-1.234375 1.015625,-1.234375 0.078125,0 0.25,0 0.25,0.3125 0,0.25 -0.109375,0.515625 -0.171875,0.703125 -0.40625,1.0625 -0.578125,1.625 -0.578125,2.09375 0,0.890625 0.625,1.1875 1.21875,1.1875 0.390625,0 0.71875,-0.171875 1,-0.453125 -0.125,0.515625 -0.25,1.015625 -0.640625,1.546875 -0.265625,0.328125 -0.640625,0.625 -1.09375,0.625 -0.140625,0 -0.59375,-0.03125 -0.765625,-0.421875 0.15625,0 0.296875,0 0.421875,-0.125 C 1.328125,1.203125 1.421875,1.0625 1.421875,0.875 1.421875,0.5625 1.15625,0.53125 1.0625,0.53125 0.828125,0.53125 0.5,0.6875 0.5,1.171875 c 0,0.5 0.4375,0.875 1.0625,0.875 1.015625,0 2.046875,-0.90625 2.328125,-2.03125 z m 0,0"
   id="id-6855f172-9572-4c44-98d4-239cbe798bf2" />&#10;      </g></g>&#10;    <g
   style="fill:#000000;fill-opacity:1"
   id="id-0f4cb1fc-379a-4968-a160-8af9c5391dd3">&#10;      <g
   transform="translate(153.597,137.261)"
   id="g8205"><path
   style="stroke:none"
   d="m 4.765625,-2.84375 c 0.03125,-0.125 0.078125,-0.328125 0.53125,-0.34375 0.046875,0 0.125,0 0.125,-0.125 0,-0.03125 -0.015625,-0.09375 -0.078125,-0.09375 -0.09375,0 -0.1875,0.015625 -0.28125,0.015625 -0.09375,0 -0.1875,0 -0.28125,0 -0.09375,0 -0.203125,0 -0.296875,0 -0.09375,0 -0.1875,-0.015625 -0.28125,-0.015625 -0.03125,0 -0.125,0 -0.125,0.140625 0,0.078125 0.078125,0.078125 0.125,0.078125 0.328125,0.015625 0.359375,0.109375 0.359375,0.203125 0,0.03125 -0.015625,0.0625 -0.015625,0.09375 L 4,-0.75 2.5,-3.3125 C 2.453125,-3.40625 2.453125,-3.40625 2.328125,-3.40625 H 1.5625 c -0.109375,0 -0.1875,0 -0.1875,0.140625 0,0.078125 0.078125,0.078125 0.1875,0.078125 0.015625,0 0.21875,0 0.34375,0.03125 L 1.25,-0.5625 c -0.03125,0.140625 -0.078125,0.328125 -0.546875,0.34375 -0.03125,0 -0.125,0 -0.125,0.140625 C 0.578125,-0.046875 0.625,0 0.671875,0 0.75,0 0.859375,-0.015625 0.953125,-0.015625 c 0.09375,0 0.1875,0 0.28125,0 0.09375,0 0.203125,0 0.296875,0 C 1.625,-0.015625 1.71875,0 1.8125,0 1.875,0 1.9375,-0.03125 1.9375,-0.140625 1.9375,-0.21875 1.859375,-0.21875 1.796875,-0.21875 1.5625,-0.234375 1.453125,-0.296875 1.453125,-0.40625 c 0,-0.046875 0.015625,-0.078125 0.03125,-0.125 l 0.625,-2.5 1.703125,2.9375 C 3.875,0 3.890625,0 3.953125,0 c 0.09375,0 0.109375,-0.03125 0.125,-0.125 z m 0,0"
   id="id-a0b4774e-aa3c-4854-a67e-9ef9f54cf040" />&#10;      </g></g>&#10;  </g>&#10;</g><g
       transform="matrix(1.03285,0,0,1.03285,839.064,582.857)"
       ns1:version="1.9.0"
       ns1:texconverter="pdflatex"
       ns1:pdfconverter="inkscape"
       ns1:text="$\\mathbf{x}_{_N}$"
       ns1:preamble="/home/iuribarcelos/.config/inkscape/extensions/textext/default_packages.tex"
       ns1:scale="2.927767037627063"
       ns1:alignment="middle center"
       ns1:stroke-to-path="0"
       ns1:inkscapeversion="1.3"
       id="g3218"
       ns1:jacobian_sqrt="1.03285"><defs
   id="id-70cb9fd8-3294-4927-8d2a-df86de7ba01b" />&#10;  <g
   id="id-fa579514-c617-4472-924c-aab577bb6141"
   transform="translate(-148.931,-130.343)">&#10;    <g
   style="fill:#000000;fill-opacity:1"
   id="id-4cd5f8ee-5cfd-49a4-b245-ea3ce5b4a63c">&#10;      <g
   transform="translate(148.712,134.765)"
   id="g7023"><path
   style="stroke:none"
   d="M 3.453125,-2.453125 4.609375,-3.75 C 4.75,-3.890625 4.8125,-3.953125 5.625,-3.953125 v -0.46875 c -0.34375,0.015625 -0.859375,0.03125 -0.90625,0.03125 -0.25,0 -0.75,-0.03125 -1.03125,-0.03125 v 0.46875 c 0.140625,0 0.265625,0.015625 0.375,0.078125 -0.03125,0.0625 -0.03125,0.09375 -0.078125,0.125 L 3.15625,-2.8125 2.171875,-3.953125 h 0.40625 v -0.46875 c -0.265625,0 -0.890625,0.03125 -1.21875,0.03125 -0.3125,0 -0.765625,-0.03125 -1.09375,-0.03125 v 0.46875 h 0.71875 L 2.53125,-2.125 1.21875,-0.65625 c -0.15625,0.1875 -0.515625,0.1875 -1,0.1875 V 0 c 0.34375,-0.015625 0.875,-0.03125 0.921875,-0.03125 0.25,0 0.828125,0.015625 1.015625,0.03125 v -0.46875 c -0.171875,0 -0.359375,-0.046875 -0.359375,-0.109375 0,-0.015625 0,-0.015625 0.0625,-0.09375 l 0.96875,-1.09375 1.09375,1.296875 H 3.53125 V 0 c 0.265625,-0.015625 0.875,-0.03125 1.203125,-0.03125 0.3125,0 0.765625,0.015625 1.09375,0.03125 V -0.46875 H 5.125 Z m 0,0"
   id="id-08c503b8-5b3e-4117-bacc-e637d0431184" />&#10;      </g></g>&#10;    <g
   style="fill:#000000;fill-opacity:1"
   id="id-63f24e02-b010-4a23-915b-24fac4807e4b">&#10;      <g
   transform="translate(154.759,137.261)"
   id="g7061"><path
   style="stroke:none"
   d="m 4.765625,-2.84375 c 0.03125,-0.125 0.078125,-0.328125 0.53125,-0.34375 0.046875,0 0.125,0 0.125,-0.125 0,-0.03125 -0.015625,-0.09375 -0.078125,-0.09375 -0.09375,0 -0.1875,0.015625 -0.28125,0.015625 -0.09375,0 -0.1875,0 -0.28125,0 -0.09375,0 -0.203125,0 -0.296875,0 -0.09375,0 -0.1875,-0.015625 -0.28125,-0.015625 -0.03125,0 -0.125,0 -0.125,0.140625 0,0.078125 0.078125,0.078125 0.125,0.078125 0.328125,0.015625 0.359375,0.109375 0.359375,0.203125 0,0.03125 -0.015625,0.0625 -0.015625,0.09375 L 4,-0.75 2.5,-3.3125 C 2.453125,-3.40625 2.453125,-3.40625 2.328125,-3.40625 H 1.5625 c -0.109375,0 -0.1875,0 -0.1875,0.140625 0,0.078125 0.078125,0.078125 0.1875,0.078125 0.015625,0 0.21875,0 0.34375,0.03125 L 1.25,-0.5625 c -0.03125,0.140625 -0.078125,0.328125 -0.546875,0.34375 -0.03125,0 -0.125,0 -0.125,0.140625 C 0.578125,-0.046875 0.625,0 0.671875,0 0.75,0 0.859375,-0.015625 0.953125,-0.015625 c 0.09375,0 0.1875,0 0.28125,0 0.09375,0 0.203125,0 0.296875,0 C 1.625,-0.015625 1.71875,0 1.8125,0 1.875,0 1.9375,-0.03125 1.9375,-0.140625 1.9375,-0.21875 1.859375,-0.21875 1.796875,-0.21875 1.5625,-0.234375 1.453125,-0.296875 1.453125,-0.40625 c 0,-0.046875 0.015625,-0.078125 0.03125,-0.125 l 0.625,-2.5 1.703125,2.9375 C 3.875,0 3.890625,0 3.953125,0 c 0.09375,0 0.109375,-0.03125 0.125,-0.125 z m 0,0"
   id="id-2978a2ce-97dc-4585-8de0-367ed641fbfd" />&#10;      </g></g>&#10;  </g>&#10;</g></g></svg>
