<?xml version="1.0" encoding="UTF-8" standalone="no"?>
<!-- Created with Inkscape (http://www.inkscape.org/) -->

<svg
   sodipodi:docname="figures.svg"
   inkscape:version="1.3 (0e150ed6c4, 2023-07-21)"
   id="svg854"
   version="1.1"
   viewBox="0 0 79.716583 45.8611"
   height="45.861073mm"
   width="79.716583mm"
   inkscape:export-filename="/home/home/ownCloud2/proposals/veni2021/figures/scheme.png"
   inkscape:export-xdpi="200"
   inkscape:export-ydpi="200"
   xml:space="preserve"
   xmlns:inkscape="http://www.inkscape.org/namespaces/inkscape"
   xmlns:sodipodi="http://sodipodi.sourceforge.net/DTD/sodipodi-0.dtd"
   xmlns="http://www.w3.org/2000/svg"
   xmlns:svg="http://www.w3.org/2000/svg"
   xmlns:rdf="http://www.w3.org/1999/02/22-rdf-syntax-ns#"
   xmlns:cc="http://creativecommons.org/ns#"
   xmlns:dc="http://purl.org/dc/elements/1.1/"
   xmlns:ns1="http://www.iki.fi/pav/software/textext/"><sodipodi:namedview
     id="base"
     pagecolor="#ffffff"
     bordercolor="#666666"
     borderopacity="1.0"
     inkscape:pageopacity="0.0"
     inkscape:pageshadow="2"
     inkscape:zoom="0.35355339"
     inkscape:cx="2900.552"
     inkscape:cy="-164.04877"
     inkscape:document-units="mm"
     inkscape:current-layer="layer1"
     showgrid="false"
     inkscape:window-width="1920"
     inkscape:window-height="1064"
     inkscape:window-x="0"
     inkscape:window-y="16"
     inkscape:window-maximized="1"
     inkscape:measure-start="1676.07,1011.79"
     inkscape:measure-end="1694.29,1021.79"
     fit-margin-top="0"
     fit-margin-left="0"
     fit-margin-right="0"
     fit-margin-bottom="0"
     inkscape:snap-object-midpoints="true"
     inkscape:snap-center="true"
     inkscape:snap-global="true"
     inkscape:lockguides="true"
     showguides="false"
     inkscape:snap-page="true"
     inkscape:showpageshadow="2"
     inkscape:pagecheckerboard="0"
     inkscape:deskcolor="#d1d1d1" /><defs
     id="defs848"><marker
       style="overflow:visible"
       id="marker191"
       refX="0"
       refY="0"
       orient="auto-start-reverse"
       inkscape:stockid="Dart arrow"
       markerWidth="1"
       markerHeight="1"
       viewBox="0 0 1 1"
       inkscape:isstock="true"
       inkscape:collect="always"
       preserveAspectRatio="xMidYMid"><path
         style="fill:context-stroke;fill-rule:evenodd;stroke:none"
         d="M 0,0 5,-5 -12.5,0 5,5 Z"
         transform="scale(-0.5)"
         id="path191" /></marker></defs><metadata
     id="metadata851"><rdf:RDF><cc:Work
         rdf:about=""><dc:format>image/svg+xml</dc:format><dc:type
           rdf:resource="http://purl.org/dc/dcmitype/StillImage" /></cc:Work></rdf:RDF></metadata><g
     inkscape:label="Layer 1"
     inkscape:groupmode="layer"
     id="layer1"
     transform="translate(-116.29142,-1635.1337)"><g
       id="g261"
       transform="translate(-1.2281967)"
       inkscape:export-filename="graph3.png"
       inkscape:export-xdpi="200"
       inkscape:export-ydpi="200"><path
         style="fill:#c3302e;fill-opacity:0.501961;stroke:none;stroke-width:0.707107;stroke-linejoin:bevel;stroke-miterlimit:3.9;stroke-dasharray:none;stroke-opacity:1"
         d="m 170.87643,1653.9516 c -5.28813,0.045 -8.67156,6.6211 -5.87793,11.0324 1.71407,3.3676 6.02167,4.357 9.34931,2.9371 4.81809,-1.9135 5.69045,-9.295 1.55152,-12.3866 -1.38142,-1.1458 -3.24946,-1.6371 -5.0229,-1.5829 z"
         id="path258"
         inkscape:export-filename="graph3.png"
         inkscape:export-xdpi="200"
         inkscape:export-ydpi="200" /><circle
         style="fill:none;fill-opacity:0.298163;stroke:#017188;stroke-width:0.852091;stroke-linejoin:bevel;stroke-miterlimit:3.9;stroke-opacity:1"
         id="circle258"
         cx="137.74152"
         cy="1661.2485"
         r="7.8773355"
         inkscape:export-filename="graph2.png"
         inkscape:export-xdpi="200"
         inkscape:export-ydpi="200" /><circle
         style="fill:none;fill-opacity:0.298163;stroke:#017188;stroke-width:0.852091;stroke-linejoin:bevel;stroke-miterlimit:3.9;stroke-opacity:1"
         id="circle259"
         cx="171.2691"
         cy="1661.2485"
         r="7.8773355"
         inkscape:export-filename="graphsymbols.png"
         inkscape:export-xdpi="200"
         inkscape:export-ydpi="200" /><path
         style="fill:none;stroke:#000000;stroke-width:0.5;stroke-linecap:butt;stroke-linejoin:miter;stroke-dasharray:none;stroke-opacity:1;marker-end:url(#marker191)"
         d="m 146.0449,1661.2486 h 13.79885"
         id="path259"
         sodipodi:nodetypes="cc" /><g
         transform="matrix(1.03285,0,0,1.03285,146.04516,1647.8487)"
         ns1:version="1.9.0"
         ns1:texconverter="pdflatex"
         ns1:pdfconverter="inkscape"
         ns1:text="$\\mathbf{x}$"
         ns1:preamble="/home/iuribarcelos/.config/inkscape/extensions/textext/default_packages.tex"
         ns1:scale="2.927767037627063"
         ns1:alignment="middle center"
         ns1:stroke-to-path="0"
         ns1:inkscapeversion="1.3"
         id="g7586"
         ns1:jacobian_sqrt="1.03285"><defs
   id="id-58ea6248-7313-47b5-be33-59b41e861598" />&#10;  <g
   fill="#000000"
   fill-opacity="1"
   id="id-4487b299-12c2-4698-96a6-beba5ccf13bc"
   transform="translate(-148.931,-130.343)">&#10;    <g
   transform="translate(148.712,134.765)"
   id="g7429"><path
   d="M 3.453125,-2.453125 4.609375,-3.75 C 4.75,-3.890625 4.8125,-3.953125 5.625,-3.953125 v -0.46875 c -0.34375,0.015625 -0.859375,0.03125 -0.90625,0.03125 -0.25,0 -0.75,-0.03125 -1.03125,-0.03125 v 0.46875 c 0.140625,0 0.265625,0.015625 0.375,0.078125 -0.03125,0.0625 -0.03125,0.09375 -0.078125,0.125 L 3.15625,-2.8125 2.171875,-3.953125 h 0.40625 v -0.46875 c -0.265625,0 -0.890625,0.03125 -1.21875,0.03125 -0.3125,0 -0.765625,-0.03125 -1.09375,-0.03125 v 0.46875 h 0.71875 L 2.53125,-2.125 1.21875,-0.65625 c -0.15625,0.1875 -0.515625,0.1875 -1,0.1875 V 0 c 0.34375,-0.015625 0.875,-0.03125 0.921875,-0.03125 0.25,0 0.828125,0.015625 1.015625,0.03125 v -0.46875 c -0.171875,0 -0.359375,-0.046875 -0.359375,-0.109375 0,-0.015625 0,-0.015625 0.0625,-0.09375 l 0.96875,-1.09375 1.09375,1.296875 H 3.53125 V 0 c 0.265625,-0.015625 0.875,-0.03125 1.203125,-0.03125 0.3125,0 0.765625,0.015625 1.09375,0.03125 V -0.46875 H 5.125 Z m 0,0"
   id="id-cad80dde-9be4-49d2-9f25-468da1830747" />&#10;      </g></g>&#10;</g><g
         transform="matrix(1.03285,0,0,1.03285,179.57274,1647.3706)"
         ns1:version="1.9.0"
         ns1:texconverter="pdflatex"
         ns1:pdfconverter="inkscape"
         ns1:text="$\\mathbf{y}$"
         ns1:preamble="/home/iuribarcelos/.config/inkscape/extensions/textext/default_packages.tex"
         ns1:scale="2.927767037627063"
         ns1:alignment="middle center"
         ns1:stroke-to-path="0"
         ns1:inkscapeversion="1.3"
         id="g8174"
         ns1:jacobian_sqrt="1.03285"><defs
   id="id-5a431ffb-5730-403a-9637-a778d1f6c0a4" />&#10;  <g
   fill="#000000"
   fill-opacity="1"
   id="id-9a0b9013-b3c5-4326-9eff-4a8ba22d794b"
   transform="translate(-148.931,-130.343)">&#10;    <g
   transform="translate(148.712,134.765)"
   id="g344"><path
   d="m 5.046875,-3.75 c 0.0625,-0.140625 0.09375,-0.203125 0.734375,-0.203125 v -0.46875 C 5.546875,-4.40625 5.25,-4.390625 5,-4.390625 c -0.25,0 -0.703125,-0.03125 -0.90625,-0.03125 v 0.46875 c 0.015625,0 0.46875,0 0.46875,0.109375 0,0.015625 -0.046875,0.109375 -0.0625,0.125 L 3.359375,-1.265625 2.09375,-3.953125 H 2.625 v -0.46875 c -0.328125,0.015625 -1.21875,0.03125 -1.234375,0.03125 -0.28125,0 -0.71875,-0.03125 -1.125,-0.03125 v 0.46875 h 0.625 L 2.765625,0 2.53125,0.484375 C 2.3125,0.953125 2,1.640625 1.28125,1.640625 1.140625,1.640625 1.125,1.625 1.046875,1.59375 1.140625,1.5625 1.359375,1.421875 1.359375,1.0625 1.359375,0.734375 1.125,0.5 0.78125,0.5 0.515625,0.5 0.21875,0.6875 0.21875,1.078125 0.21875,1.578125 0.6875,2 1.28125,2 2.046875,2 2.625,1.375 2.90625,0.8125 Z m 0,0"
   id="id-809b3ddb-ef3a-4d59-8c12-f34ab5013ad8" />&#10;      </g></g>&#10;</g></g><g
       transform="matrix(0.5911375,0,0,0.5911375,132.79285,1635.1335)"
       ns1:version="1.9.0"
       ns1:texconverter="pdflatex"
       ns1:pdfconverter="inkscape"
       ns1:text="$p(\\mathbf{x})=\\mathcal{N}\\left(\\mathbf{x}\\vert\\boldsymbol{\\mu},\\boldsymbol{\\Sigma}\\right)$"
       ns1:preamble="/home/iuribarcelos/.config/inkscape/extensions/textext/default_packages.tex"
       ns1:scale="2.927767037627063"
       ns1:alignment="middle center"
       ns1:stroke-to-path="0"
       ns1:inkscapeversion="1.3"
       id="g2906"
       ns1:jacobian_sqrt="1.03285"><defs
   id="id-aae3ae2c-fba2-4810-ba46-442ba09de47e" />&#10;  <g
   fill="#000000"
   fill-opacity="1"
   id="id-220a2d4a-da26-4d1b-9982-387ce18c145f"
   transform="translate(-148.4,-127.046)">&#10;    <g
   transform="translate(148.712,134.765)"
   id="g4715"><path
   d="M 0.453125,1.21875 C 0.375,1.5625 0.34375,1.625 -0.09375,1.625 c -0.109375,0 -0.21875,0 -0.21875,0.1875 0,0.078125 0.046875,0.125 0.125,0.125 0.265625,0 0.5625,-0.03125 0.828125,-0.03125 0.34375,0 0.671875,0.03125 1,0.03125 0.046875,0 0.171875,0 0.171875,-0.203125 C 1.8125,1.625 1.71875,1.625 1.578125,1.625 c -0.5,0 -0.5,-0.0625 -0.5,-0.15625 0,-0.125 0.421875,-1.75 0.484375,-2 0.125,0.296875 0.40625,0.640625 0.921875,0.640625 1.15625,0 2.40625,-1.453125 2.40625,-2.921875 0,-0.9375 -0.578125,-1.59375 -1.328125,-1.59375 -0.5,0 -0.984375,0.359375 -1.3125,0.75 -0.09375,-0.546875 -0.53125,-0.75 -0.890625,-0.75 -0.46875,0 -0.65625,0.390625 -0.734375,0.5625 C 0.4375,-3.5 0.3125,-2.90625 0.3125,-2.875 c 0,0.109375 0.09375,0.109375 0.109375,0.109375 0.109375,0 0.109375,-0.015625 0.171875,-0.234375 0.171875,-0.703125 0.375,-1.1875 0.734375,-1.1875 0.171875,0 0.3125,0.078125 0.3125,0.453125 0,0.234375 -0.03125,0.34375 -0.078125,0.515625 z m 1.75,-4.328125 C 2.265625,-3.375 2.546875,-3.65625 2.71875,-3.8125 c 0.359375,-0.296875 0.640625,-0.375 0.8125,-0.375 0.390625,0 0.640625,0.34375 0.640625,0.9375 0,0.59375 -0.328125,1.734375 -0.515625,2.109375 -0.34375,0.703125 -0.8125,1.03125 -1.1875,1.03125 C 1.8125,-0.109375 1.6875,-0.9375 1.6875,-1 c 0,-0.015625 0,-0.03125 0.03125,-0.15625 z m 0,0"
   id="id-d3fdd708-43c7-486a-bfb2-2edf698f2847" />&#10;      </g></g>&#10;  <g
   fill="#000000"
   fill-opacity="1"
   id="id-be7fc7b5-dd0e-46db-b11e-0e6ba4826e50"
   transform="translate(-148.4,-127.046)">&#10;    <g
   transform="translate(153.725,134.765)"
   id="g9918"><path
   d="m 3.296875,2.390625 c 0,-0.03125 0,-0.046875 -0.171875,-0.21875 C 1.890625,0.921875 1.5625,-0.96875 1.5625,-2.5 c 0,-1.734375 0.375,-3.46875 1.609375,-4.703125 0.125,-0.125 0.125,-0.140625 0.125,-0.171875 0,-0.078125 -0.03125,-0.109375 -0.09375,-0.109375 -0.109375,0 -1,0.6875 -1.59375,1.953125 -0.5,1.09375 -0.625,2.203125 -0.625,3.03125 0,0.78125 0.109375,1.984375 0.65625,3.125 C 2.25,1.84375 3.09375,2.5 3.203125,2.5 c 0.0625,0 0.09375,-0.03125 0.09375,-0.109375 z m 0,0"
   id="id-6515ad29-c544-4401-884b-3bbded6c235d" />&#10;      </g></g>&#10;  <g
   fill="#000000"
   fill-opacity="1"
   id="id-8280b033-9ca9-4f10-ab22-6385fa3d7bdf"
   transform="translate(-148.4,-127.046)">&#10;    <g
   transform="translate(157.599,134.765)"
   id="g1176"><path
   d="M 3.453125,-2.453125 4.609375,-3.75 C 4.75,-3.890625 4.8125,-3.953125 5.625,-3.953125 v -0.46875 c -0.34375,0.015625 -0.859375,0.03125 -0.90625,0.03125 -0.25,0 -0.75,-0.03125 -1.03125,-0.03125 v 0.46875 c 0.140625,0 0.265625,0.015625 0.375,0.078125 -0.03125,0.0625 -0.03125,0.09375 -0.078125,0.125 L 3.15625,-2.8125 2.171875,-3.953125 h 0.40625 v -0.46875 c -0.265625,0 -0.890625,0.03125 -1.21875,0.03125 -0.3125,0 -0.765625,-0.03125 -1.09375,-0.03125 v 0.46875 h 0.71875 L 2.53125,-2.125 1.21875,-0.65625 c -0.15625,0.1875 -0.515625,0.1875 -1,0.1875 V 0 c 0.34375,-0.015625 0.875,-0.03125 0.921875,-0.03125 0.25,0 0.828125,0.015625 1.015625,0.03125 v -0.46875 c -0.171875,0 -0.359375,-0.046875 -0.359375,-0.109375 0,-0.015625 0,-0.015625 0.0625,-0.09375 l 0.96875,-1.09375 1.09375,1.296875 H 3.53125 V 0 c 0.265625,-0.015625 0.875,-0.03125 1.203125,-0.03125 0.3125,0 0.765625,0.015625 1.09375,0.03125 V -0.46875 H 5.125 Z m 0,0"
   id="id-a5b4e831-d188-490a-85a2-aabbea5875c3" />&#10;      </g></g>&#10;  <g
   fill="#000000"
   fill-opacity="1"
   id="id-4091b9c3-49af-4879-9b49-70090877899f"
   transform="translate(-148.4,-127.046)">&#10;    <g
   transform="translate(163.646,134.765)"
   id="g9550"><path
   d="m 2.875,-2.5 c 0,-0.765625 -0.109375,-1.96875 -0.65625,-3.109375 -0.59375,-1.21875 -1.453125,-1.875 -1.546875,-1.875 -0.0625,0 -0.109375,0.046875 -0.109375,0.109375 0,0.03125 0,0.046875 0.1875,0.234375 0.984375,0.984375 1.546875,2.5625 1.546875,4.640625 0,1.71875 -0.359375,3.46875 -1.59375,4.71875 C 0.5625,2.34375 0.5625,2.359375 0.5625,2.390625 0.5625,2.453125 0.609375,2.5 0.671875,2.5 0.765625,2.5 1.671875,1.8125 2.25,0.546875 2.765625,-0.546875 2.875,-1.65625 2.875,-2.5 Z m 0,0"
   id="id-4e0bf914-0aaf-46fe-ac9f-139bd262fc38" />&#10;      </g></g>&#10;  <g
   fill="#000000"
   fill-opacity="1"
   id="id-97aca5e0-1292-486f-8ccf-f32e03e785a3"
   transform="translate(-148.4,-127.046)">&#10;    <g
   transform="translate(170.29,134.765)"
   id="g5371"><path
   d="m 6.84375,-3.265625 c 0.15625,0 0.34375,0 0.34375,-0.1875 C 7.1875,-3.65625 7,-3.65625 6.859375,-3.65625 h -5.96875 c -0.140625,0 -0.328125,0 -0.328125,0.203125 0,0.1875 0.1875,0.1875 0.328125,0.1875 z m 0.015625,1.9375 c 0.140625,0 0.328125,0 0.328125,-0.203125 0,-0.1875 -0.1875,-0.1875 -0.34375,-0.1875 H 0.890625 c -0.140625,0 -0.328125,0 -0.328125,0.1875 0,0.203125 0.1875,0.203125 0.328125,0.203125 z m 0,0"
   id="id-25f5dc2e-32fa-4d2a-9b34-e3357190b4a9" />&#10;      </g></g>&#10;  <g
   fill="#000000"
   fill-opacity="1"
   id="id-5623f16e-2185-4821-b229-48c98ae908a2"
   transform="translate(-148.4,-127.046)">&#10;    <g
   transform="translate(180.804,134.765)"
   id="g8757"><path
   d="m 3.046875,-5.71875 c 0.1875,0.515625 0.40625,1.265625 0.84375,2.484375 C 4.53125,-1.53125 4.8125,-0.921875 5.40625,0.03125 5.546875,0.234375 5.5625,0.25 5.65625,0.25 5.796875,0.25 6,0.125 6.109375,0.046875 6.25,-0.078125 6.265625,-0.09375 6.375,-0.578125 6.96875,-3.203125 7.71875,-5.9375 7.921875,-6.390625 7.9375,-6.40625 8.140625,-6.78125 9.359375,-6.8125 9.5625,-6.8125 9.75,-7.34375 9.75,-7.5625 c 0,-0.15625 -0.0625,-0.15625 -0.203125,-0.15625 -1,0 -1.4375,0.40625 -1.5625,0.546875 -0.28125,0.359375 -0.515625,1.078125 -0.96875,2.75 C 6.65625,-3.15625 6.34375,-1.859375 6.03125,-0.5625 5.484375,-1.390625 5.171875,-2.1875 4.6875,-3.46875 4.171875,-4.890625 3.84375,-5.921875 3.578125,-6.8125 c -0.0625,-0.203125 -0.0625,-0.21875 -0.15625,-0.21875 -0.015625,0 -0.21875,0 -0.515625,0.25 C 2.8125,-6.703125 2.796875,-6.609375 2.796875,-6.5 c -0.28125,2.65625 -1.21875,5.28125 -1.484375,5.75 -0.09375,0.15625 -0.203125,0.328125 -0.40625,0.328125 -0.09375,0 -0.484375,-0.046875 -0.75,-0.28125 C 0.109375,-0.75 0.09375,-0.75 0.078125,-0.75 c -0.15625,0 -0.375,0.5 -0.375,0.734375 C -0.296875,0.296875 0.3125,0.5 0.59375,0.5 1.234375,0.5 1.75,-0.90625 1.90625,-1.359375 2.546875,-3.171875 2.859375,-4.65625 3.046875,-5.71875 Z m 0,0"
   id="id-c1610961-9b58-402d-b7bd-d2955b20d847" />&#10;      </g></g>&#10;  <g
   fill="#000000"
   fill-opacity="1"
   id="id-b02967ba-21ed-4e7d-8745-e428771ef9f1"
   transform="translate(-148.4,-127.046)">&#10;    <g
   transform="translate(192.106,134.765)"
   id="g2814"><path
   d="m 3.296875,2.390625 c 0,-0.03125 0,-0.046875 -0.171875,-0.21875 C 1.890625,0.921875 1.5625,-0.96875 1.5625,-2.5 c 0,-1.734375 0.375,-3.46875 1.609375,-4.703125 0.125,-0.125 0.125,-0.140625 0.125,-0.171875 0,-0.078125 -0.03125,-0.109375 -0.09375,-0.109375 -0.109375,0 -1,0.6875 -1.59375,1.953125 -0.5,1.09375 -0.625,2.203125 -0.625,3.03125 0,0.78125 0.109375,1.984375 0.65625,3.125 C 2.25,1.84375 3.09375,2.5 3.203125,2.5 c 0.0625,0 0.09375,-0.03125 0.09375,-0.109375 z m 0,0"
   id="id-d87c3454-2032-4156-8655-caf0d3233cda" />&#10;      </g></g>&#10;  <g
   fill="#000000"
   fill-opacity="1"
   id="id-8409a479-e0bc-4e02-8197-6018d30d2e73"
   transform="translate(-148.4,-127.046)">&#10;    <g
   transform="translate(195.981,134.765)"
   id="g8341"><path
   d="M 3.453125,-2.453125 4.609375,-3.75 C 4.75,-3.890625 4.8125,-3.953125 5.625,-3.953125 v -0.46875 c -0.34375,0.015625 -0.859375,0.03125 -0.90625,0.03125 -0.25,0 -0.75,-0.03125 -1.03125,-0.03125 v 0.46875 c 0.140625,0 0.265625,0.015625 0.375,0.078125 -0.03125,0.0625 -0.03125,0.09375 -0.078125,0.125 L 3.15625,-2.8125 2.171875,-3.953125 h 0.40625 v -0.46875 c -0.265625,0 -0.890625,0.03125 -1.21875,0.03125 -0.3125,0 -0.765625,-0.03125 -1.09375,-0.03125 v 0.46875 h 0.71875 L 2.53125,-2.125 1.21875,-0.65625 c -0.15625,0.1875 -0.515625,0.1875 -1,0.1875 V 0 c 0.34375,-0.015625 0.875,-0.03125 0.921875,-0.03125 0.25,0 0.828125,0.015625 1.015625,0.03125 v -0.46875 c -0.171875,0 -0.359375,-0.046875 -0.359375,-0.109375 0,-0.015625 0,-0.015625 0.0625,-0.09375 l 0.96875,-1.09375 1.09375,1.296875 H 3.53125 V 0 c 0.265625,-0.015625 0.875,-0.03125 1.203125,-0.03125 0.3125,0 0.765625,0.015625 1.09375,0.03125 V -0.46875 H 5.125 Z m 0,0"
   id="id-b4c91e6f-9ad0-4634-b231-26ea1458ee99" />&#10;      </g></g>&#10;  <g
   fill="#000000"
   fill-opacity="1"
   id="id-73f804e4-cef3-4809-b31b-48a0df35c0bb"
   transform="translate(-148.4,-127.046)">&#10;    <g
   transform="translate(202.027,134.765)"
   id="g969"><path
   d="m 1.578125,-7.125 c 0,-0.171875 0,-0.359375 -0.1875,-0.359375 -0.203125,0 -0.203125,0.1875 -0.203125,0.359375 v 9.265625 c 0,0.171875 0,0.359375 0.203125,0.359375 0.1875,0 0.1875,-0.1875 0.1875,-0.359375 z m 0,0"
   id="id-d8015658-770c-4e1a-9c02-9a525d4ddfec" />&#10;      </g></g>&#10;  <g
   fill="#000000"
   fill-opacity="1"
   id="id-d19b84e1-4b57-497e-b0d1-a3a563750c45"
   transform="translate(-148.4,-127.046)">&#10;    <g
   transform="translate(204.795,134.765)"
   id="g355"><path
   d="M 2.734375,-3.3125 C 2.796875,-3.5625 2.90625,-4 2.90625,-4.0625 2.90625,-4.28125 2.75,-4.5 2.4375,-4.5 1.921875,-4.5 1.796875,-4 1.765625,-3.890625 L 0.4375,1.40625 C 0.40625,1.5625 0.40625,1.625 0.40625,1.671875 c 0,0.3125 0.25,0.4375 0.46875,0.4375 0.1875,0 0.453125,-0.109375 0.59375,-0.390625 0.0625,-0.125 0.390625,-1.484375 0.453125,-1.796875 0.40625,0.15625 0.859375,0.15625 0.984375,0.15625 0.34375,0 0.796875,-0.0625 1.40625,-0.59375 0.234375,0.453125 0.796875,0.59375 1.15625,0.59375 0.375,0 0.65625,-0.203125 0.875,-0.5625 0.25,-0.40625 0.375,-0.9375 0.375,-0.984375 0,-0.140625 -0.15625,-0.140625 -0.234375,-0.140625 -0.109375,0 -0.15625,0 -0.203125,0.046875 -0.015625,0.015625 -0.015625,0.03125 -0.078125,0.28125 -0.203125,0.796875 -0.4375,1 -0.6875,1 -0.109375,0 -0.21875,-0.03125 -0.21875,-0.359375 0,-0.171875 0.03125,-0.34375 0.140625,-0.734375 l 0.25,-1.015625 c 0.046875,-0.21875 0.15625,-0.625 0.21875,-0.90625 0.0625,-0.21875 0.171875,-0.625 0.171875,-0.6875 0,-0.21875 -0.171875,-0.4375 -0.46875,-0.4375 -0.203125,0 -0.5625,0.109375 -0.671875,0.53125 l -0.6875,2.75 c -0.03125,0.1875 -0.203125,0.359375 -0.375,0.5 C 3.546875,-0.375 3.25,-0.28125 2.984375,-0.28125 2.296875,-0.28125 2.25,-0.765625 2.25,-1.0625 2.25,-1.328125 2.296875,-1.578125 2.34375,-1.75 Z m 0,0"
   id="id-bdb3fa8d-8cb2-40b5-9dc5-6ea4641116ce" />&#10;      </g></g>&#10;  <g
   fill="#000000"
   fill-opacity="1"
   id="id-adb49a9a-e1fa-428b-a924-4611aa981549"
   transform="translate(-148.4,-127.046)">&#10;    <g
   transform="translate(211.847,134.765)"
   id="g7228"><path
   d="m 2.03125,-0.015625 c 0,-0.65625 -0.25,-1.046875 -0.640625,-1.046875 -0.328125,0 -0.53125,0.25 -0.53125,0.53125 C 0.859375,-0.265625 1.0625,0 1.390625,0 1.5,0 1.640625,-0.046875 1.734375,-0.125 1.765625,-0.15625 1.78125,-0.15625 1.78125,-0.15625 c 0.015625,0 0.015625,0 0.015625,0.140625 0,0.75 -0.34375,1.34375 -0.671875,1.671875 -0.109375,0.109375 -0.109375,0.125 -0.109375,0.15625 0,0.078125 0.046875,0.109375 0.09375,0.109375 0.109375,0 0.921875,-0.765625 0.921875,-1.9375 z m 0,0"
   id="id-c1672cf3-848a-4485-a698-04ca3643d936" />&#10;      </g></g>&#10;  <g
   fill="#000000"
   fill-opacity="1"
   id="id-ca9d9131-0c33-48b5-bf8e-9485ce403b06"
   transform="translate(-148.4,-127.046)">&#10;    <g
   transform="translate(216.275,134.765)"
   id="g604"><path
   d="m 4.78125,-3.234375 c 0.0625,-0.046875 0.125,-0.09375 0.125,-0.1875 0,-0.0625 -0.046875,-0.109375 -0.078125,-0.140625 L 2.5625,-6.375 h 2.03125 c 1.484375,0 2.359375,0.28125 2.578125,1.9375 h 0.46875 l -0.3125,-2.40625 h -6.375 c -0.203125,0 -0.3125,0 -0.3125,0.25 0,0.09375 0,0.109375 0.09375,0.21875 l 2.84375,3.5 L 0.75,-0.375 C 0.703125,-0.3125 0.640625,-0.265625 0.640625,-0.171875 0.640625,0 0.8125,0 0.953125,0 h 6.375 l 0.3125,-2.59375 H 7.171875 C 6.953125,-0.875 5.96875,-0.65625 4.5625,-0.65625 H 1.890625 Z m 0,0"
   id="id-597155d1-c7b5-4b43-8348-b8409c7a903a" />&#10;      </g></g>&#10;  <g
   fill="#000000"
   fill-opacity="1"
   id="id-db5793f7-0f4f-49dd-b0ff-b9a1c4835529"
   transform="translate(-148.4,-127.046)">&#10;    <g
   transform="translate(224.549,134.765)"
   id="g2061"><path
   d="m 2.875,-2.5 c 0,-0.765625 -0.109375,-1.96875 -0.65625,-3.109375 -0.59375,-1.21875 -1.453125,-1.875 -1.546875,-1.875 -0.0625,0 -0.109375,0.046875 -0.109375,0.109375 0,0.03125 0,0.046875 0.1875,0.234375 0.984375,0.984375 1.546875,2.5625 1.546875,4.640625 0,1.71875 -0.359375,3.46875 -1.59375,4.71875 C 0.5625,2.34375 0.5625,2.359375 0.5625,2.390625 0.5625,2.453125 0.609375,2.5 0.671875,2.5 0.765625,2.5 1.671875,1.8125 2.25,0.546875 2.765625,-0.546875 2.875,-1.65625 2.875,-2.5 Z m 0,0"
   id="id-f7798cf2-54d4-4a76-b8ac-93a85e01f372" />&#10;      </g></g>&#10;</g><g
       transform="matrix(0.64013243,0,0,0.64013243,116.29176,1673.3433)"
       ns1:version="1.9.0"
       ns1:texconverter="pdflatex"
       ns1:pdfconverter="inkscape"
       ns1:text="$p(\\mathbf{y}\\vert\\mathbf{x})=\\mathcal{N}\\left(\\mathbf{y}\\vert\\mathbf{A}\\mathbf{x}+\\mathbf{b},\\mathbf{L}^{-1}\\right)$"
       ns1:preamble="/home/iuribarcelos/.config/inkscape/extensions/textext/default_packages.tex"
       ns1:scale="2.927767037627063"
       ns1:alignment="middle center"
       ns1:stroke-to-path="0"
       ns1:inkscapeversion="1.3"
       id="g6697"
       ns1:jacobian_sqrt="1.03285"><defs
   id="id-d1af9d72-0006-4723-968f-ff0663d76646" />&#10;  <g
   fill="#000000"
   fill-opacity="1"
   id="id-8eeaf9d2-af76-4cf5-bb1a-8ebbe6b5d7d3"
   transform="translate(-148.4,-126.289)">&#10;    <g
   transform="translate(148.712,134.765)"
   id="g9052"><path
   d="M 0.453125,1.21875 C 0.375,1.5625 0.34375,1.625 -0.09375,1.625 c -0.109375,0 -0.21875,0 -0.21875,0.1875 0,0.078125 0.046875,0.125 0.125,0.125 0.265625,0 0.5625,-0.03125 0.828125,-0.03125 0.34375,0 0.671875,0.03125 1,0.03125 0.046875,0 0.171875,0 0.171875,-0.203125 C 1.8125,1.625 1.71875,1.625 1.578125,1.625 c -0.5,0 -0.5,-0.0625 -0.5,-0.15625 0,-0.125 0.421875,-1.75 0.484375,-2 0.125,0.296875 0.40625,0.640625 0.921875,0.640625 1.15625,0 2.40625,-1.453125 2.40625,-2.921875 0,-0.9375 -0.578125,-1.59375 -1.328125,-1.59375 -0.5,0 -0.984375,0.359375 -1.3125,0.75 -0.09375,-0.546875 -0.53125,-0.75 -0.890625,-0.75 -0.46875,0 -0.65625,0.390625 -0.734375,0.5625 C 0.4375,-3.5 0.3125,-2.90625 0.3125,-2.875 c 0,0.109375 0.09375,0.109375 0.109375,0.109375 0.109375,0 0.109375,-0.015625 0.171875,-0.234375 0.171875,-0.703125 0.375,-1.1875 0.734375,-1.1875 0.171875,0 0.3125,0.078125 0.3125,0.453125 0,0.234375 -0.03125,0.34375 -0.078125,0.515625 z m 1.75,-4.328125 C 2.265625,-3.375 2.546875,-3.65625 2.71875,-3.8125 c 0.359375,-0.296875 0.640625,-0.375 0.8125,-0.375 0.390625,0 0.640625,0.34375 0.640625,0.9375 0,0.59375 -0.328125,1.734375 -0.515625,2.109375 -0.34375,0.703125 -0.8125,1.03125 -1.1875,1.03125 C 1.8125,-0.109375 1.6875,-0.9375 1.6875,-1 c 0,-0.015625 0,-0.03125 0.03125,-0.15625 z m 0,0"
   id="id-2ce8431c-1cb9-4715-8129-3567e30014e5" />&#10;      </g></g>&#10;  <g
   fill="#000000"
   fill-opacity="1"
   id="id-4cbcb96c-62cb-4e69-835b-71b538e85c4a"
   transform="translate(-148.4,-126.289)">&#10;    <g
   transform="translate(153.725,134.765)"
   id="g7200"><path
   d="m 3.296875,2.390625 c 0,-0.03125 0,-0.046875 -0.171875,-0.21875 C 1.890625,0.921875 1.5625,-0.96875 1.5625,-2.5 c 0,-1.734375 0.375,-3.46875 1.609375,-4.703125 0.125,-0.125 0.125,-0.140625 0.125,-0.171875 0,-0.078125 -0.03125,-0.109375 -0.09375,-0.109375 -0.109375,0 -1,0.6875 -1.59375,1.953125 -0.5,1.09375 -0.625,2.203125 -0.625,3.03125 0,0.78125 0.109375,1.984375 0.65625,3.125 C 2.25,1.84375 3.09375,2.5 3.203125,2.5 c 0.0625,0 0.09375,-0.03125 0.09375,-0.109375 z m 0,0"
   id="id-84122033-09b6-43f5-8f8b-63dae54be3bf" />&#10;      </g></g>&#10;  <g
   fill="#000000"
   fill-opacity="1"
   id="id-eef21447-ec64-449d-9017-ed99ebed79c4"
   transform="translate(-148.4,-126.289)">&#10;    <g
   transform="translate(157.599,134.765)"
   id="g552"><path
   d="m 5.046875,-3.75 c 0.0625,-0.140625 0.09375,-0.203125 0.734375,-0.203125 v -0.46875 C 5.546875,-4.40625 5.25,-4.390625 5,-4.390625 c -0.25,0 -0.703125,-0.03125 -0.90625,-0.03125 v 0.46875 c 0.015625,0 0.46875,0 0.46875,0.109375 0,0.015625 -0.046875,0.109375 -0.0625,0.125 L 3.359375,-1.265625 2.09375,-3.953125 H 2.625 v -0.46875 c -0.328125,0.015625 -1.21875,0.03125 -1.234375,0.03125 -0.28125,0 -0.71875,-0.03125 -1.125,-0.03125 v 0.46875 h 0.625 L 2.765625,0 2.53125,0.484375 C 2.3125,0.953125 2,1.640625 1.28125,1.640625 1.140625,1.640625 1.125,1.625 1.046875,1.59375 1.140625,1.5625 1.359375,1.421875 1.359375,1.0625 1.359375,0.734375 1.125,0.5 0.78125,0.5 0.515625,0.5 0.21875,0.6875 0.21875,1.078125 0.21875,1.578125 0.6875,2 1.28125,2 2.046875,2 2.625,1.375 2.90625,0.8125 Z m 0,0"
   id="id-abcf92f7-df7b-4305-8ac2-c07ead5a50c8" />&#10;      </g></g>&#10;  <g
   fill="#000000"
   fill-opacity="1"
   id="id-348df1d5-bd83-4216-a871-71be7c19a598"
   transform="translate(-148.4,-126.289)">&#10;    <g
   transform="translate(163.805,134.765)"
   id="g2325"><path
   d="m 1.578125,-7.125 c 0,-0.171875 0,-0.359375 -0.1875,-0.359375 -0.203125,0 -0.203125,0.1875 -0.203125,0.359375 v 9.265625 c 0,0.171875 0,0.359375 0.203125,0.359375 0.1875,0 0.1875,-0.1875 0.1875,-0.359375 z m 0,0"
   id="id-8edfb17d-9cd1-454b-a7fb-b3cbc42a3c11" />&#10;      </g></g>&#10;  <g
   fill="#000000"
   fill-opacity="1"
   id="id-7af3f95c-2408-4a4c-be3b-965401533a53"
   transform="translate(-148.4,-126.289)">&#10;    <g
   transform="translate(166.572,134.765)"
   id="g4227"><path
   d="M 3.453125,-2.453125 4.609375,-3.75 C 4.75,-3.890625 4.8125,-3.953125 5.625,-3.953125 v -0.46875 c -0.34375,0.015625 -0.859375,0.03125 -0.90625,0.03125 -0.25,0 -0.75,-0.03125 -1.03125,-0.03125 v 0.46875 c 0.140625,0 0.265625,0.015625 0.375,0.078125 -0.03125,0.0625 -0.03125,0.09375 -0.078125,0.125 L 3.15625,-2.8125 2.171875,-3.953125 h 0.40625 v -0.46875 c -0.265625,0 -0.890625,0.03125 -1.21875,0.03125 -0.3125,0 -0.765625,-0.03125 -1.09375,-0.03125 v 0.46875 h 0.71875 L 2.53125,-2.125 1.21875,-0.65625 c -0.15625,0.1875 -0.515625,0.1875 -1,0.1875 V 0 c 0.34375,-0.015625 0.875,-0.03125 0.921875,-0.03125 0.25,0 0.828125,0.015625 1.015625,0.03125 v -0.46875 c -0.171875,0 -0.359375,-0.046875 -0.359375,-0.109375 0,-0.015625 0,-0.015625 0.0625,-0.09375 l 0.96875,-1.09375 1.09375,1.296875 H 3.53125 V 0 c 0.265625,-0.015625 0.875,-0.03125 1.203125,-0.03125 0.3125,0 0.765625,0.015625 1.09375,0.03125 V -0.46875 H 5.125 Z m 0,0"
   id="id-f8288ee3-b763-4d44-ae0b-d25ca8914cd5" />&#10;      </g></g>&#10;  <g
   fill="#000000"
   fill-opacity="1"
   id="id-4890e7c1-334b-416b-9660-c90d65b58d68"
   transform="translate(-148.4,-126.289)">&#10;    <g
   transform="translate(172.619,134.765)"
   id="g526"><path
   d="m 2.875,-2.5 c 0,-0.765625 -0.109375,-1.96875 -0.65625,-3.109375 -0.59375,-1.21875 -1.453125,-1.875 -1.546875,-1.875 -0.0625,0 -0.109375,0.046875 -0.109375,0.109375 0,0.03125 0,0.046875 0.1875,0.234375 0.984375,0.984375 1.546875,2.5625 1.546875,4.640625 0,1.71875 -0.359375,3.46875 -1.59375,4.71875 C 0.5625,2.34375 0.5625,2.359375 0.5625,2.390625 0.5625,2.453125 0.609375,2.5 0.671875,2.5 0.765625,2.5 1.671875,1.8125 2.25,0.546875 2.765625,-0.546875 2.875,-1.65625 2.875,-2.5 Z m 0,0"
   id="id-a22e3990-eb06-4d4f-b800-3c5ecb55f0d4" />&#10;      </g></g>&#10;  <g
   fill="#000000"
   fill-opacity="1"
   id="id-10da092d-b7a6-4864-a6fc-92afcf8a4af3"
   transform="translate(-148.4,-126.289)">&#10;    <g
   transform="translate(179.263,134.765)"
   id="g7085"><path
   d="m 6.84375,-3.265625 c 0.15625,0 0.34375,0 0.34375,-0.1875 C 7.1875,-3.65625 7,-3.65625 6.859375,-3.65625 h -5.96875 c -0.140625,0 -0.328125,0 -0.328125,0.203125 0,0.1875 0.1875,0.1875 0.328125,0.1875 z m 0.015625,1.9375 c 0.140625,0 0.328125,0 0.328125,-0.203125 0,-0.1875 -0.1875,-0.1875 -0.34375,-0.1875 H 0.890625 c -0.140625,0 -0.328125,0 -0.328125,0.1875 0,0.203125 0.1875,0.203125 0.328125,0.203125 z m 0,0"
   id="id-174886be-bb53-4baa-a818-e520a826dee7" />&#10;      </g></g>&#10;  <g
   fill="#000000"
   fill-opacity="1"
   id="id-84c1b6cc-4463-4d23-8b62-c92d24e3d086"
   transform="translate(-148.4,-126.289)">&#10;    <g
   transform="translate(189.777,134.765)"
   id="g3859"><path
   d="m 3.046875,-5.71875 c 0.1875,0.515625 0.40625,1.265625 0.84375,2.484375 C 4.53125,-1.53125 4.8125,-0.921875 5.40625,0.03125 5.546875,0.234375 5.5625,0.25 5.65625,0.25 5.796875,0.25 6,0.125 6.109375,0.046875 6.25,-0.078125 6.265625,-0.09375 6.375,-0.578125 6.96875,-3.203125 7.71875,-5.9375 7.921875,-6.390625 7.9375,-6.40625 8.140625,-6.78125 9.359375,-6.8125 9.5625,-6.8125 9.75,-7.34375 9.75,-7.5625 c 0,-0.15625 -0.0625,-0.15625 -0.203125,-0.15625 -1,0 -1.4375,0.40625 -1.5625,0.546875 -0.28125,0.359375 -0.515625,1.078125 -0.96875,2.75 C 6.65625,-3.15625 6.34375,-1.859375 6.03125,-0.5625 5.484375,-1.390625 5.171875,-2.1875 4.6875,-3.46875 4.171875,-4.890625 3.84375,-5.921875 3.578125,-6.8125 c -0.0625,-0.203125 -0.0625,-0.21875 -0.15625,-0.21875 -0.015625,0 -0.21875,0 -0.515625,0.25 C 2.8125,-6.703125 2.796875,-6.609375 2.796875,-6.5 c -0.28125,2.65625 -1.21875,5.28125 -1.484375,5.75 -0.09375,0.15625 -0.203125,0.328125 -0.40625,0.328125 -0.09375,0 -0.484375,-0.046875 -0.75,-0.28125 C 0.109375,-0.75 0.09375,-0.75 0.078125,-0.75 c -0.15625,0 -0.375,0.5 -0.375,0.734375 C -0.296875,0.296875 0.3125,0.5 0.59375,0.5 1.234375,0.5 1.75,-0.90625 1.90625,-1.359375 2.546875,-3.171875 2.859375,-4.65625 3.046875,-5.71875 Z m 0,0"
   id="id-0c5ecac7-3d64-4054-b28e-ab21d875cdaf" />&#10;      </g></g>&#10;  <g
   fill="#000000"
   fill-opacity="1"
   id="id-3e99e69e-e668-4ae3-9a4a-b6c5d5057792"
   transform="translate(-148.4,-126.289)">&#10;    <g
   transform="translate(201.08,126.695)"
   id="g3371"><path
   d="m 4.109375,11.453125 c 0,-0.03125 -0.015625,-0.0625 -0.03125,-0.09375 C 3.625,10.875 2.9375,10.0625 2.515625,8.4375 2.296875,7.53125 2.203125,6.515625 2.203125,5.578125 c 0,-2.625 0.625,-4.453125 1.828125,-5.75 0.078125,-0.09375 0.078125,-0.109375 0.078125,-0.125 C 4.109375,-0.40625 4.03125,-0.40625 4,-0.40625 c -0.15625,0 -0.6875,0.609375 -0.8125,0.75 -1.03125,1.21875 -1.671875,3 -1.671875,5.234375 0,1.40625 0.25,3.40625 1.5625,5.09375 0.09375,0.125 0.734375,0.875 0.921875,0.875 0.03125,0 0.109375,0 0.109375,-0.09375 z m 0,0"
   id="id-5a517295-59b4-4114-b08d-fb92c01cf912" />&#10;      </g></g>&#10;  <g
   fill="#000000"
   fill-opacity="1"
   id="id-127fcdda-578d-46fa-ab4c-dd8c0af7e93d"
   transform="translate(-148.4,-126.289)">&#10;    <g
   transform="translate(205.646,134.765)"
   id="g8631"><path
   d="m 5.046875,-3.75 c 0.0625,-0.140625 0.09375,-0.203125 0.734375,-0.203125 v -0.46875 C 5.546875,-4.40625 5.25,-4.390625 5,-4.390625 c -0.25,0 -0.703125,-0.03125 -0.90625,-0.03125 v 0.46875 c 0.015625,0 0.46875,0 0.46875,0.109375 0,0.015625 -0.046875,0.109375 -0.0625,0.125 L 3.359375,-1.265625 2.09375,-3.953125 H 2.625 v -0.46875 c -0.328125,0.015625 -1.21875,0.03125 -1.234375,0.03125 -0.28125,0 -0.71875,-0.03125 -1.125,-0.03125 v 0.46875 h 0.625 L 2.765625,0 2.53125,0.484375 C 2.3125,0.953125 2,1.640625 1.28125,1.640625 1.140625,1.640625 1.125,1.625 1.046875,1.59375 1.140625,1.5625 1.359375,1.421875 1.359375,1.0625 1.359375,0.734375 1.125,0.5 0.78125,0.5 0.515625,0.5 0.21875,0.6875 0.21875,1.078125 0.21875,1.578125 0.6875,2 1.28125,2 2.046875,2 2.625,1.375 2.90625,0.8125 Z m 0,0"
   id="id-fca166ec-dd37-436d-8f44-63f1ee7577ed" />&#10;      </g></g>&#10;  <g
   fill="#000000"
   fill-opacity="1"
   id="id-f6ba1ce7-046a-4d0a-b31f-b89c6c11efa2"
   transform="translate(-148.4,-126.289)">&#10;    <g
   transform="translate(211.852,134.765)"
   id="g3778"><path
   d="m 1.578125,-7.125 c 0,-0.171875 0,-0.359375 -0.1875,-0.359375 -0.203125,0 -0.203125,0.1875 -0.203125,0.359375 v 9.265625 c 0,0.171875 0,0.359375 0.203125,0.359375 0.1875,0 0.1875,-0.1875 0.1875,-0.359375 z m 0,0"
   id="id-eb3475ab-c879-4786-97dc-8eebb2f054c2" />&#10;      </g></g>&#10;  <g
   fill="#000000"
   fill-opacity="1"
   id="id-22147275-cdb4-493d-a5ce-2d3ac34bab86"
   transform="translate(-148.4,-126.289)">&#10;    <g
   transform="translate(214.619,134.765)"
   id="g770"><path
   d="m 4.71875,-6.703125 c -0.109375,-0.25 -0.21875,-0.25 -0.390625,-0.25 -0.28125,0 -0.328125,0.078125 -0.390625,0.25 l -2.46875,6 C 1.40625,-0.546875 1.375,-0.46875 0.625,-0.46875 H 0.40625 V 0 c 0.375,-0.015625 0.859375,-0.03125 1.171875,-0.03125 0.390625,0 0.9375,0 1.3125,0.03125 V -0.46875 C 2.875,-0.46875 2,-0.46875 2,-0.59375 c 0,-0.015625 0.03125,-0.109375 0.046875,-0.125 l 0.5,-1.203125 H 5.21875 L 5.8125,-0.46875 H 4.859375 V 0 C 5.25,-0.03125 6.1875,-0.03125 6.625,-0.03125 c 0.390625,0 1.265625,0 1.625,0.03125 V -0.46875 H 7.28125 Z M 3.875,-5.15625 5.015625,-2.390625 h -2.28125 z m 0,0"
   id="id-50d11859-e0bf-4fe8-8cbb-3e9817dc905c" />&#10;      </g><g
   transform="translate(223.28,134.765)"
   id="g6657"><path
   d="M 3.453125,-2.453125 4.609375,-3.75 C 4.75,-3.890625 4.8125,-3.953125 5.625,-3.953125 v -0.46875 c -0.34375,0.015625 -0.859375,0.03125 -0.90625,0.03125 -0.25,0 -0.75,-0.03125 -1.03125,-0.03125 v 0.46875 c 0.140625,0 0.265625,0.015625 0.375,0.078125 -0.03125,0.0625 -0.03125,0.09375 -0.078125,0.125 L 3.15625,-2.8125 2.171875,-3.953125 h 0.40625 v -0.46875 c -0.265625,0 -0.890625,0.03125 -1.21875,0.03125 -0.3125,0 -0.765625,-0.03125 -1.09375,-0.03125 v 0.46875 h 0.71875 L 2.53125,-2.125 1.21875,-0.65625 c -0.15625,0.1875 -0.515625,0.1875 -1,0.1875 V 0 c 0.34375,-0.015625 0.875,-0.03125 0.921875,-0.03125 0.25,0 0.828125,0.015625 1.015625,0.03125 v -0.46875 c -0.171875,0 -0.359375,-0.046875 -0.359375,-0.109375 0,-0.015625 0,-0.015625 0.0625,-0.09375 l 0.96875,-1.09375 1.09375,1.296875 H 3.53125 V 0 c 0.265625,-0.015625 0.875,-0.03125 1.203125,-0.03125 0.3125,0 0.765625,0.015625 1.09375,0.03125 V -0.46875 H 5.125 Z m 0,0"
   id="id-40ae4063-75d3-425c-a5d6-c26722093079" />&#10;      </g></g>&#10;  <g
   fill="#000000"
   fill-opacity="1"
   id="id-cf6e9f5e-d540-45b8-b60d-b7a3dbe67b35"
   transform="translate(-148.4,-126.289)">&#10;    <g
   transform="translate(231.542,134.765)"
   id="g7973"><path
   d="m 4.078125,-2.296875 h 2.78125 C 7,-2.296875 7.1875,-2.296875 7.1875,-2.5 7.1875,-2.6875 7,-2.6875 6.859375,-2.6875 h -2.78125 v -2.796875 c 0,-0.140625 0,-0.328125 -0.203125,-0.328125 -0.203125,0 -0.203125,0.1875 -0.203125,0.328125 V -2.6875 h -2.78125 c -0.140625,0 -0.328125,0 -0.328125,0.1875 0,0.203125 0.1875,0.203125 0.328125,0.203125 h 2.78125 V 0.5 c 0,0.140625 0,0.328125 0.203125,0.328125 0.203125,0 0.203125,-0.1875 0.203125,-0.328125 z m 0,0"
   id="id-493389f6-4913-49b3-a787-6dbca40d3957" />&#10;      </g></g>&#10;  <g
   fill="#000000"
   fill-opacity="1"
   id="id-0417a83f-3cfd-40d8-9af0-5d0da22457ee"
   transform="translate(-148.4,-126.289)">&#10;    <g
   transform="translate(241.504,134.765)"
   id="g6415"><path
   d="M 2.140625,-4 V -6.921875 L 0.375,-6.84375 V -6.375 c 0.609375,0 0.6875,0 0.6875,0.390625 V 0 h 0.46875 l 0.484375,-0.5625 c 0.078125,0.078125 0.5625,0.625 1.453125,0.625 1.484375,0 2.515625,-0.90625 2.515625,-2.28125 0,-1.328125 -0.9375,-2.265625 -2.390625,-2.265625 C 2.875,-4.484375 2.375,-4.203125 2.140625,-4 Z M 2.1875,-0.984375 v -2.5 C 2.46875,-3.84375 2.9375,-4.125 3.484375,-4.125 c 1.21875,0 1.21875,1.203125 1.21875,1.90625 0,0.46875 0,1.015625 -0.25,1.40625 -0.296875,0.40625 -0.75,0.515625 -1.078125,0.515625 -0.6875,0 -1.078125,-0.546875 -1.1875,-0.6875 z m 0,0"
   id="id-7a686054-01e1-4ba2-8fbe-236767f15d4f" />&#10;      </g></g>&#10;  <g
   fill="#000000"
   fill-opacity="1"
   id="id-d56c78a2-3ba7-4e84-9f88-42a67c2ee1b8"
   transform="translate(-148.4,-126.289)">&#10;    <g
   transform="translate(247.869,134.765)"
   id="g1942"><path
   d="m 2.03125,-0.015625 c 0,-0.65625 -0.25,-1.046875 -0.640625,-1.046875 -0.328125,0 -0.53125,0.25 -0.53125,0.53125 C 0.859375,-0.265625 1.0625,0 1.390625,0 1.5,0 1.640625,-0.046875 1.734375,-0.125 1.765625,-0.15625 1.78125,-0.15625 1.78125,-0.15625 c 0.015625,0 0.015625,0 0.015625,0.140625 0,0.75 -0.34375,1.34375 -0.671875,1.671875 -0.109375,0.109375 -0.109375,0.125 -0.109375,0.15625 0,0.078125 0.046875,0.109375 0.09375,0.109375 0.109375,0 0.921875,-0.765625 0.921875,-1.9375 z m 0,0"
   id="id-1c144b93-d669-4690-b6e5-f154f5d780b6" />&#10;      </g></g>&#10;  <g
   fill="#000000"
   fill-opacity="1"
   id="id-a9a3facd-8baa-4516-b9c2-804e0f093806"
   transform="translate(-148.4,-126.289)">&#10;    <g
   transform="translate(252.297,134.765)"
   id="g3334"><path
   d="M 6.40625,-2.734375 H 5.9375 c -0.078125,0.6875 -0.25,2.265625 -2.03125,2.265625 H 2.875 V -6.375 H 4.234375 V -6.84375 C 3.78125,-6.8125 2.703125,-6.8125 2.21875,-6.8125 c -0.4375,0 -1.453125,0 -1.828125,-0.03125 V -6.375 H 1.46875 v 5.90625 H 0.390625 V 0 H 6.09375 Z m 0,0"
   id="id-ee7668e9-2821-4d0c-8bf0-7fd808824990" />&#10;      </g></g>&#10;  <g
   fill="#000000"
   fill-opacity="1"
   id="id-dbf0a0d3-2762-4d2c-b829-50baf5aa3577"
   transform="translate(-148.4,-126.289)">&#10;    <g
   transform="translate(259.188,131.149)"
   id="g1999"><path
   d="m 5.1875,-1.578125 c 0.109375,0 0.28125,0 0.28125,-0.15625 0,-0.1875 -0.171875,-0.1875 -0.28125,-0.1875 H 1.03125 c -0.109375,0 -0.28125,0 -0.28125,0.171875 0,0.171875 0.15625,0.171875 0.28125,0.171875 z m 0,0"
   id="id-ba36b9f0-9db9-4143-8e57-3cfcc68f0be9" />&#10;      </g></g>&#10;  <g
   fill="#000000"
   fill-opacity="1"
   id="id-f4815fa6-5c18-419e-82cc-aab5d271aff9"
   transform="translate(-148.4,-126.289)">&#10;    <g
   transform="translate(265.415,131.149)"
   id="g2710"><path
   d="m 2.328125,-4.4375 c 0,-0.1875 0,-0.1875 -0.203125,-0.1875 -0.453125,0.4375 -1.078125,0.4375 -1.359375,0.4375 v 0.25 c 0.15625,0 0.625,0 1,-0.1875 v 3.546875 c 0,0.234375 0,0.328125 -0.6875,0.328125 H 0.8125 V 0 c 0.125,0 0.984375,-0.03125 1.234375,-0.03125 0.21875,0 1.09375,0.03125 1.25,0.03125 V -0.25 H 3.03125 c -0.703125,0 -0.703125,-0.09375 -0.703125,-0.328125 z m 0,0"
   id="id-908be763-b401-463e-b376-143ad030a76c" />&#10;      </g></g>&#10;  <g
   fill="#000000"
   fill-opacity="1"
   id="id-8646cc69-a620-4c53-ada5-eb0cf37ec9d3"
   transform="translate(-148.4,-126.289)">&#10;    <g
   transform="translate(269.884,126.695)"
   id="g3204"><path
   d="m 3.046875,5.578125 c 0,-1.40625 -0.25,-3.421875 -1.5625,-5.09375 -0.09375,-0.125 -0.75,-0.890625 -0.921875,-0.890625 -0.046875,0 -0.125,0.03125 -0.125,0.109375 0,0.03125 0.015625,0.0625 0.0625,0.09375 C 0.984375,0.3125 1.625,1.125 2.03125,2.71875 2.265625,3.625 2.359375,4.640625 2.359375,5.578125 c 0,1 -0.09375,2.015625 -0.359375,3 -0.375,1.390625 -0.96875,2.1875 -1.46875,2.75 -0.09375,0.09375 -0.09375,0.109375 -0.09375,0.125 0,0.07813 0.078125,0.09375 0.125,0.09375 0.140625,0 0.6875,-0.59375 0.8125,-0.734375 1.015625,-1.21875 1.671875,-3 1.671875,-5.234375 z m 0,0"
   id="id-e914560a-579f-4aab-bf7f-c51b9b0e8a45" />&#10;      </g></g>&#10;</g></g></svg>
