<?xml version="1.0" encoding="utf-8" standalone="no"?>
<!DOCTYPE svg PUBLIC "-//W3C//DTD SVG 1.1//EN"
  "http://www.w3.org/Graphics/SVG/1.1/DTD/svg11.dtd">
<svg xmlns:xlink="http://www.w3.org/1999/xlink" width="216pt" height="216pt" viewBox="0 0 216 216" xmlns="http://www.w3.org/2000/svg" version="1.1">
 <metadata>
  <rdf:RDF xmlns:dc="http://purl.org/dc/elements/1.1/" xmlns:cc="http://creativecommons.org/ns#" xmlns:rdf="http://www.w3.org/1999/02/22-rdf-syntax-ns#">
   <cc:Work>
    <dc:type rdf:resource="http://purl.org/dc/dcmitype/StillImage"/>
    <dc:date>2026-03-17T16:53:24.182168</dc:date>
    <dc:format>image/svg+xml</dc:format>
    <dc:creator>
     <cc:Agent>
      <dc:title>Matplotlib v3.8.0, https://matplotlib.org/</dc:title>
     </cc:Agent>
    </dc:creator>
   </cc:Work>
  </rdf:RDF>
 </metadata>
 <defs>
  <style type="text/css">*{stroke-linejoin: round; stroke-linecap: butt}</style>
 </defs>
 <g id="figure_1">
  <g id="patch_1">
   <path d="M 0 216 
L 216 216 
L 216 0 
L 0 0 
z
" style="fill: #ffffff"/>
  </g>
  <g id="axes_1">
   <g id="patch_2">
    <path d="M 27 192.24 
L 194.4 192.24 
L 194.4 25.92 
L 27 25.92 
z
" style="fill: #eaeaf2"/>
   </g>
   <g id="matplotlib.axis_1">
    <g id="xtick_1">
     <g id="line2d_1">
      <path d="M 34.609091 192.24 
L 34.609091 25.92 
" clip-path="url(#p75fd0471e3)" style="fill: none; stroke: #ffffff; stroke-linecap: round"/>
     </g>
     <g id="text_1">
      <!-- −1.0 -->
      <g style="fill: #262626" transform="translate(23.751747 209.613594) scale(0.11 -0.11)">
       <defs>
        <path id="ArialMT-2212" d="M 3381 1997 
L 356 1997 
L 356 2522 
L 3381 2522 
L 3381 1997 
z
" transform="scale(0.015625)"/>
        <path id="ArialMT-31" d="M 2384 0 
L 1822 0 
L 1822 3584 
Q 1619 3391 1289 3197 
Q 959 3003 697 2906 
L 697 3450 
Q 1169 3672 1522 3987 
Q 1875 4303 2022 4600 
L 2384 4600 
L 2384 0 
z
" transform="scale(0.015625)"/>
        <path id="ArialMT-2e" d="M 581 0 
L 581 641 
L 1222 641 
L 1222 0 
L 581 0 
z
" transform="scale(0.015625)"/>
        <path id="ArialMT-30" d="M 266 2259 
Q 266 3072 433 3567 
Q 600 4063 929 4331 
Q 1259 4600 1759 4600 
Q 2128 4600 2406 4451 
Q 2684 4303 2865 4023 
Q 3047 3744 3150 3342 
Q 3253 2941 3253 2259 
Q 3253 1453 3087 958 
Q 2922 463 2592 192 
Q 2263 -78 1759 -78 
Q 1097 -78 719 397 
Q 266 969 266 2259 
z
M 844 2259 
Q 844 1131 1108 757 
Q 1372 384 1759 384 
Q 2147 384 2411 759 
Q 2675 1134 2675 2259 
Q 2675 3391 2411 3762 
Q 2147 4134 1753 4134 
Q 1366 4134 1134 3806 
Q 844 3388 844 2259 
z
" transform="scale(0.015625)"/>
       </defs>
       <use xlink:href="#ArialMT-2212"/>
       <use xlink:href="#ArialMT-31" x="58.398438"/>
       <use xlink:href="#ArialMT-2e" x="114.013672"/>
       <use xlink:href="#ArialMT-30" x="141.796875"/>
      </g>
     </g>
    </g>
    <g id="xtick_2">
     <g id="line2d_2">
      <path d="M 72.654545 192.24 
L 72.654545 25.92 
" clip-path="url(#p75fd0471e3)" style="fill: none; stroke: #ffffff; stroke-linecap: round"/>
     </g>
     <g id="text_2">
      <!-- −0.5 -->
      <g style="fill: #262626" transform="translate(61.797202 209.613594) scale(0.11 -0.11)">
       <defs>
        <path id="ArialMT-35" d="M 266 1200 
L 856 1250 
Q 922 819 1161 601 
Q 1400 384 1738 384 
Q 2144 384 2425 690 
Q 2706 997 2706 1503 
Q 2706 1984 2436 2262 
Q 2166 2541 1728 2541 
Q 1456 2541 1237 2417 
Q 1019 2294 894 2097 
L 366 2166 
L 809 4519 
L 3088 4519 
L 3088 3981 
L 1259 3981 
L 1013 2750 
Q 1425 3038 1878 3038 
Q 2478 3038 2890 2622 
Q 3303 2206 3303 1553 
Q 3303 931 2941 478 
Q 2500 -78 1738 -78 
Q 1113 -78 717 272 
Q 322 622 266 1200 
z
" transform="scale(0.015625)"/>
       </defs>
       <use xlink:href="#ArialMT-2212"/>
       <use xlink:href="#ArialMT-30" x="58.398438"/>
       <use xlink:href="#ArialMT-2e" x="114.013672"/>
       <use xlink:href="#ArialMT-35" x="141.796875"/>
      </g>
     </g>
    </g>
    <g id="xtick_3">
     <g id="line2d_3">
      <path d="M 110.7 192.24 
L 110.7 25.92 
" clip-path="url(#p75fd0471e3)" style="fill: none; stroke: #ffffff; stroke-linecap: round"/>
     </g>
     <g id="text_3">
      <!-- 0.0 -->
      <g style="fill: #262626" transform="translate(103.055 209.613594) scale(0.11 -0.11)">
       <use xlink:href="#ArialMT-30"/>
       <use xlink:href="#ArialMT-2e" x="55.615234"/>
       <use xlink:href="#ArialMT-30" x="83.398438"/>
      </g>
     </g>
    </g>
    <g id="xtick_4">
     <g id="line2d_4">
      <path d="M 148.745455 192.24 
L 148.745455 25.92 
" clip-path="url(#p75fd0471e3)" style="fill: none; stroke: #ffffff; stroke-linecap: round"/>
     </g>
     <g id="text_4">
      <!-- 0.5 -->
      <g style="fill: #262626" transform="translate(141.100455 209.613594) scale(0.11 -0.11)">
       <use xlink:href="#ArialMT-30"/>
       <use xlink:href="#ArialMT-2e" x="55.615234"/>
       <use xlink:href="#ArialMT-35" x="83.398438"/>
      </g>
     </g>
    </g>
    <g id="xtick_5">
     <g id="line2d_5">
      <path d="M 186.790909 192.24 
L 186.790909 25.92 
" clip-path="url(#p75fd0471e3)" style="fill: none; stroke: #ffffff; stroke-linecap: round"/>
     </g>
     <g id="text_5">
      <!-- 1.0 -->
      <g style="fill: #262626" transform="translate(179.145909 209.613594) scale(0.11 -0.11)">
       <use xlink:href="#ArialMT-31"/>
       <use xlink:href="#ArialMT-2e" x="55.615234"/>
       <use xlink:href="#ArialMT-30" x="83.398438"/>
      </g>
     </g>
    </g>
    <g id="text_6">
     <!-- x -->
     <g style="fill: #262626" transform="translate(107.7 224.389219) scale(0.12 -0.12)">
      <defs>
       <path id="ArialMT-78" d="M 47 0 
L 1259 1725 
L 138 3319 
L 841 3319 
L 1350 2541 
Q 1494 2319 1581 2169 
Q 1719 2375 1834 2534 
L 2394 3319 
L 3066 3319 
L 1919 1756 
L 3153 0 
L 2463 0 
L 1781 1031 
L 1600 1309 
L 728 0 
L 47 0 
z
" transform="scale(0.015625)"/>
      </defs>
      <use xlink:href="#ArialMT-78"/>
     </g>
    </g>
   </g>
   <g id="matplotlib.axis_2">
    <g id="ytick_1">
     <g id="line2d_6">
      <path d="M 27 184.68 
L 194.4 184.68 
" clip-path="url(#p75fd0471e3)" style="fill: none; stroke: #ffffff; stroke-linecap: round"/>
     </g>
     <g id="text_7">
      <!-- −1.0 -->
      <g style="fill: #262626" transform="translate(-4.214688 188.616797) scale(0.11 -0.11)">
       <use xlink:href="#ArialMT-2212"/>
       <use xlink:href="#ArialMT-31" x="58.398438"/>
       <use xlink:href="#ArialMT-2e" x="114.013672"/>
       <use xlink:href="#ArialMT-30" x="141.796875"/>
      </g>
     </g>
    </g>
    <g id="ytick_2">
     <g id="line2d_7">
      <path d="M 27 146.88 
L 194.4 146.88 
" clip-path="url(#p75fd0471e3)" style="fill: none; stroke: #ffffff; stroke-linecap: round"/>
     </g>
     <g id="text_8">
      <!-- −0.5 -->
      <g style="fill: #262626" transform="translate(-4.214688 150.816797) scale(0.11 -0.11)">
       <use xlink:href="#ArialMT-2212"/>
       <use xlink:href="#ArialMT-30" x="58.398438"/>
       <use xlink:href="#ArialMT-2e" x="114.013672"/>
       <use xlink:href="#ArialMT-35" x="141.796875"/>
      </g>
     </g>
    </g>
    <g id="ytick_3">
     <g id="line2d_8">
      <path d="M 27 109.08 
L 194.4 109.08 
" clip-path="url(#p75fd0471e3)" style="fill: none; stroke: #ffffff; stroke-linecap: round"/>
     </g>
     <g id="text_9">
      <!-- 0.0 -->
      <g style="fill: #262626" transform="translate(2.21 113.016797) scale(0.11 -0.11)">
       <use xlink:href="#ArialMT-30"/>
       <use xlink:href="#ArialMT-2e" x="55.615234"/>
       <use xlink:href="#ArialMT-30" x="83.398438"/>
      </g>
     </g>
    </g>
    <g id="ytick_4">
     <g id="line2d_9">
      <path d="M 27 71.28 
L 194.4 71.28 
" clip-path="url(#p75fd0471e3)" style="fill: none; stroke: #ffffff; stroke-linecap: round"/>
     </g>
     <g id="text_10">
      <!-- 0.5 -->
      <g style="fill: #262626" transform="translate(2.21 75.216797) scale(0.11 -0.11)">
       <use xlink:href="#ArialMT-30"/>
       <use xlink:href="#ArialMT-2e" x="55.615234"/>
       <use xlink:href="#ArialMT-35" x="83.398438"/>
      </g>
     </g>
    </g>
    <g id="ytick_5">
     <g id="line2d_10">
      <path d="M 27 33.48 
L 194.4 33.48 
" clip-path="url(#p75fd0471e3)" style="fill: none; stroke: #ffffff; stroke-linecap: round"/>
     </g>
     <g id="text_11">
      <!-- 1.0 -->
      <g style="fill: #262626" transform="translate(2.21 37.416797) scale(0.11 -0.11)">
       <use xlink:href="#ArialMT-31"/>
       <use xlink:href="#ArialMT-2e" x="55.615234"/>
       <use xlink:href="#ArialMT-30" x="83.398438"/>
      </g>
     </g>
    </g>
   </g>
   <g id="line2d_11">
    <path d="M 34.609091 184.68 
L 186.790909 33.48 
L 186.790909 33.48 
" clip-path="url(#p75fd0471e3)" style="fill: none; stroke: #0076c2; stroke-width: 1.5; stroke-linecap: round"/>
   </g>
   <g id="line2d_12">
    <path d="M 34.609091 33.48 
L 39.026781 42.003551 
L 43.292138 49.749589 
L 47.40516 56.769019 
L 51.518182 63.346667 
L 55.47887 69.263156 
L 59.287224 74.565756 
L 63.095577 79.489599 
L 66.751597 83.860153 
L 70.407617 87.881645 
L 73.911302 91.408025 
L 77.414988 94.613826 
L 80.766339 97.380268 
L 84.11769 99.8534 
L 87.316708 101.940504 
L 90.515725 103.760356 
L 93.562408 105.245084 
L 96.609091 106.487407 
L 99.655774 107.487326 
L 102.702457 108.244841 
L 105.596806 108.739952 
L 108.491155 109.016293 
L 111.385504 109.073864 
L 114.279853 108.912665 
L 117.174201 108.532696 
L 120.06855 107.933957 
L 122.962899 107.116447 
L 126.009582 106.019567 
L 129.056265 104.680281 
L 132.102948 103.098592 
L 135.301966 101.176929 
L 138.500983 98.988016 
L 141.7 96.531852 
L 145.051351 93.672084 
L 148.402703 90.519007 
L 151.906388 86.908997 
L 155.410074 82.978407 
L 159.066093 78.535131 
L 162.722113 73.742793 
L 166.530467 68.379591 
L 170.338821 62.637633 
L 174.299509 56.264211 
L 178.412531 49.212056 
L 182.525553 41.718119 
L 186.790909 33.48 
L 186.790909 33.48 
" clip-path="url(#p75fd0471e3)" style="fill: none; stroke: #ec6842; stroke-width: 1.5; stroke-linecap: round"/>
   </g>
   <g id="line2d_13">
    <path d="M 34.609091 184.68 
L 37.655774 175.957673 
L 40.550123 168.318523 
L 43.444472 161.28444 
L 46.338821 154.830459 
L 49.23317 148.931616 
L 51.975184 143.832693 
L 54.717199 139.188377 
L 57.459214 134.977441 
L 60.201229 131.178659 
L 62.943243 127.770803 
L 65.532924 124.892095 
L 68.122604 122.325268 
L 70.712285 120.052441 
L 73.4543 117.946494 
L 76.196314 116.128877 
L 78.938329 114.578364 
L 81.680344 113.273728 
L 84.574693 112.139903 
L 87.621376 111.189372 
L 90.820393 110.428177 
L 94.324079 109.8336 
L 98.132432 109.420626 
L 102.550123 109.172892 
L 108.491155 109.081849 
L 119.916216 108.945667 
L 124.333907 108.645105 
L 128.14226 108.169391 
L 131.493612 107.537187 
L 134.692629 106.709953 
L 137.739312 105.687574 
L 140.633661 104.477403 
L 143.375676 103.093166 
L 146.11769 101.455977 
L 148.707371 99.65835 
L 151.297052 97.59828 
L 153.886732 95.257885 
L 156.476413 92.619283 
L 159.066093 89.664593 
L 161.655774 86.375932 
L 164.245455 82.735418 
L 166.835135 78.725171 
L 169.57715 74.056156 
L 172.319165 68.931355 
L 175.061179 63.329541 
L 177.803194 57.229487 
L 180.697543 50.226558 
L 183.591892 42.619876 
L 186.486241 34.384477 
L 186.790909 33.48 
L 186.790909 33.48 
" clip-path="url(#p75fd0471e3)" style="fill: none; stroke: #a50034; stroke-width: 1.5; stroke-linecap: round"/>
   </g>
   <g id="line2d_14">
    <path d="M 34.609091 33.48 
L 37.046437 42.710929 
L 39.483784 51.069543 
L 41.92113 58.61261 
L 44.206143 64.992363 
L 46.491155 70.747235 
L 48.776167 75.919427 
L 51.061179 80.549664 
L 53.346192 84.677195 
L 55.631204 88.339796 
L 57.916216 91.573764 
L 60.201229 94.413923 
L 62.486241 96.893621 
L 64.771253 99.044729 
L 67.056265 100.897645 
L 69.493612 102.577971 
L 71.930958 103.985155 
L 74.520639 105.216025 
L 77.262654 106.260852 
L 80.157002 107.117375 
L 83.35602 107.819225 
L 86.859705 108.351487 
L 90.972727 108.738446 
L 95.999754 108.974685 
L 103.311794 109.07328 
L 122.810565 109.031488 
L 129.056265 108.823948 
L 133.62629 108.456946 
L 137.434644 107.927905 
L 140.633661 107.269369 
L 143.52801 106.460798 
L 146.270025 105.469832 
L 148.859705 104.297987 
L 151.297052 102.954117 
L 153.734398 101.345119 
L 156.01941 99.566776 
L 158.304423 97.498097 
L 160.589435 95.109079 
L 162.722113 92.562563 
L 164.854791 89.682836 
L 166.987469 86.442024 
L 169.120147 82.811136 
L 171.252826 78.760059 
L 173.537838 73.917833 
L 175.82285 68.517539 
L 178.107862 62.517861 
L 180.392875 55.876008 
L 182.677887 48.547714 
L 184.962899 40.487236 
L 186.790909 33.48 
L 186.790909 33.48 
" clip-path="url(#p75fd0471e3)" style="fill: none; stroke: #009b77; stroke-width: 1.5; stroke-linecap: round"/>
   </g>
   <g id="line2d_15">
    <path d="M 34.609091 184.68 
L 36.741769 174.662883 
L 38.874447 165.736901 
L 41.007125 157.810383 
L 42.987469 151.269382 
L 44.967813 145.450421 
L 46.948157 140.292003 
L 48.928501 135.736224 
L 50.908845 131.728667 
L 52.889189 128.218295 
L 54.869533 125.157341 
L 56.849877 122.501202 
L 58.830221 120.208328 
L 60.810565 118.240113 
L 62.943243 116.442614 
L 65.075921 114.939067 
L 67.360934 113.611643 
L 69.645946 112.536513 
L 72.083292 111.625272 
L 74.825307 110.84116 
L 77.87199 110.210006 
L 81.375676 109.722685 
L 85.488698 109.38188 
L 90.972727 109.168551 
L 99.655774 109.08487 
L 133.321622 108.904419 
L 138.348649 108.601119 
L 142.309337 108.144735 
L 145.660688 107.532047 
L 148.555037 106.776033 
L 151.144717 105.872498 
L 153.582064 104.782298 
L 155.867076 103.508555 
L 157.999754 102.062986 
L 159.980098 100.465784 
L 161.960442 98.59014 
L 163.940786 96.401139 
L 165.92113 93.861061 
L 167.901474 90.929272 
L 169.881818 87.562122 
L 171.862162 83.712826 
L 173.842506 79.331367 
L 175.82285 74.36438 
L 177.803194 68.755045 
L 179.783538 62.44298 
L 181.763882 55.364135 
L 183.744226 47.450678 
L 185.72457 38.630891 
L 186.790909 33.48 
L 186.790909 33.48 
" clip-path="url(#p75fd0471e3)" style="fill: none; stroke: #ffb81c; stroke-width: 1.5; stroke-linecap: round"/>
   </g>
   <g id="line2d_16">
    <path d="M 34.609091 33.48 
L 36.437101 43.743396 
L 38.265111 52.818414 
L 40.09312 60.817783 
L 41.92113 67.846009 
L 43.74914 73.999795 
L 45.57715 79.368433 
L 47.40516 84.034194 
L 49.23317 88.072708 
L 51.061179 91.553329 
L 52.889189 94.539494 
L 54.717199 97.089069 
L 56.545209 99.254685 
L 58.373219 101.084064 
L 60.353563 102.736373 
L 62.333907 104.093783 
L 64.466585 105.27582 
L 66.751597 106.273379 
L 69.188943 107.086997 
L 71.930958 107.757379 
L 74.977641 108.270595 
L 78.633661 108.656531 
L 83.35602 108.917185 
L 90.211057 109.051183 
L 106.967813 109.079999 
L 136.215971 108.972503 
L 142.004668 108.713411 
L 146.11769 108.311141 
L 149.316708 107.788255 
L 152.058722 107.130479 
L 154.496069 106.331246 
L 156.781081 105.35041 
L 158.913759 104.187271 
L 160.894103 102.85067 
L 162.722113 101.359364 
L 164.550123 99.581712 
L 166.378133 97.475321 
L 168.053808 95.215675 
L 169.729484 92.600688 
L 171.40516 89.586995 
L 173.080835 86.127379 
L 174.756511 82.170549 
L 176.432187 77.660907 
L 178.107862 72.538322 
L 179.783538 66.737881 
L 181.611548 59.554719 
L 183.439558 51.38355 
L 185.267568 42.118524 
L 186.790909 33.48 
L 186.790909 33.48 
" clip-path="url(#p75fd0471e3)" style="fill: none; stroke: #e03c31; stroke-width: 1.5; stroke-linecap: round"/>
   </g>
   <g id="line2d_17">
    <path d="M 34.609091 184.68 
L 36.284767 173.768238 
L 37.960442 164.235265 
L 39.636118 155.932728 
L 41.311794 148.725328 
L 42.987469 142.489941 
L 44.663145 137.114774 
L 46.338821 132.498568 
L 48.014496 128.549833 
L 49.690172 125.186122 
L 51.365848 122.333347 
L 53.041523 119.925124 
L 54.717199 117.902156 
L 56.392875 116.211651 
L 58.220885 114.691745 
L 60.048894 113.458395 
L 62.029238 112.39184 
L 64.161916 111.500203 
L 66.446929 110.78136 
L 69.036609 110.195513 
L 72.083292 109.73557 
L 75.891646 109.39694 
L 80.918673 109.186365 
L 89.297052 109.090532 
L 125.55258 109.079184 
L 140.785995 108.96578 
L 146.270025 108.711208 
L 150.078378 108.328382 
L 153.125061 107.813662 
L 155.714742 107.162763 
L 157.999754 106.368531 
L 160.132432 105.387876 
L 162.112776 104.219401 
L 163.940786 102.872688 
L 165.616462 101.369008 
L 167.292138 99.563329 
L 168.967813 97.406706 
L 170.491155 95.09537 
L 172.014496 92.402362 
L 173.537838 89.276543 
L 175.061179 85.661432 
L 176.584521 81.4948 
L 178.107862 76.708243 
L 179.631204 71.226727 
L 181.154545 64.968126 
L 182.830221 57.078816 
L 184.505897 48.009733 
L 186.181572 37.617376 
L 186.790909 33.48 
L 186.790909 33.48 
" clip-path="url(#p75fd0471e3)" style="fill: none; stroke: #6cc24a; stroke-width: 1.5; stroke-linecap: round"/>
   </g>
   <g id="patch_3">
    <path d="M 27 192.24 
L 27 25.92 
" style="fill: none; stroke: #ffffff; stroke-width: 1.25; stroke-linejoin: miter; stroke-linecap: square"/>
   </g>
   <g id="patch_4">
    <path d="M 194.4 192.24 
L 194.4 25.92 
" style="fill: none; stroke: #ffffff; stroke-width: 1.25; stroke-linejoin: miter; stroke-linecap: square"/>
   </g>
   <g id="patch_5">
    <path d="M 27 192.24 
L 194.4 192.24 
" style="fill: none; stroke: #ffffff; stroke-width: 1.25; stroke-linejoin: miter; stroke-linecap: square"/>
   </g>
   <g id="patch_6">
    <path d="M 27 25.92 
L 194.4 25.92 
" style="fill: none; stroke: #ffffff; stroke-width: 1.25; stroke-linejoin: miter; stroke-linecap: square"/>
   </g>
  </g>
 </g>
 <defs>
  <clipPath id="p75fd0471e3">
   <rect x="27" y="25.92" width="167.4" height="166.32"/>
  </clipPath>
 </defs>
</svg>
