<?xml version="1.0" encoding="utf-8" standalone="no"?>
<!DOCTYPE svg PUBLIC "-//W3C//DTD SVG 1.1//EN"
  "http://www.w3.org/Graphics/SVG/1.1/DTD/svg11.dtd">
<svg xmlns:xlink="http://www.w3.org/1999/xlink" width="216pt" height="216pt" viewBox="0 0 216 216" xmlns="http://www.w3.org/2000/svg" version="1.1">
 <metadata>
  <rdf:RDF xmlns:dc="http://purl.org/dc/elements/1.1/" xmlns:cc="http://creativecommons.org/ns#" xmlns:rdf="http://www.w3.org/1999/02/22-rdf-syntax-ns#">
   <cc:Work>
    <dc:type rdf:resource="http://purl.org/dc/dcmitype/StillImage"/>
    <dc:date>2026-03-17T16:53:24.233679</dc:date>
    <dc:format>image/svg+xml</dc:format>
    <dc:creator>
     <cc:Agent>
      <dc:title>Matplotlib v3.8.0, https://matplotlib.org/</dc:title>
     </cc:Agent>
    </dc:creator>
   </cc:Work>
  </rdf:RDF>
 </metadata>
 <defs>
  <style type="text/css">*{stroke-linejoin: round; stroke-linecap: butt}</style>
 </defs>
 <g id="figure_1">
  <g id="patch_1">
   <path d="M 0 216 
L 216 216 
L 216 0 
L 0 0 
z
" style="fill: #ffffff"/>
  </g>
  <g id="axes_1">
   <g id="patch_2">
    <path d="M 27 192.24 
L 194.4 192.24 
L 194.4 25.92 
L 27 25.92 
z
" style="fill: #eaeaf2"/>
   </g>
   <g id="matplotlib.axis_1">
    <g id="xtick_1">
     <g id="line2d_1">
      <path d="M 34.609091 192.24 
L 34.609091 25.92 
" clip-path="url(#p75b6e9a307)" style="fill: none; stroke: #ffffff; stroke-linecap: round"/>
     </g>
     <g id="text_1">
      <!-- −1.0 -->
      <g style="fill: #262626" transform="translate(23.751747 209.613594) scale(0.11 -0.11)">
       <defs>
        <path id="ArialMT-2212" d="M 3381 1997 
L 356 1997 
L 356 2522 
L 3381 2522 
L 3381 1997 
z
" transform="scale(0.015625)"/>
        <path id="ArialMT-31" d="M 2384 0 
L 1822 0 
L 1822 3584 
Q 1619 3391 1289 3197 
Q 959 3003 697 2906 
L 697 3450 
Q 1169 3672 1522 3987 
Q 1875 4303 2022 4600 
L 2384 4600 
L 2384 0 
z
" transform="scale(0.015625)"/>
        <path id="ArialMT-2e" d="M 581 0 
L 581 641 
L 1222 641 
L 1222 0 
L 581 0 
z
" transform="scale(0.015625)"/>
        <path id="ArialMT-30" d="M 266 2259 
Q 266 3072 433 3567 
Q 600 4063 929 4331 
Q 1259 4600 1759 4600 
Q 2128 4600 2406 4451 
Q 2684 4303 2865 4023 
Q 3047 3744 3150 3342 
Q 3253 2941 3253 2259 
Q 3253 1453 3087 958 
Q 2922 463 2592 192 
Q 2263 -78 1759 -78 
Q 1097 -78 719 397 
Q 266 969 266 2259 
z
M 844 2259 
Q 844 1131 1108 757 
Q 1372 384 1759 384 
Q 2147 384 2411 759 
Q 2675 1134 2675 2259 
Q 2675 3391 2411 3762 
Q 2147 4134 1753 4134 
Q 1366 4134 1134 3806 
Q 844 3388 844 2259 
z
" transform="scale(0.015625)"/>
       </defs>
       <use xlink:href="#ArialMT-2212"/>
       <use xlink:href="#ArialMT-31" x="58.398438"/>
       <use xlink:href="#ArialMT-2e" x="114.013672"/>
       <use xlink:href="#ArialMT-30" x="141.796875"/>
      </g>
     </g>
    </g>
    <g id="xtick_2">
     <g id="line2d_2">
      <path d="M 72.654545 192.24 
L 72.654545 25.92 
" clip-path="url(#p75b6e9a307)" style="fill: none; stroke: #ffffff; stroke-linecap: round"/>
     </g>
     <g id="text_2">
      <!-- −0.5 -->
      <g style="fill: #262626" transform="translate(61.797202 209.613594) scale(0.11 -0.11)">
       <defs>
        <path id="ArialMT-35" d="M 266 1200 
L 856 1250 
Q 922 819 1161 601 
Q 1400 384 1738 384 
Q 2144 384 2425 690 
Q 2706 997 2706 1503 
Q 2706 1984 2436 2262 
Q 2166 2541 1728 2541 
Q 1456 2541 1237 2417 
Q 1019 2294 894 2097 
L 366 2166 
L 809 4519 
L 3088 4519 
L 3088 3981 
L 1259 3981 
L 1013 2750 
Q 1425 3038 1878 3038 
Q 2478 3038 2890 2622 
Q 3303 2206 3303 1553 
Q 3303 931 2941 478 
Q 2500 -78 1738 -78 
Q 1113 -78 717 272 
Q 322 622 266 1200 
z
" transform="scale(0.015625)"/>
       </defs>
       <use xlink:href="#ArialMT-2212"/>
       <use xlink:href="#ArialMT-30" x="58.398438"/>
       <use xlink:href="#ArialMT-2e" x="114.013672"/>
       <use xlink:href="#ArialMT-35" x="141.796875"/>
      </g>
     </g>
    </g>
    <g id="xtick_3">
     <g id="line2d_3">
      <path d="M 110.7 192.24 
L 110.7 25.92 
" clip-path="url(#p75b6e9a307)" style="fill: none; stroke: #ffffff; stroke-linecap: round"/>
     </g>
     <g id="text_3">
      <!-- 0.0 -->
      <g style="fill: #262626" transform="translate(103.055 209.613594) scale(0.11 -0.11)">
       <use xlink:href="#ArialMT-30"/>
       <use xlink:href="#ArialMT-2e" x="55.615234"/>
       <use xlink:href="#ArialMT-30" x="83.398438"/>
      </g>
     </g>
    </g>
    <g id="xtick_4">
     <g id="line2d_4">
      <path d="M 148.745455 192.24 
L 148.745455 25.92 
" clip-path="url(#p75b6e9a307)" style="fill: none; stroke: #ffffff; stroke-linecap: round"/>
     </g>
     <g id="text_4">
      <!-- 0.5 -->
      <g style="fill: #262626" transform="translate(141.100455 209.613594) scale(0.11 -0.11)">
       <use xlink:href="#ArialMT-30"/>
       <use xlink:href="#ArialMT-2e" x="55.615234"/>
       <use xlink:href="#ArialMT-35" x="83.398438"/>
      </g>
     </g>
    </g>
    <g id="xtick_5">
     <g id="line2d_5">
      <path d="M 186.790909 192.24 
L 186.790909 25.92 
" clip-path="url(#p75b6e9a307)" style="fill: none; stroke: #ffffff; stroke-linecap: round"/>
     </g>
     <g id="text_5">
      <!-- 1.0 -->
      <g style="fill: #262626" transform="translate(179.145909 209.613594) scale(0.11 -0.11)">
       <use xlink:href="#ArialMT-31"/>
       <use xlink:href="#ArialMT-2e" x="55.615234"/>
       <use xlink:href="#ArialMT-30" x="83.398438"/>
      </g>
     </g>
    </g>
    <g id="text_6">
     <!-- x -->
     <g style="fill: #262626" transform="translate(107.7 224.389219) scale(0.12 -0.12)">
      <defs>
       <path id="ArialMT-78" d="M 47 0 
L 1259 1725 
L 138 3319 
L 841 3319 
L 1350 2541 
Q 1494 2319 1581 2169 
Q 1719 2375 1834 2534 
L 2394 3319 
L 3066 3319 
L 1919 1756 
L 3153 0 
L 2463 0 
L 1781 1031 
L 1600 1309 
L 728 0 
L 47 0 
z
" transform="scale(0.015625)"/>
      </defs>
      <use xlink:href="#ArialMT-78"/>
     </g>
    </g>
   </g>
   <g id="matplotlib.axis_2">
    <g id="ytick_1">
     <g id="line2d_6">
      <path d="M 27 184.68 
L 194.4 184.68 
" clip-path="url(#p75b6e9a307)" style="fill: none; stroke: #ffffff; stroke-linecap: round"/>
     </g>
     <g id="text_7">
      <!-- 0.0 -->
      <g style="fill: #262626" transform="translate(2.21 188.616797) scale(0.11 -0.11)">
       <use xlink:href="#ArialMT-30"/>
       <use xlink:href="#ArialMT-2e" x="55.615234"/>
       <use xlink:href="#ArialMT-30" x="83.398438"/>
      </g>
     </g>
    </g>
    <g id="ytick_2">
     <g id="line2d_7">
      <path d="M 27 154.44 
L 194.4 154.44 
" clip-path="url(#p75b6e9a307)" style="fill: none; stroke: #ffffff; stroke-linecap: round"/>
     </g>
     <g id="text_8">
      <!-- 0.2 -->
      <g style="fill: #262626" transform="translate(2.21 158.376797) scale(0.11 -0.11)">
       <defs>
        <path id="ArialMT-32" d="M 3222 541 
L 3222 0 
L 194 0 
Q 188 203 259 391 
Q 375 700 629 1000 
Q 884 1300 1366 1694 
Q 2113 2306 2375 2664 
Q 2638 3022 2638 3341 
Q 2638 3675 2398 3904 
Q 2159 4134 1775 4134 
Q 1369 4134 1125 3890 
Q 881 3647 878 3216 
L 300 3275 
Q 359 3922 746 4261 
Q 1134 4600 1788 4600 
Q 2447 4600 2831 4234 
Q 3216 3869 3216 3328 
Q 3216 3053 3103 2787 
Q 2991 2522 2730 2228 
Q 2469 1934 1863 1422 
Q 1356 997 1212 845 
Q 1069 694 975 541 
L 3222 541 
z
" transform="scale(0.015625)"/>
       </defs>
       <use xlink:href="#ArialMT-30"/>
       <use xlink:href="#ArialMT-2e" x="55.615234"/>
       <use xlink:href="#ArialMT-32" x="83.398438"/>
      </g>
     </g>
    </g>
    <g id="ytick_3">
     <g id="line2d_8">
      <path d="M 27 124.2 
L 194.4 124.2 
" clip-path="url(#p75b6e9a307)" style="fill: none; stroke: #ffffff; stroke-linecap: round"/>
     </g>
     <g id="text_9">
      <!-- 0.4 -->
      <g style="fill: #262626" transform="translate(2.21 128.136797) scale(0.11 -0.11)">
       <defs>
        <path id="ArialMT-34" d="M 2069 0 
L 2069 1097 
L 81 1097 
L 81 1613 
L 2172 4581 
L 2631 4581 
L 2631 1613 
L 3250 1613 
L 3250 1097 
L 2631 1097 
L 2631 0 
L 2069 0 
z
M 2069 1613 
L 2069 3678 
L 634 1613 
L 2069 1613 
z
" transform="scale(0.015625)"/>
       </defs>
       <use xlink:href="#ArialMT-30"/>
       <use xlink:href="#ArialMT-2e" x="55.615234"/>
       <use xlink:href="#ArialMT-34" x="83.398438"/>
      </g>
     </g>
    </g>
    <g id="ytick_4">
     <g id="line2d_9">
      <path d="M 27 93.96 
L 194.4 93.96 
" clip-path="url(#p75b6e9a307)" style="fill: none; stroke: #ffffff; stroke-linecap: round"/>
     </g>
     <g id="text_10">
      <!-- 0.6 -->
      <g style="fill: #262626" transform="translate(2.21 97.896797) scale(0.11 -0.11)">
       <defs>
        <path id="ArialMT-36" d="M 3184 3459 
L 2625 3416 
Q 2550 3747 2413 3897 
Q 2184 4138 1850 4138 
Q 1581 4138 1378 3988 
Q 1113 3794 959 3422 
Q 806 3050 800 2363 
Q 1003 2672 1297 2822 
Q 1591 2972 1913 2972 
Q 2475 2972 2870 2558 
Q 3266 2144 3266 1488 
Q 3266 1056 3080 686 
Q 2894 316 2569 119 
Q 2244 -78 1831 -78 
Q 1128 -78 684 439 
Q 241 956 241 2144 
Q 241 3472 731 4075 
Q 1159 4600 1884 4600 
Q 2425 4600 2770 4297 
Q 3116 3994 3184 3459 
z
M 888 1484 
Q 888 1194 1011 928 
Q 1134 663 1356 523 
Q 1578 384 1822 384 
Q 2178 384 2434 671 
Q 2691 959 2691 1453 
Q 2691 1928 2437 2201 
Q 2184 2475 1800 2475 
Q 1419 2475 1153 2201 
Q 888 1928 888 1484 
z
" transform="scale(0.015625)"/>
       </defs>
       <use xlink:href="#ArialMT-30"/>
       <use xlink:href="#ArialMT-2e" x="55.615234"/>
       <use xlink:href="#ArialMT-36" x="83.398438"/>
      </g>
     </g>
    </g>
    <g id="ytick_5">
     <g id="line2d_10">
      <path d="M 27 63.72 
L 194.4 63.72 
" clip-path="url(#p75b6e9a307)" style="fill: none; stroke: #ffffff; stroke-linecap: round"/>
     </g>
     <g id="text_11">
      <!-- 0.8 -->
      <g style="fill: #262626" transform="translate(2.21 67.656797) scale(0.11 -0.11)">
       <defs>
        <path id="ArialMT-38" d="M 1131 2484 
Q 781 2613 612 2850 
Q 444 3088 444 3419 
Q 444 3919 803 4259 
Q 1163 4600 1759 4600 
Q 2359 4600 2725 4251 
Q 3091 3903 3091 3403 
Q 3091 3084 2923 2848 
Q 2756 2613 2416 2484 
Q 2838 2347 3058 2040 
Q 3278 1734 3278 1309 
Q 3278 722 2862 322 
Q 2447 -78 1769 -78 
Q 1091 -78 675 323 
Q 259 725 259 1325 
Q 259 1772 486 2073 
Q 713 2375 1131 2484 
z
M 1019 3438 
Q 1019 3113 1228 2906 
Q 1438 2700 1772 2700 
Q 2097 2700 2305 2904 
Q 2513 3109 2513 3406 
Q 2513 3716 2298 3927 
Q 2084 4138 1766 4138 
Q 1444 4138 1231 3931 
Q 1019 3725 1019 3438 
z
M 838 1322 
Q 838 1081 952 856 
Q 1066 631 1291 507 
Q 1516 384 1775 384 
Q 2178 384 2440 643 
Q 2703 903 2703 1303 
Q 2703 1709 2433 1975 
Q 2163 2241 1756 2241 
Q 1359 2241 1098 1978 
Q 838 1716 838 1322 
z
" transform="scale(0.015625)"/>
       </defs>
       <use xlink:href="#ArialMT-30"/>
       <use xlink:href="#ArialMT-2e" x="55.615234"/>
       <use xlink:href="#ArialMT-38" x="83.398438"/>
      </g>
     </g>
    </g>
    <g id="ytick_6">
     <g id="line2d_11">
      <path d="M 27 33.48 
L 194.4 33.48 
" clip-path="url(#p75b6e9a307)" style="fill: none; stroke: #ffffff; stroke-linecap: round"/>
     </g>
     <g id="text_12">
      <!-- 1.0 -->
      <g style="fill: #262626" transform="translate(2.21 37.416797) scale(0.11 -0.11)">
       <use xlink:href="#ArialMT-31"/>
       <use xlink:href="#ArialMT-2e" x="55.615234"/>
       <use xlink:href="#ArialMT-30" x="83.398438"/>
      </g>
     </g>
    </g>
   </g>
   <g id="line2d_12">
    <path d="M 34.609091 33.48 
L 35.218428 33.601154 
L 35.827764 33.964033 
L 36.437101 34.566895 
L 37.198771 35.653444 
L 38.112776 37.434614 
L 39.026781 39.718348 
L 40.09312 42.985452 
L 41.311794 47.456694 
L 42.682801 53.32913 
L 44.358477 61.531216 
L 46.491155 73.205691 
L 49.842506 93.064363 
L 54.107862 118.142706 
L 56.545209 131.177587 
L 58.677887 141.390794 
L 60.505897 149.138212 
L 62.333907 155.917108 
L 64.009582 161.287324 
L 65.685258 165.884159 
L 67.2086 169.435527 
L 68.731941 172.439155 
L 70.255283 174.948971 
L 71.778624 177.02131 
L 73.301966 178.712416 
L 74.825307 180.07647 
L 76.500983 181.259524 
L 78.176658 182.169175 
L 80.004668 182.9126 
L 82.137346 183.527822 
L 84.574693 183.990212 
L 87.621376 184.329616 
L 91.734398 184.548234 
L 98.589435 184.658052 
L 120.830221 184.679984 
L 186.790909 184.68 
L 186.790909 184.68 
" clip-path="url(#p75b6e9a307)" style="fill: none; stroke: #0076c2; stroke-width: 1.5; stroke-linecap: round"/>
   </g>
   <g id="line2d_13">
    <path d="M 34.609091 146.977946 
L 36.437101 138.952478 
L 38.417445 129.229777 
L 40.702457 116.857884 
L 43.74914 99.02265 
L 49.080835 67.644305 
L 51.213514 56.560959 
L 52.889189 49.003359 
L 54.260197 43.76595 
L 55.47887 39.930624 
L 56.545209 37.266692 
L 57.459214 35.528331 
L 58.220885 34.478501 
L 58.982555 33.799711 
L 59.591892 33.527337 
L 60.201229 33.497043 
L 60.810565 33.708975 
L 61.419902 34.162113 
L 62.181572 35.064315 
L 62.943243 36.333184 
L 63.857248 38.326366 
L 64.923587 41.273224 
L 66.14226 45.408301 
L 67.513268 50.94696 
L 69.036609 58.054184 
L 71.016953 68.485612 
L 73.606634 83.460772 
L 80.157002 121.937898 
L 82.442015 133.843629 
L 84.422359 143.083706 
L 86.250369 150.630653 
L 87.926044 156.696398 
L 89.60172 161.958713 
L 91.125061 166.075515 
L 92.648403 169.598286 
L 94.171744 172.575911 
L 95.695086 175.062507 
L 97.218428 177.114458 
L 98.741769 178.787949 
L 100.265111 180.137014 
L 101.940786 181.306369 
L 103.616462 182.204926 
L 105.444472 182.938812 
L 107.57715 183.545706 
L 110.014496 184.001463 
L 113.061179 184.335676 
L 117.174201 184.550688 
L 124.029238 184.658509 
L 146.727027 184.679987 
L 186.790909 184.68 
L 186.790909 184.68 
" clip-path="url(#p75b6e9a307)" style="fill: none; stroke: #ec6842; stroke-width: 1.5; stroke-linecap: round"/>
   </g>
   <g id="line2d_14">
    <path d="M 34.609091 184.095473 
L 37.351106 183.631442 
L 39.636118 183.015392 
L 41.616462 182.240229 
L 43.292138 181.352656 
L 44.815479 180.314568 
L 46.338821 179.009711 
L 47.862162 177.388256 
L 49.23317 175.614027 
L 50.604177 173.499209 
L 51.975184 171.002527 
L 53.498526 167.731509 
L 55.021867 163.887602 
L 56.545209 159.426216 
L 58.220885 153.765346 
L 59.89656 147.291605 
L 61.72457 139.305632 
L 63.704914 129.622173 
L 65.989926 117.287203 
L 69.036609 99.479539 
L 74.520639 67.225784 
L 76.500983 56.931108 
L 78.176658 49.320767 
L 79.547666 44.032207 
L 80.766339 40.146209 
L 81.832678 37.434614 
L 82.746683 35.653444 
L 83.508354 34.566895 
L 84.270025 33.850727 
L 84.879361 33.548161 
L 85.488698 33.487575 
L 86.098034 33.66926 
L 86.707371 34.092343 
L 87.469042 34.957462 
L 88.230713 36.190045 
L 89.144717 38.141108 
L 90.211057 41.04133 
L 91.42973 45.127172 
L 92.800737 50.616576 
L 94.324079 57.677745 
L 96.152088 67.225784 
L 98.589435 81.198234 
L 106.053808 124.823437 
L 108.338821 136.436074 
L 110.319165 145.384507 
L 112.147174 152.649095 
L 113.82285 158.456622 
L 115.498526 163.469907 
L 117.021867 167.373701 
L 118.545209 170.699774 
L 120.06855 173.499209 
L 121.591892 175.827229 
L 123.115233 177.740402 
L 124.638575 179.294355 
L 126.161916 180.54201 
L 127.837592 181.618951 
L 129.665602 182.507078 
L 131.645946 183.205162 
L 133.930958 183.756549 
L 136.672973 184.168916 
L 140.176658 184.451078 
L 145.35602 184.616629 
L 155.867076 184.676725 
L 186.790909 184.68 
L 186.790909 184.68 
" clip-path="url(#p75b6e9a307)" style="fill: none; stroke: #a50034; stroke-width: 1.5; stroke-linecap: round"/>
   </g>
   <g id="line2d_15">
    <path d="M 34.609091 184.679437 
L 52.889189 184.568845 
L 57.763882 184.323458 
L 60.962899 183.955436 
L 63.55258 183.434549 
L 65.685258 182.776212 
L 67.513268 181.983535 
L 69.188943 181.016737 
L 70.712285 179.890673 
L 72.235627 178.48089 
L 73.758968 176.736123 
L 75.129975 174.834342 
L 76.500983 172.575911 
L 77.87199 169.919717 
L 79.395332 166.453773 
L 80.918673 162.398356 
L 82.442015 157.712167 
L 84.11769 151.794186 
L 85.793366 145.060805 
L 87.621376 136.800268 
L 89.754054 126.041147 
L 92.1914 112.510861 
L 95.999754 89.852605 
L 99.655774 68.485612 
L 101.788452 57.303378 
L 103.464128 49.640814 
L 104.835135 44.301476 
L 106.053808 40.365088 
L 107.120147 37.60603 
L 108.034152 35.782181 
L 108.795823 34.658995 
L 109.557494 33.905502 
L 110.16683 33.572767 
L 110.776167 33.481894 
L 111.385504 33.633319 
L 111.99484 34.026315 
L 112.604177 34.658995 
L 113.365848 35.782181 
L 114.279853 37.60603 
L 115.193857 39.930624 
L 116.260197 43.242554 
L 117.47887 47.760571 
L 118.849877 53.679085 
L 120.525553 61.926987 
L 122.658231 73.641853 
L 126.009582 93.523353 
L 130.274939 118.56886 
L 132.712285 131.562853 
L 134.844963 141.732649 
L 136.672973 149.440079 
L 138.500983 156.178539 
L 140.176658 161.512716 
L 141.852334 166.075515 
L 143.375676 169.598286 
L 144.899017 172.575911 
L 146.422359 175.062507 
L 147.9457 177.114458 
L 149.469042 178.787949 
L 150.992383 180.137014 
L 152.668059 181.306369 
L 154.343735 182.204926 
L 156.171744 182.938812 
L 158.304423 183.545706 
L 160.741769 184.001463 
L 163.788452 184.335676 
L 167.901474 184.550688 
L 174.756511 184.658509 
L 186.790909 184.679437 
L 186.790909 184.679437 
" clip-path="url(#p75b6e9a307)" style="fill: none; stroke: #009b77; stroke-width: 1.5; stroke-linecap: round"/>
   </g>
   <g id="line2d_16">
    <path d="M 34.609091 184.68 
L 78.176658 184.57094 
L 83.051351 184.329616 
L 86.250369 183.967201 
L 88.840049 183.453728 
L 90.972727 182.804212 
L 92.800737 182.021597 
L 94.476413 181.066455 
L 95.999754 179.953305 
L 97.523096 178.558893 
L 99.046437 176.832149 
L 100.417445 174.948971 
L 101.788452 172.711438 
L 103.159459 170.078404 
L 104.682801 166.640686 
L 106.206143 162.615806 
L 107.729484 157.961969 
L 109.40516 152.080845 
L 111.080835 145.384507 
L 112.908845 137.162903 
L 114.889189 127.247034 
L 117.326536 113.824805 
L 120.830221 93.064363 
L 124.943243 68.908345 
L 127.075921 57.677745 
L 128.751597 49.96348 
L 130.122604 44.57374 
L 131.341278 40.587246 
L 132.407617 37.780926 
L 133.321622 35.914534 
L 134.235627 34.566895 
L 134.997297 33.850727 
L 135.606634 33.548161 
L 136.215971 33.487575 
L 136.825307 33.66926 
L 137.434644 34.092343 
L 138.196314 34.957462 
L 138.957985 36.190045 
L 139.87199 38.141108 
L 140.938329 41.04133 
L 142.157002 45.127172 
L 143.52801 50.616576 
L 145.051351 57.677745 
L 146.879361 67.225784 
L 149.316708 81.198234 
L 156.781081 124.823437 
L 159.066093 136.436074 
L 161.046437 145.384507 
L 162.874447 152.649095 
L 164.550123 158.456622 
L 166.225799 163.469907 
L 167.74914 167.373701 
L 169.272482 170.699774 
L 170.795823 173.499209 
L 172.319165 175.827229 
L 173.842506 177.740402 
L 175.365848 179.294355 
L 176.889189 180.54201 
L 178.564865 181.618951 
L 180.392875 182.507078 
L 182.373219 183.205162 
L 184.658231 183.756549 
L 186.790909 184.095473 
L 186.790909 184.095473 
" clip-path="url(#p75b6e9a307)" style="fill: none; stroke: #ffb81c; stroke-width: 1.5; stroke-linecap: round"/>
   </g>
   <g id="line2d_17">
    <path d="M 34.609091 184.68 
L 103.464128 184.572998 
L 108.338821 184.335676 
L 111.690172 183.955436 
L 114.279853 183.434549 
L 116.412531 182.776212 
L 118.240541 181.983535 
L 119.916216 181.016737 
L 121.439558 179.890673 
L 122.962899 178.48089 
L 124.486241 176.736123 
L 125.857248 174.834342 
L 127.228256 172.575911 
L 128.599263 169.919717 
L 130.122604 166.453773 
L 131.645946 162.398356 
L 133.169287 157.712167 
L 134.844963 151.794186 
L 136.520639 145.060805 
L 138.348649 136.800268 
L 140.481327 126.041147 
L 142.918673 112.510861 
L 146.727027 89.852605 
L 150.383047 68.485612 
L 152.515725 57.303378 
L 154.1914 49.640814 
L 155.562408 44.301476 
L 156.781081 40.365088 
L 157.84742 37.60603 
L 158.761425 35.782181 
L 159.523096 34.658995 
L 160.284767 33.905502 
L 160.894103 33.572767 
L 161.50344 33.481894 
L 162.112776 33.633319 
L 162.722113 34.026315 
L 163.33145 34.658995 
L 164.09312 35.782181 
L 165.007125 37.60603 
L 165.92113 39.930624 
L 166.987469 43.242554 
L 168.206143 47.760571 
L 169.57715 53.679085 
L 171.252826 61.926987 
L 173.385504 73.641853 
L 176.736855 93.523353 
L 181.002211 118.56886 
L 183.439558 131.562853 
L 185.572236 141.732649 
L 186.790909 146.977946 
L 186.790909 146.977946 
" clip-path="url(#p75b6e9a307)" style="fill: none; stroke: #e03c31; stroke-width: 1.5; stroke-linecap: round"/>
   </g>
   <g id="line2d_18">
    <path d="M 34.609091 184.68 
L 128.903931 184.57094 
L 133.778624 184.329616 
L 136.977641 183.967201 
L 139.567322 183.453728 
L 141.7 182.804212 
L 143.52801 182.021597 
L 145.203686 181.066455 
L 146.727027 179.953305 
L 148.250369 178.558893 
L 149.77371 176.832149 
L 151.144717 174.948971 
L 152.515725 172.711438 
L 153.886732 170.078404 
L 155.410074 166.640686 
L 156.933415 162.615806 
L 158.456757 157.961969 
L 160.132432 152.080845 
L 161.808108 145.384507 
L 163.636118 137.162903 
L 165.616462 127.247034 
L 168.053808 113.824805 
L 171.557494 93.064363 
L 175.670516 68.908345 
L 177.803194 57.677745 
L 179.47887 49.96348 
L 180.849877 44.57374 
L 182.06855 40.587246 
L 183.134889 37.780926 
L 184.048894 35.914534 
L 184.962899 34.566895 
L 185.72457 33.850727 
L 186.333907 33.548161 
L 186.790909 33.48 
L 186.790909 33.48 
" clip-path="url(#p75b6e9a307)" style="fill: none; stroke: #6cc24a; stroke-width: 1.5; stroke-linecap: round"/>
   </g>
   <g id="patch_3">
    <path d="M 27 192.24 
L 27 25.92 
" style="fill: none; stroke: #ffffff; stroke-width: 1.25; stroke-linejoin: miter; stroke-linecap: square"/>
   </g>
   <g id="patch_4">
    <path d="M 194.4 192.24 
L 194.4 25.92 
" style="fill: none; stroke: #ffffff; stroke-width: 1.25; stroke-linejoin: miter; stroke-linecap: square"/>
   </g>
   <g id="patch_5">
    <path d="M 27 192.24 
L 194.4 192.24 
" style="fill: none; stroke: #ffffff; stroke-width: 1.25; stroke-linejoin: miter; stroke-linecap: square"/>
   </g>
   <g id="patch_6">
    <path d="M 27 25.92 
L 194.4 25.92 
" style="fill: none; stroke: #ffffff; stroke-width: 1.25; stroke-linejoin: miter; stroke-linecap: square"/>
   </g>
  </g>
 </g>
 <defs>
  <clipPath id="p75b6e9a307">
   <rect x="27" y="25.92" width="167.4" height="166.32"/>
  </clipPath>
 </defs>
</svg>
