<?xml version="1.0" encoding="utf-8" standalone="no"?>
<!DOCTYPE svg PUBLIC "-//W3C//DTD SVG 1.1//EN"
  "http://www.w3.org/Graphics/SVG/1.1/DTD/svg11.dtd">
<svg xmlns:xlink="http://www.w3.org/1999/xlink" width="216pt" height="216pt" viewBox="0 0 216 216" xmlns="http://www.w3.org/2000/svg" version="1.1">
 <metadata>
  <rdf:RDF xmlns:dc="http://purl.org/dc/elements/1.1/" xmlns:cc="http://creativecommons.org/ns#" xmlns:rdf="http://www.w3.org/1999/02/22-rdf-syntax-ns#">
   <cc:Work>
    <dc:type rdf:resource="http://purl.org/dc/dcmitype/StillImage"/>
    <dc:date>2026-03-17T16:53:24.283372</dc:date>
    <dc:format>image/svg+xml</dc:format>
    <dc:creator>
     <cc:Agent>
      <dc:title>Matplotlib v3.8.0, https://matplotlib.org/</dc:title>
     </cc:Agent>
    </dc:creator>
   </cc:Work>
  </rdf:RDF>
 </metadata>
 <defs>
  <style type="text/css">*{stroke-linejoin: round; stroke-linecap: butt}</style>
 </defs>
 <g id="figure_1">
  <g id="patch_1">
   <path d="M 0 216 
L 216 216 
L 216 0 
L 0 0 
z
" style="fill: #ffffff"/>
  </g>
  <g id="axes_1">
   <g id="patch_2">
    <path d="M 27 192.24 
L 194.4 192.24 
L 194.4 25.92 
L 27 25.92 
z
" style="fill: #eaeaf2"/>
   </g>
   <g id="matplotlib.axis_1">
    <g id="xtick_1">
     <g id="line2d_1">
      <path d="M 34.609091 192.24 
L 34.609091 25.92 
" clip-path="url(#p2bcb5b7825)" style="fill: none; stroke: #ffffff; stroke-linecap: round"/>
     </g>
     <g id="text_1">
      <!-- −1.0 -->
      <g style="fill: #262626" transform="translate(23.751747 209.613594) scale(0.11 -0.11)">
       <defs>
        <path id="ArialMT-2212" d="M 3381 1997 
L 356 1997 
L 356 2522 
L 3381 2522 
L 3381 1997 
z
" transform="scale(0.015625)"/>
        <path id="ArialMT-31" d="M 2384 0 
L 1822 0 
L 1822 3584 
Q 1619 3391 1289 3197 
Q 959 3003 697 2906 
L 697 3450 
Q 1169 3672 1522 3987 
Q 1875 4303 2022 4600 
L 2384 4600 
L 2384 0 
z
" transform="scale(0.015625)"/>
        <path id="ArialMT-2e" d="M 581 0 
L 581 641 
L 1222 641 
L 1222 0 
L 581 0 
z
" transform="scale(0.015625)"/>
        <path id="ArialMT-30" d="M 266 2259 
Q 266 3072 433 3567 
Q 600 4063 929 4331 
Q 1259 4600 1759 4600 
Q 2128 4600 2406 4451 
Q 2684 4303 2865 4023 
Q 3047 3744 3150 3342 
Q 3253 2941 3253 2259 
Q 3253 1453 3087 958 
Q 2922 463 2592 192 
Q 2263 -78 1759 -78 
Q 1097 -78 719 397 
Q 266 969 266 2259 
z
M 844 2259 
Q 844 1131 1108 757 
Q 1372 384 1759 384 
Q 2147 384 2411 759 
Q 2675 1134 2675 2259 
Q 2675 3391 2411 3762 
Q 2147 4134 1753 4134 
Q 1366 4134 1134 3806 
Q 844 3388 844 2259 
z
" transform="scale(0.015625)"/>
       </defs>
       <use xlink:href="#ArialMT-2212"/>
       <use xlink:href="#ArialMT-31" x="58.398438"/>
       <use xlink:href="#ArialMT-2e" x="114.013672"/>
       <use xlink:href="#ArialMT-30" x="141.796875"/>
      </g>
     </g>
    </g>
    <g id="xtick_2">
     <g id="line2d_2">
      <path d="M 72.654545 192.24 
L 72.654545 25.92 
" clip-path="url(#p2bcb5b7825)" style="fill: none; stroke: #ffffff; stroke-linecap: round"/>
     </g>
     <g id="text_2">
      <!-- −0.5 -->
      <g style="fill: #262626" transform="translate(61.797202 209.613594) scale(0.11 -0.11)">
       <defs>
        <path id="ArialMT-35" d="M 266 1200 
L 856 1250 
Q 922 819 1161 601 
Q 1400 384 1738 384 
Q 2144 384 2425 690 
Q 2706 997 2706 1503 
Q 2706 1984 2436 2262 
Q 2166 2541 1728 2541 
Q 1456 2541 1237 2417 
Q 1019 2294 894 2097 
L 366 2166 
L 809 4519 
L 3088 4519 
L 3088 3981 
L 1259 3981 
L 1013 2750 
Q 1425 3038 1878 3038 
Q 2478 3038 2890 2622 
Q 3303 2206 3303 1553 
Q 3303 931 2941 478 
Q 2500 -78 1738 -78 
Q 1113 -78 717 272 
Q 322 622 266 1200 
z
" transform="scale(0.015625)"/>
       </defs>
       <use xlink:href="#ArialMT-2212"/>
       <use xlink:href="#ArialMT-30" x="58.398438"/>
       <use xlink:href="#ArialMT-2e" x="114.013672"/>
       <use xlink:href="#ArialMT-35" x="141.796875"/>
      </g>
     </g>
    </g>
    <g id="xtick_3">
     <g id="line2d_3">
      <path d="M 110.7 192.24 
L 110.7 25.92 
" clip-path="url(#p2bcb5b7825)" style="fill: none; stroke: #ffffff; stroke-linecap: round"/>
     </g>
     <g id="text_3">
      <!-- 0.0 -->
      <g style="fill: #262626" transform="translate(103.055 209.613594) scale(0.11 -0.11)">
       <use xlink:href="#ArialMT-30"/>
       <use xlink:href="#ArialMT-2e" x="55.615234"/>
       <use xlink:href="#ArialMT-30" x="83.398438"/>
      </g>
     </g>
    </g>
    <g id="xtick_4">
     <g id="line2d_4">
      <path d="M 148.745455 192.24 
L 148.745455 25.92 
" clip-path="url(#p2bcb5b7825)" style="fill: none; stroke: #ffffff; stroke-linecap: round"/>
     </g>
     <g id="text_4">
      <!-- 0.5 -->
      <g style="fill: #262626" transform="translate(141.100455 209.613594) scale(0.11 -0.11)">
       <use xlink:href="#ArialMT-30"/>
       <use xlink:href="#ArialMT-2e" x="55.615234"/>
       <use xlink:href="#ArialMT-35" x="83.398438"/>
      </g>
     </g>
    </g>
    <g id="xtick_5">
     <g id="line2d_5">
      <path d="M 186.790909 192.24 
L 186.790909 25.92 
" clip-path="url(#p2bcb5b7825)" style="fill: none; stroke: #ffffff; stroke-linecap: round"/>
     </g>
     <g id="text_5">
      <!-- 1.0 -->
      <g style="fill: #262626" transform="translate(179.145909 209.613594) scale(0.11 -0.11)">
       <use xlink:href="#ArialMT-31"/>
       <use xlink:href="#ArialMT-2e" x="55.615234"/>
       <use xlink:href="#ArialMT-30" x="83.398438"/>
      </g>
     </g>
    </g>
    <g id="text_6">
     <!-- x -->
     <g style="fill: #262626" transform="translate(107.7 224.389219) scale(0.12 -0.12)">
      <defs>
       <path id="ArialMT-78" d="M 47 0 
L 1259 1725 
L 138 3319 
L 841 3319 
L 1350 2541 
Q 1494 2319 1581 2169 
Q 1719 2375 1834 2534 
L 2394 3319 
L 3066 3319 
L 1919 1756 
L 3153 0 
L 2463 0 
L 1781 1031 
L 1600 1309 
L 728 0 
L 47 0 
z
" transform="scale(0.015625)"/>
      </defs>
      <use xlink:href="#ArialMT-78"/>
     </g>
    </g>
   </g>
   <g id="matplotlib.axis_2">
    <g id="ytick_1">
     <g id="line2d_6">
      <path d="M 27 184.686865 
L 194.4 184.686865 
" clip-path="url(#p2bcb5b7825)" style="fill: none; stroke: #ffffff; stroke-linecap: round"/>
     </g>
     <g id="text_7">
      <!-- 0.0 -->
      <g style="fill: #262626" transform="translate(2.21 188.623662) scale(0.11 -0.11)">
       <use xlink:href="#ArialMT-30"/>
       <use xlink:href="#ArialMT-2e" x="55.615234"/>
       <use xlink:href="#ArialMT-30" x="83.398438"/>
      </g>
     </g>
    </g>
    <g id="ytick_2">
     <g id="line2d_7">
      <path d="M 27 154.444119 
L 194.4 154.444119 
" clip-path="url(#p2bcb5b7825)" style="fill: none; stroke: #ffffff; stroke-linecap: round"/>
     </g>
     <g id="text_8">
      <!-- 0.2 -->
      <g style="fill: #262626" transform="translate(2.21 158.380916) scale(0.11 -0.11)">
       <defs>
        <path id="ArialMT-32" d="M 3222 541 
L 3222 0 
L 194 0 
Q 188 203 259 391 
Q 375 700 629 1000 
Q 884 1300 1366 1694 
Q 2113 2306 2375 2664 
Q 2638 3022 2638 3341 
Q 2638 3675 2398 3904 
Q 2159 4134 1775 4134 
Q 1369 4134 1125 3890 
Q 881 3647 878 3216 
L 300 3275 
Q 359 3922 746 4261 
Q 1134 4600 1788 4600 
Q 2447 4600 2831 4234 
Q 3216 3869 3216 3328 
Q 3216 3053 3103 2787 
Q 2991 2522 2730 2228 
Q 2469 1934 1863 1422 
Q 1356 997 1212 845 
Q 1069 694 975 541 
L 3222 541 
z
" transform="scale(0.015625)"/>
       </defs>
       <use xlink:href="#ArialMT-30"/>
       <use xlink:href="#ArialMT-2e" x="55.615234"/>
       <use xlink:href="#ArialMT-32" x="83.398438"/>
      </g>
     </g>
    </g>
    <g id="ytick_3">
     <g id="line2d_8">
      <path d="M 27 124.201373 
L 194.4 124.201373 
" clip-path="url(#p2bcb5b7825)" style="fill: none; stroke: #ffffff; stroke-linecap: round"/>
     </g>
     <g id="text_9">
      <!-- 0.4 -->
      <g style="fill: #262626" transform="translate(2.21 128.13817) scale(0.11 -0.11)">
       <defs>
        <path id="ArialMT-34" d="M 2069 0 
L 2069 1097 
L 81 1097 
L 81 1613 
L 2172 4581 
L 2631 4581 
L 2631 1613 
L 3250 1613 
L 3250 1097 
L 2631 1097 
L 2631 0 
L 2069 0 
z
M 2069 1613 
L 2069 3678 
L 634 1613 
L 2069 1613 
z
" transform="scale(0.015625)"/>
       </defs>
       <use xlink:href="#ArialMT-30"/>
       <use xlink:href="#ArialMT-2e" x="55.615234"/>
       <use xlink:href="#ArialMT-34" x="83.398438"/>
      </g>
     </g>
    </g>
    <g id="ytick_4">
     <g id="line2d_9">
      <path d="M 27 93.958627 
L 194.4 93.958627 
" clip-path="url(#p2bcb5b7825)" style="fill: none; stroke: #ffffff; stroke-linecap: round"/>
     </g>
     <g id="text_10">
      <!-- 0.6 -->
      <g style="fill: #262626" transform="translate(2.21 97.895424) scale(0.11 -0.11)">
       <defs>
        <path id="ArialMT-36" d="M 3184 3459 
L 2625 3416 
Q 2550 3747 2413 3897 
Q 2184 4138 1850 4138 
Q 1581 4138 1378 3988 
Q 1113 3794 959 3422 
Q 806 3050 800 2363 
Q 1003 2672 1297 2822 
Q 1591 2972 1913 2972 
Q 2475 2972 2870 2558 
Q 3266 2144 3266 1488 
Q 3266 1056 3080 686 
Q 2894 316 2569 119 
Q 2244 -78 1831 -78 
Q 1128 -78 684 439 
Q 241 956 241 2144 
Q 241 3472 731 4075 
Q 1159 4600 1884 4600 
Q 2425 4600 2770 4297 
Q 3116 3994 3184 3459 
z
M 888 1484 
Q 888 1194 1011 928 
Q 1134 663 1356 523 
Q 1578 384 1822 384 
Q 2178 384 2434 671 
Q 2691 959 2691 1453 
Q 2691 1928 2437 2201 
Q 2184 2475 1800 2475 
Q 1419 2475 1153 2201 
Q 888 1928 888 1484 
z
" transform="scale(0.015625)"/>
       </defs>
       <use xlink:href="#ArialMT-30"/>
       <use xlink:href="#ArialMT-2e" x="55.615234"/>
       <use xlink:href="#ArialMT-36" x="83.398438"/>
      </g>
     </g>
    </g>
    <g id="ytick_5">
     <g id="line2d_10">
      <path d="M 27 63.715881 
L 194.4 63.715881 
" clip-path="url(#p2bcb5b7825)" style="fill: none; stroke: #ffffff; stroke-linecap: round"/>
     </g>
     <g id="text_11">
      <!-- 0.8 -->
      <g style="fill: #262626" transform="translate(2.21 67.652678) scale(0.11 -0.11)">
       <defs>
        <path id="ArialMT-38" d="M 1131 2484 
Q 781 2613 612 2850 
Q 444 3088 444 3419 
Q 444 3919 803 4259 
Q 1163 4600 1759 4600 
Q 2359 4600 2725 4251 
Q 3091 3903 3091 3403 
Q 3091 3084 2923 2848 
Q 2756 2613 2416 2484 
Q 2838 2347 3058 2040 
Q 3278 1734 3278 1309 
Q 3278 722 2862 322 
Q 2447 -78 1769 -78 
Q 1091 -78 675 323 
Q 259 725 259 1325 
Q 259 1772 486 2073 
Q 713 2375 1131 2484 
z
M 1019 3438 
Q 1019 3113 1228 2906 
Q 1438 2700 1772 2700 
Q 2097 2700 2305 2904 
Q 2513 3109 2513 3406 
Q 2513 3716 2298 3927 
Q 2084 4138 1766 4138 
Q 1444 4138 1231 3931 
Q 1019 3725 1019 3438 
z
M 838 1322 
Q 838 1081 952 856 
Q 1066 631 1291 507 
Q 1516 384 1775 384 
Q 2178 384 2440 643 
Q 2703 903 2703 1303 
Q 2703 1709 2433 1975 
Q 2163 2241 1756 2241 
Q 1359 2241 1098 1978 
Q 838 1716 838 1322 
z
" transform="scale(0.015625)"/>
       </defs>
       <use xlink:href="#ArialMT-30"/>
       <use xlink:href="#ArialMT-2e" x="55.615234"/>
       <use xlink:href="#ArialMT-38" x="83.398438"/>
      </g>
     </g>
    </g>
    <g id="ytick_6">
     <g id="line2d_11">
      <path d="M 27 33.473135 
L 194.4 33.473135 
" clip-path="url(#p2bcb5b7825)" style="fill: none; stroke: #ffffff; stroke-linecap: round"/>
     </g>
     <g id="text_12">
      <!-- 1.0 -->
      <g style="fill: #262626" transform="translate(2.21 37.409932) scale(0.11 -0.11)">
       <use xlink:href="#ArialMT-31"/>
       <use xlink:href="#ArialMT-2e" x="55.615234"/>
       <use xlink:href="#ArialMT-30" x="83.398438"/>
      </g>
     </g>
    </g>
   </g>
   <g id="line2d_12">
    <path d="M 34.609091 109.08 
L 41.464128 92.333635 
L 45.272482 83.624211 
L 48.471499 76.84327 
L 51.365848 71.206047 
L 54.107862 66.336748 
L 56.697543 62.170218 
L 59.287224 58.42058 
L 61.876904 55.074498 
L 64.314251 52.275152 
L 66.751597 49.7929 
L 69.341278 47.475678 
L 71.930958 45.458243 
L 74.672973 43.614668 
L 77.414988 42.037232 
L 80.309337 40.624092 
L 83.35602 39.377329 
L 86.707371 38.247163 
L 90.363391 37.253102 
L 94.476413 36.375085 
L 99.046437 35.633059 
L 104.378133 35.001126 
L 110.623833 34.49023 
L 118.392875 34.08523 
L 128.599263 33.78676 
L 143.52801 33.590879 
L 170.643489 33.492969 
L 186.790909 33.48 
L 186.790909 33.48 
" clip-path="url(#p2bcb5b7825)" style="fill: none; stroke: #0076c2; stroke-width: 1.5; stroke-linecap: round"/>
   </g>
   <g id="line2d_13">
    <path d="M 34.609091 160.663675 
L 37.046437 157.248059 
L 39.636118 153.217293 
L 42.225799 148.766245 
L 44.967813 143.60124 
L 47.862162 137.670652 
L 51.061179 130.605522 
L 54.869533 121.639355 
L 60.962899 106.621185 
L 67.056265 91.794769 
L 70.864619 83.122214 
L 74.063636 76.380331 
L 76.957985 70.782464 
L 79.7 65.952182 
L 82.289681 61.822729 
L 84.879361 58.109365 
L 87.469042 54.797975 
L 89.906388 52.029334 
L 92.343735 49.575588 
L 94.933415 47.286063 
L 97.523096 45.293593 
L 100.265111 43.473526 
L 103.007125 41.916729 
L 105.901474 40.52249 
L 109.100491 39.236972 
L 112.451843 38.132811 
L 116.107862 37.161961 
L 120.220885 36.304707 
L 124.790909 35.580422 
L 130.122604 34.963734 
L 136.520639 34.455441 
L 144.442015 34.058375 
L 154.953071 33.767042 
L 170.491155 33.57914 
L 186.790909 33.509474 
L 186.790909 33.509474 
" clip-path="url(#p2bcb5b7825)" style="fill: none; stroke: #ec6842; stroke-width: 1.5; stroke-linecap: round"/>
   </g>
   <g id="line2d_14">
    <path d="M 34.609091 179.478278 
L 37.960442 178.24976 
L 41.007125 176.896498 
L 43.901474 175.365176 
L 46.643489 173.658986 
L 49.23317 171.787752 
L 51.82285 169.633099 
L 54.260197 167.318613 
L 56.697543 164.700513 
L 59.134889 161.755374 
L 61.572236 158.462973 
L 64.009582 154.807966 
L 66.599263 150.517703 
L 69.341278 145.518982 
L 72.235627 139.752266 
L 75.434644 132.844307 
L 79.090663 124.380755 
L 84.11769 112.105685 
L 92.496069 91.615555 
L 96.152088 83.289261 
L 99.351106 76.534312 
L 102.245455 70.923302 
L 104.987469 66.080006 
L 107.57715 61.938197 
L 110.16683 58.212755 
L 112.756511 54.889819 
L 115.193857 52.110965 
L 117.631204 49.64774 
L 120.220885 47.34901 
L 122.810565 45.348245 
L 125.55258 43.520369 
L 128.294595 41.956719 
L 131.188943 40.556204 
L 134.387961 39.264785 
L 137.739312 38.155467 
L 141.395332 37.180017 
L 145.508354 36.318648 
L 150.078378 35.590847 
L 155.410074 34.971139 
L 161.808108 34.460337 
L 169.729484 34.0613 
L 180.240541 33.768514 
L 186.790909 33.66533 
L 186.790909 33.66533 
" clip-path="url(#p2bcb5b7825)" style="fill: none; stroke: #a50034; stroke-width: 1.5; stroke-linecap: round"/>
   </g>
   <g id="line2d_15">
    <path d="M 34.609091 183.674814 
L 41.311794 183.120555 
L 46.795823 182.451065 
L 51.518182 181.65389 
L 55.631204 180.737285 
L 59.287224 179.700128 
L 62.638575 178.521726 
L 65.685258 177.222692 
L 68.579607 175.751494 
L 71.321622 174.110743 
L 73.911302 172.309395 
L 76.500983 170.232771 
L 78.938329 167.999184 
L 81.375676 165.468944 
L 83.813022 162.617996 
L 86.250369 159.425058 
L 88.687715 155.87323 
L 91.277396 151.694335 
L 93.867076 147.095503 
L 96.609091 141.779669 
L 99.655774 135.371019 
L 103.007125 127.793042 
L 107.272482 117.558477 
L 119.611548 87.554478 
L 123.115233 79.843214 
L 126.161916 73.666373 
L 129.056265 68.308697 
L 131.79828 63.713655 
L 134.387961 59.805693 
L 136.977641 56.307429 
L 139.414988 53.372837 
L 141.852334 50.764592 
L 144.442015 48.324591 
L 147.031695 46.196189 
L 149.621376 44.348487 
L 152.363391 42.664348 
L 155.25774 41.1533 
L 158.304423 39.818335 
L 161.50344 38.656609 
L 165.007125 37.619864 
L 168.967813 36.689858 
L 173.385504 35.89236 
L 178.412531 35.219659 
L 184.353563 34.659599 
L 186.790909 34.485186 
L 186.790909 34.485186 
" clip-path="url(#p2bcb5b7825)" style="fill: none; stroke: #009b77; stroke-width: 1.5; stroke-linecap: round"/>
   </g>
   <g id="line2d_16">
    <path d="M 34.609091 184.49467 
L 48.471499 184.209856 
L 57.763882 183.810753 
L 64.923587 183.289296 
L 70.712285 182.651152 
L 75.586978 181.896712 
L 79.852334 181.016008 
L 83.660688 180.004533 
L 87.164373 178.839203 
L 90.363391 177.535908 
L 93.25774 176.122768 
L 95.999754 174.545332 
L 98.589435 172.811755 
L 101.179115 170.81099 
L 103.616462 168.656281 
L 106.053808 166.211989 
L 108.491155 163.45354 
L 110.928501 160.358716 
L 113.365848 156.90921 
L 115.955528 152.841473 
L 118.545209 148.353399 
L 121.287224 143.150418 
L 124.181572 137.182825 
L 127.532924 129.733109 
L 131.493612 120.347831 
L 138.805651 102.286939 
L 143.832678 90.189452 
L 147.488698 81.960988 
L 150.687715 75.311832 
L 153.582064 69.806601 
L 156.324079 65.067616 
L 158.913759 61.024532 
L 161.50344 57.395363 
L 163.940786 54.343684 
L 166.378133 51.625781 
L 168.967813 49.078418 
L 171.557494 46.852583 
L 174.147174 44.917434 
L 176.889189 43.151264 
L 179.783538 41.564727 
L 182.830221 40.16158 
L 186.029238 38.939382 
L 186.790909 38.681722 
L 186.790909 38.681722 
" clip-path="url(#p2bcb5b7825)" style="fill: none; stroke: #ffb81c; stroke-width: 1.5; stroke-linecap: round"/>
   </g>
   <g id="line2d_17">
    <path d="M 34.609091 184.650526 
L 61.419902 184.475522 
L 74.825307 184.177896 
L 83.965356 183.76147 
L 90.972727 183.225525 
L 96.609091 182.579578 
L 101.483784 181.799127 
L 105.74914 180.888408 
L 109.557494 179.842928 
L 112.908845 178.696888 
L 116.107862 177.363474 
L 119.002211 175.918331 
L 121.744226 174.30598 
L 124.333907 172.535013 
L 126.923587 170.492372 
L 129.360934 168.294092 
L 131.79828 165.80229 
L 134.235627 162.992666 
L 136.672973 159.843507 
L 139.110319 156.337271 
L 141.7 152.207818 
L 144.289681 147.658143 
L 147.031695 142.392255 
L 150.078378 136.034 
L 153.42973 128.501726 
L 157.542752 118.677471 
L 170.948157 86.171585 
L 174.299509 78.883376 
L 177.346192 72.78645 
L 180.088206 67.774852 
L 182.677887 63.472211 
L 185.267568 59.588715 
L 186.790909 57.496325 
L 186.790909 57.496325 
" clip-path="url(#p2bcb5b7825)" style="fill: none; stroke: #e03c31; stroke-width: 1.5; stroke-linecap: round"/>
   </g>
   <g id="line2d_18">
    <path d="M 34.609091 184.68 
L 80.309337 184.548687 
L 96.304423 184.292258 
L 106.510811 183.917111 
L 114.127518 183.421305 
L 120.220885 182.805867 
L 125.247912 182.082274 
L 129.665602 181.225091 
L 133.473956 180.269502 
L 136.977641 179.167633 
L 140.176658 177.934137 
L 143.223342 176.518267 
L 146.11769 174.917661 
L 148.859705 173.136228 
L 151.449386 171.184835 
L 154.039066 168.940936 
L 156.476413 166.534219 
L 158.913759 163.816316 
L 161.351106 160.764637 
L 163.788452 157.360291 
L 166.378133 153.341837 
L 168.967813 148.903141 
L 171.709828 143.750831 
L 174.604177 137.832649 
L 177.803194 130.779267 
L 181.611548 121.823264 
L 186.790909 109.08 
L 186.790909 109.08 
" clip-path="url(#p2bcb5b7825)" style="fill: none; stroke: #6cc24a; stroke-width: 1.5; stroke-linecap: round"/>
   </g>
   <g id="patch_3">
    <path d="M 27 192.24 
L 27 25.92 
" style="fill: none; stroke: #ffffff; stroke-width: 1.25; stroke-linejoin: miter; stroke-linecap: square"/>
   </g>
   <g id="patch_4">
    <path d="M 194.4 192.24 
L 194.4 25.92 
" style="fill: none; stroke: #ffffff; stroke-width: 1.25; stroke-linejoin: miter; stroke-linecap: square"/>
   </g>
   <g id="patch_5">
    <path d="M 27 192.24 
L 194.4 192.24 
" style="fill: none; stroke: #ffffff; stroke-width: 1.25; stroke-linejoin: miter; stroke-linecap: square"/>
   </g>
   <g id="patch_6">
    <path d="M 27 25.92 
L 194.4 25.92 
" style="fill: none; stroke: #ffffff; stroke-width: 1.25; stroke-linejoin: miter; stroke-linecap: square"/>
   </g>
  </g>
 </g>
 <defs>
  <clipPath id="p2bcb5b7825">
   <rect x="27" y="25.92" width="167.4" height="166.32"/>
  </clipPath>
 </defs>
</svg>
