<?xml version="1.0" encoding="utf-8" standalone="no"?>
<!DOCTYPE svg PUBLIC "-//W3C//DTD SVG 1.1//EN"
  "http://www.w3.org/Graphics/SVG/1.1/DTD/svg11.dtd">
<svg xmlns:xlink="http://www.w3.org/1999/xlink" width="216pt" height="216pt" viewBox="0 0 216 216" xmlns="http://www.w3.org/2000/svg" version="1.1">
 <metadata>
  <rdf:RDF xmlns:dc="http://purl.org/dc/elements/1.1/" xmlns:cc="http://creativecommons.org/ns#" xmlns:rdf="http://www.w3.org/1999/02/22-rdf-syntax-ns#">
   <cc:Work>
    <dc:type rdf:resource="http://purl.org/dc/dcmitype/StillImage"/>
    <dc:date>2026-03-17T16:53:26.762840</dc:date>
    <dc:format>image/svg+xml</dc:format>
    <dc:creator>
     <cc:Agent>
      <dc:title>Matplotlib v3.8.0, https://matplotlib.org/</dc:title>
     </cc:Agent>
    </dc:creator>
   </cc:Work>
  </rdf:RDF>
 </metadata>
 <defs>
  <style type="text/css">*{stroke-linejoin: round; stroke-linecap: butt}</style>
 </defs>
 <g id="figure_1">
  <g id="patch_1">
   <path d="M 0 216 
L 216 216 
L 216 0 
L 0 0 
z
" style="fill: #ffffff"/>
  </g>
  <g id="axes_1">
   <g id="patch_2">
    <path d="M 27 192.24 
L 194.4 192.24 
L 194.4 25.92 
L 27 25.92 
z
" style="fill: #eaeaf2"/>
   </g>
   <g id="matplotlib.axis_1">
    <g id="xtick_1">
     <g id="line2d_1">
      <path d="M 34.609091 192.24 
L 34.609091 25.92 
" clip-path="url(#p563904e1e9)" style="fill: none; stroke: #ffffff; stroke-linecap: round"/>
     </g>
     <g id="text_1">
      <!-- 0 -->
      <g style="fill: #262626" transform="translate(31.550575 209.613594) scale(0.11 -0.11)">
       <defs>
        <path id="ArialMT-30" d="M 266 2259 
Q 266 3072 433 3567 
Q 600 4063 929 4331 
Q 1259 4600 1759 4600 
Q 2128 4600 2406 4451 
Q 2684 4303 2865 4023 
Q 3047 3744 3150 3342 
Q 3253 2941 3253 2259 
Q 3253 1453 3087 958 
Q 2922 463 2592 192 
Q 2263 -78 1759 -78 
Q 1097 -78 719 397 
Q 266 969 266 2259 
z
M 844 2259 
Q 844 1131 1108 757 
Q 1372 384 1759 384 
Q 2147 384 2411 759 
Q 2675 1134 2675 2259 
Q 2675 3391 2411 3762 
Q 2147 4134 1753 4134 
Q 1366 4134 1134 3806 
Q 844 3388 844 2259 
z
" transform="scale(0.015625)"/>
       </defs>
       <use xlink:href="#ArialMT-30"/>
      </g>
     </g>
    </g>
    <g id="xtick_2">
     <g id="line2d_2">
      <path d="M 83.050068 192.24 
L 83.050068 25.92 
" clip-path="url(#p563904e1e9)" style="fill: none; stroke: #ffffff; stroke-linecap: round"/>
     </g>
     <g id="text_2">
      <!-- 2 -->
      <g style="fill: #262626" transform="translate(79.991553 209.613594) scale(0.11 -0.11)">
       <defs>
        <path id="ArialMT-32" d="M 3222 541 
L 3222 0 
L 194 0 
Q 188 203 259 391 
Q 375 700 629 1000 
Q 884 1300 1366 1694 
Q 2113 2306 2375 2664 
Q 2638 3022 2638 3341 
Q 2638 3675 2398 3904 
Q 2159 4134 1775 4134 
Q 1369 4134 1125 3890 
Q 881 3647 878 3216 
L 300 3275 
Q 359 3922 746 4261 
Q 1134 4600 1788 4600 
Q 2447 4600 2831 4234 
Q 3216 3869 3216 3328 
Q 3216 3053 3103 2787 
Q 2991 2522 2730 2228 
Q 2469 1934 1863 1422 
Q 1356 997 1212 845 
Q 1069 694 975 541 
L 3222 541 
z
" transform="scale(0.015625)"/>
       </defs>
       <use xlink:href="#ArialMT-32"/>
      </g>
     </g>
    </g>
    <g id="xtick_3">
     <g id="line2d_3">
      <path d="M 131.491045 192.24 
L 131.491045 25.92 
" clip-path="url(#p563904e1e9)" style="fill: none; stroke: #ffffff; stroke-linecap: round"/>
     </g>
     <g id="text_3">
      <!-- 4 -->
      <g style="fill: #262626" transform="translate(128.43253 209.613594) scale(0.11 -0.11)">
       <defs>
        <path id="ArialMT-34" d="M 2069 0 
L 2069 1097 
L 81 1097 
L 81 1613 
L 2172 4581 
L 2631 4581 
L 2631 1613 
L 3250 1613 
L 3250 1097 
L 2631 1097 
L 2631 0 
L 2069 0 
z
M 2069 1613 
L 2069 3678 
L 634 1613 
L 2069 1613 
z
" transform="scale(0.015625)"/>
       </defs>
       <use xlink:href="#ArialMT-34"/>
      </g>
     </g>
    </g>
    <g id="xtick_4">
     <g id="line2d_4">
      <path d="M 179.932023 192.24 
L 179.932023 25.92 
" clip-path="url(#p563904e1e9)" style="fill: none; stroke: #ffffff; stroke-linecap: round"/>
     </g>
     <g id="text_4">
      <!-- 6 -->
      <g style="fill: #262626" transform="translate(176.873507 209.613594) scale(0.11 -0.11)">
       <defs>
        <path id="ArialMT-36" d="M 3184 3459 
L 2625 3416 
Q 2550 3747 2413 3897 
Q 2184 4138 1850 4138 
Q 1581 4138 1378 3988 
Q 1113 3794 959 3422 
Q 806 3050 800 2363 
Q 1003 2672 1297 2822 
Q 1591 2972 1913 2972 
Q 2475 2972 2870 2558 
Q 3266 2144 3266 1488 
Q 3266 1056 3080 686 
Q 2894 316 2569 119 
Q 2244 -78 1831 -78 
Q 1128 -78 684 439 
Q 241 956 241 2144 
Q 241 3472 731 4075 
Q 1159 4600 1884 4600 
Q 2425 4600 2770 4297 
Q 3116 3994 3184 3459 
z
M 888 1484 
Q 888 1194 1011 928 
Q 1134 663 1356 523 
Q 1578 384 1822 384 
Q 2178 384 2434 671 
Q 2691 959 2691 1453 
Q 2691 1928 2437 2201 
Q 2184 2475 1800 2475 
Q 1419 2475 1153 2201 
Q 888 1928 888 1484 
z
" transform="scale(0.015625)"/>
       </defs>
       <use xlink:href="#ArialMT-36"/>
      </g>
     </g>
    </g>
    <g id="text_5">
     <!-- x -->
     <g style="fill: #262626" transform="translate(107.7 224.389219) scale(0.12 -0.12)">
      <defs>
       <path id="ArialMT-78" d="M 47 0 
L 1259 1725 
L 138 3319 
L 841 3319 
L 1350 2541 
Q 1494 2319 1581 2169 
Q 1719 2375 1834 2534 
L 2394 3319 
L 3066 3319 
L 1919 1756 
L 3153 0 
L 2463 0 
L 1781 1031 
L 1600 1309 
L 728 0 
L 47 0 
z
" transform="scale(0.015625)"/>
      </defs>
      <use xlink:href="#ArialMT-78"/>
     </g>
    </g>
   </g>
   <g id="matplotlib.axis_2">
    <g id="ytick_1">
     <g id="line2d_5">
      <path d="M 27 192.24 
L 194.4 192.24 
" clip-path="url(#p563904e1e9)" style="fill: none; stroke: #ffffff; stroke-linecap: round"/>
     </g>
     <g id="text_6">
      <!-- −2 -->
      <g style="fill: #262626" transform="translate(4.958281 196.176797) scale(0.11 -0.11)">
       <defs>
        <path id="ArialMT-2212" d="M 3381 1997 
L 356 1997 
L 356 2522 
L 3381 2522 
L 3381 1997 
z
" transform="scale(0.015625)"/>
       </defs>
       <use xlink:href="#ArialMT-2212"/>
       <use xlink:href="#ArialMT-32" x="58.398438"/>
      </g>
     </g>
    </g>
    <g id="ytick_2">
     <g id="line2d_6">
      <path d="M 27 150.66 
L 194.4 150.66 
" clip-path="url(#p563904e1e9)" style="fill: none; stroke: #ffffff; stroke-linecap: round"/>
     </g>
     <g id="text_7">
      <!-- −1 -->
      <g style="fill: #262626" transform="translate(4.958281 154.596797) scale(0.11 -0.11)">
       <defs>
        <path id="ArialMT-31" d="M 2384 0 
L 1822 0 
L 1822 3584 
Q 1619 3391 1289 3197 
Q 959 3003 697 2906 
L 697 3450 
Q 1169 3672 1522 3987 
Q 1875 4303 2022 4600 
L 2384 4600 
L 2384 0 
z
" transform="scale(0.015625)"/>
       </defs>
       <use xlink:href="#ArialMT-2212"/>
       <use xlink:href="#ArialMT-31" x="58.398438"/>
      </g>
     </g>
    </g>
    <g id="ytick_3">
     <g id="line2d_7">
      <path d="M 27 109.08 
L 194.4 109.08 
" clip-path="url(#p563904e1e9)" style="fill: none; stroke: #ffffff; stroke-linecap: round"/>
     </g>
     <g id="text_8">
      <!-- 0 -->
      <g style="fill: #262626" transform="translate(11.382969 113.016797) scale(0.11 -0.11)">
       <use xlink:href="#ArialMT-30"/>
      </g>
     </g>
    </g>
    <g id="ytick_4">
     <g id="line2d_8">
      <path d="M 27 67.5 
L 194.4 67.5 
" clip-path="url(#p563904e1e9)" style="fill: none; stroke: #ffffff; stroke-linecap: round"/>
     </g>
     <g id="text_9">
      <!-- 1 -->
      <g style="fill: #262626" transform="translate(11.382969 71.436797) scale(0.11 -0.11)">
       <use xlink:href="#ArialMT-31"/>
      </g>
     </g>
    </g>
    <g id="ytick_5">
     <g id="line2d_9">
      <path d="M 27 25.92 
L 194.4 25.92 
" clip-path="url(#p563904e1e9)" style="fill: none; stroke: #ffffff; stroke-linecap: round"/>
     </g>
     <g id="text_10">
      <!-- 2 -->
      <g style="fill: #262626" transform="translate(11.382969 29.856797) scale(0.11 -0.11)">
       <use xlink:href="#ArialMT-32"/>
      </g>
     </g>
    </g>
    <g id="text_11">
     <!-- t -->
     <g style="fill: #262626" transform="translate(-1.426719 110.746875) rotate(-90) scale(0.12 -0.12)">
      <defs>
       <path id="ArialMT-74" d="M 1650 503 
L 1731 6 
Q 1494 -44 1306 -44 
Q 1000 -44 831 53 
Q 663 150 594 308 
Q 525 466 525 972 
L 525 2881 
L 113 2881 
L 113 3319 
L 525 3319 
L 525 4141 
L 1084 4478 
L 1084 3319 
L 1650 3319 
L 1650 2881 
L 1084 2881 
L 1084 941 
Q 1084 700 1114 631 
Q 1144 563 1211 522 
Q 1278 481 1403 481 
Q 1497 481 1650 503 
z
" transform="scale(0.015625)"/>
      </defs>
      <use xlink:href="#ArialMT-74"/>
     </g>
    </g>
   </g>
   <g id="PolyCollection_1">
    <defs>
     <path id="mde87a08b33" d="M 34.609091 -118.411001 
L 34.609091 -96.34846 
L 34.761425 -96.558405 
L 34.913759 -96.770178 
L 35.066093 -96.983758 
L 35.218428 -97.199123 
L 35.370762 -97.416248 
L 35.523096 -97.635111 
L 35.67543 -97.855686 
L 35.827764 -98.077948 
L 35.980098 -98.301871 
L 36.132432 -98.527427 
L 36.284767 -98.754589 
L 36.437101 -98.983328 
L 36.589435 -99.213614 
L 36.741769 -99.445418 
L 36.894103 -99.678708 
L 37.046437 -99.913454 
L 37.198771 -100.149624 
L 37.351106 -100.387184 
L 37.50344 -100.626103 
L 37.655774 -100.866345 
L 37.808108 -101.107878 
L 37.960442 -101.350666 
L 38.112776 -101.594674 
L 38.265111 -101.839866 
L 38.417445 -102.086207 
L 38.569779 -102.333661 
L 38.722113 -102.58219 
L 38.874447 -102.831757 
L 39.026781 -103.082326 
L 39.179115 -103.333859 
L 39.33145 -103.586318 
L 39.483784 -103.839665 
L 39.636118 -104.093862 
L 39.788452 -104.348871 
L 39.940786 -104.604654 
L 40.09312 -104.861172 
L 40.245455 -105.118387 
L 40.397789 -105.376261 
L 40.550123 -105.634755 
L 40.702457 -105.893831 
L 40.854791 -106.153451 
L 41.007125 -106.413576 
L 41.159459 -106.67417 
L 41.311794 -106.935193 
L 41.464128 -107.19661 
L 41.616462 -107.458381 
L 41.768796 -107.720471 
L 41.92113 -107.982843 
L 42.073464 -108.245459 
L 42.225799 -108.508285 
L 42.378133 -108.771284 
L 42.530467 -109.03442 
L 42.682801 -109.297659 
L 42.835135 -109.560967 
L 42.987469 -109.824308 
L 43.139803 -110.087649 
L 43.292138 -110.350956 
L 43.444472 -110.614198 
L 43.596806 -110.87734 
L 43.74914 -111.140352 
L 43.901474 -111.403201 
L 44.053808 -111.665857 
L 44.206143 -111.928289 
L 44.358477 -112.190467 
L 44.510811 -112.452361 
L 44.663145 -112.713943 
L 44.815479 -112.975183 
L 44.967813 -113.236054 
L 45.120147 -113.496527 
L 45.272482 -113.756577 
L 45.424816 -114.016175 
L 45.57715 -114.275296 
L 45.729484 -114.533914 
L 45.881818 -114.792004 
L 46.034152 -115.04954 
L 46.186486 -115.306499 
L 46.338821 -115.562856 
L 46.491155 -115.818588 
L 46.643489 -116.073671 
L 46.795823 -116.328082 
L 46.948157 -116.581799 
L 47.100491 -116.8348 
L 47.252826 -117.087064 
L 47.40516 -117.338567 
L 47.557494 -117.58929 
L 47.709828 -117.839211 
L 47.862162 -118.088309 
L 48.014496 -118.336565 
L 48.16683 -118.583958 
L 48.319165 -118.830468 
L 48.471499 -119.076075 
L 48.623833 -119.32076 
L 48.776167 -119.564504 
L 48.928501 -119.807287 
L 49.080835 -120.04909 
L 49.23317 -120.289895 
L 49.385504 -120.529683 
L 49.537838 -120.768434 
L 49.690172 -121.006131 
L 49.842506 -121.242755 
L 49.99484 -121.478288 
L 50.147174 -121.712711 
L 50.299509 -121.946006 
L 50.451843 -122.178155 
L 50.604177 -122.409139 
L 50.756511 -122.638941 
L 50.908845 -122.867542 
L 51.061179 -123.094925 
L 51.213514 -123.32107 
L 51.365848 -123.545961 
L 51.518182 -123.769578 
L 51.670516 -123.991905 
L 51.82285 -124.212922 
L 51.975184 -124.432612 
L 52.127518 -124.650956 
L 52.279853 -124.867936 
L 52.432187 -125.083535 
L 52.584521 -125.297734 
L 52.736855 -125.510514 
L 52.889189 -125.721859 
L 53.041523 -125.931749 
L 53.193857 -126.140166 
L 53.346192 -126.347092 
L 53.498526 -126.55251 
L 53.65086 -126.7564 
L 53.803194 -126.958745 
L 53.955528 -127.159527 
L 54.107862 -127.358727 
L 54.260197 -127.556328 
L 54.412531 -127.752312 
L 54.564865 -127.946661 
L 54.717199 -128.139356 
L 54.869533 -128.330381 
L 55.021867 -128.519718 
L 55.174201 -128.707349 
L 55.326536 -128.893257 
L 55.47887 -129.077424 
L 55.631204 -129.259833 
L 55.783538 -129.440468 
L 55.935872 -129.619312 
L 56.088206 -129.796348 
L 56.240541 -129.971559 
L 56.392875 -130.14493 
L 56.545209 -130.316444 
L 56.697543 -130.486087 
L 56.849877 -130.653841 
L 57.002211 -130.819693 
L 57.154545 -130.983627 
L 57.30688 -131.145628 
L 57.459214 -131.305683 
L 57.611548 -131.463777 
L 57.763882 -131.619898 
L 57.916216 -131.77403 
L 58.06855 -131.926163 
L 58.220885 -132.076283 
L 58.373219 -132.224378 
L 58.525553 -132.370438 
L 58.677887 -132.514449 
L 58.830221 -132.656402 
L 58.982555 -132.796287 
L 59.134889 -132.934094 
L 59.287224 -133.069813 
L 59.439558 -133.203436 
L 59.591892 -133.334954 
L 59.744226 -133.46436 
L 59.89656 -133.591647 
L 60.048894 -133.716807 
L 60.201229 -133.839835 
L 60.353563 -133.960725 
L 60.505897 -134.079473 
L 60.658231 -134.196074 
L 60.810565 -134.310523 
L 60.962899 -134.422819 
L 61.115233 -134.532958 
L 61.267568 -134.640939 
L 61.419902 -134.746759 
L 61.572236 -134.850419 
L 61.72457 -134.951919 
L 61.876904 -135.051258 
L 62.029238 -135.148438 
L 62.181572 -135.243461 
L 62.333907 -135.336328 
L 62.486241 -135.427044 
L 62.638575 -135.515611 
L 62.790909 -135.602034 
L 62.943243 -135.686318 
L 63.095577 -135.768467 
L 63.247912 -135.848489 
L 63.400246 -135.926389 
L 63.55258 -136.002174 
L 63.704914 -136.075854 
L 63.857248 -136.147435 
L 64.009582 -136.216926 
L 64.161916 -136.284338 
L 64.314251 -136.349679 
L 64.466585 -136.412961 
L 64.618919 -136.474194 
L 64.771253 -136.533389 
L 64.923587 -136.590559 
L 65.075921 -136.645716 
L 65.228256 -136.698872 
L 65.38059 -136.750041 
L 65.532924 -136.799237 
L 65.685258 -136.846472 
L 65.837592 -136.891763 
L 65.989926 -136.935123 
L 66.14226 -136.976567 
L 66.294595 -137.016111 
L 66.446929 -137.053771 
L 66.599263 -137.089562 
L 66.751597 -137.1235 
L 66.903931 -137.155603 
L 67.056265 -137.185886 
L 67.2086 -137.214366 
L 67.360934 -137.241061 
L 67.513268 -137.265988 
L 67.665602 -137.289163 
L 67.817936 -137.310605 
L 67.97027 -137.330331 
L 68.122604 -137.348357 
L 68.274939 -137.364703 
L 68.427273 -137.379385 
L 68.579607 -137.392422 
L 68.731941 -137.403831 
L 68.884275 -137.413629 
L 69.036609 -137.421834 
L 69.188943 -137.428464 
L 69.341278 -137.433536 
L 69.493612 -137.437067 
L 69.645946 -137.439076 
L 69.79828 -137.439578 
L 69.950614 -137.43859 
L 70.102948 -137.436131 
L 70.255283 -137.432215 
L 70.407617 -137.42686 
L 70.559951 -137.420082 
L 70.712285 -137.411897 
L 70.864619 -137.40232 
L 71.016953 -137.391368 
L 71.169287 -137.379054 
L 71.321622 -137.365395 
L 71.473956 -137.350405 
L 71.62629 -137.334099 
L 71.778624 -137.31649 
L 71.930958 -137.297592 
L 72.083292 -137.277419 
L 72.235627 -137.255984 
L 72.387961 -137.2333 
L 72.540295 -137.209379 
L 72.692629 -137.184233 
L 72.844963 -137.157875 
L 72.997297 -137.130316 
L 73.149631 -137.101567 
L 73.301966 -137.071638 
L 73.4543 -137.040541 
L 73.606634 -137.008284 
L 73.758968 -136.974879 
L 73.911302 -136.940334 
L 74.063636 -136.904658 
L 74.215971 -136.867861 
L 74.368305 -136.829949 
L 74.520639 -136.790932 
L 74.672973 -136.750816 
L 74.825307 -136.70961 
L 74.977641 -136.66732 
L 75.129975 -136.623953 
L 75.28231 -136.579515 
L 75.434644 -136.534012 
L 75.586978 -136.48745 
L 75.739312 -136.439834 
L 75.891646 -136.39117 
L 76.04398 -136.341462 
L 76.196314 -136.290715 
L 76.348649 -136.238933 
L 76.500983 -136.186121 
L 76.653317 -136.132281 
L 76.805651 -136.077418 
L 76.957985 -136.021536 
L 77.110319 -135.964637 
L 77.262654 -135.906724 
L 77.414988 -135.8478 
L 77.567322 -135.787868 
L 77.719656 -135.72693 
L 77.87199 -135.664989 
L 78.024324 -135.602047 
L 78.176658 -135.538105 
L 78.328993 -135.473167 
L 78.481327 -135.407233 
L 78.633661 -135.340306 
L 78.785995 -135.272388 
L 78.938329 -135.203479 
L 79.090663 -135.133582 
L 79.242998 -135.062698 
L 79.395332 -134.990829 
L 79.547666 -134.917977 
L 79.7 -134.844142 
L 79.852334 -134.769327 
L 80.004668 -134.693533 
L 80.157002 -134.616762 
L 80.309337 -134.539015 
L 80.461671 -134.460294 
L 80.614005 -134.3806 
L 80.766339 -134.299937 
L 80.918673 -134.218305 
L 81.071007 -134.135706 
L 81.223342 -134.052143 
L 81.375676 -133.967618 
L 81.52801 -133.882132 
L 81.680344 -133.795689 
L 81.832678 -133.70829 
L 81.985012 -133.619938 
L 82.137346 -133.530636 
L 82.289681 -133.440387 
L 82.442015 -133.349194 
L 82.594349 -133.257058 
L 82.746683 -133.163984 
L 82.899017 -133.069975 
L 83.051351 -132.975034 
L 83.203686 -132.879164 
L 83.35602 -132.782369 
L 83.508354 -132.684653 
L 83.660688 -132.586018 
L 83.813022 -132.48647 
L 83.965356 -132.386011 
L 84.11769 -132.284646 
L 84.270025 -132.182379 
L 84.422359 -132.079213 
L 84.574693 -131.975153 
L 84.727027 -131.870203 
L 84.879361 -131.764368 
L 85.031695 -131.65765 
L 85.184029 -131.550055 
L 85.336364 -131.441586 
L 85.488698 -131.332249 
L 85.641032 -131.222046 
L 85.793366 -131.110982 
L 85.9457 -130.999062 
L 86.098034 -130.886289 
L 86.250369 -130.772666 
L 86.402703 -130.658199 
L 86.555037 -130.54289 
L 86.707371 -130.426744 
L 86.859705 -130.309763 
L 87.012039 -130.191951 
L 87.164373 -130.073312 
L 87.316708 -129.953848 
L 87.469042 -129.833562 
L 87.621376 -129.712457 
L 87.77371 -129.590536 
L 87.926044 -129.4678 
L 88.078378 -129.344251 
L 88.230713 -129.219892 
L 88.383047 -129.094723 
L 88.535381 -128.968746 
L 88.687715 -128.841962 
L 88.840049 -128.714372 
L 88.992383 -128.585975 
L 89.144717 -128.456772 
L 89.297052 -128.326763 
L 89.449386 -128.195946 
L 89.60172 -128.064321 
L 89.754054 -127.931887 
L 89.906388 -127.798642 
L 90.058722 -127.664584 
L 90.211057 -127.529709 
L 90.363391 -127.394017 
L 90.515725 -127.257503 
L 90.668059 -127.120163 
L 90.820393 -126.981994 
L 90.972727 -126.842992 
L 91.125061 -126.703151 
L 91.277396 -126.562466 
L 91.42973 -126.420933 
L 91.582064 -126.278544 
L 91.734398 -126.135294 
L 91.886732 -125.991176 
L 92.039066 -125.846182 
L 92.1914 -125.700306 
L 92.343735 -125.553539 
L 92.496069 -125.405872 
L 92.648403 -125.257298 
L 92.800737 -125.107807 
L 92.953071 -124.95739 
L 93.105405 -124.806037 
L 93.25774 -124.653738 
L 93.410074 -124.500483 
L 93.562408 -124.34626 
L 93.714742 -124.191059 
L 93.867076 -124.034869 
L 94.01941 -123.877678 
L 94.171744 -123.719473 
L 94.324079 -123.560244 
L 94.476413 -123.399977 
L 94.628747 -123.23866 
L 94.781081 -123.076281 
L 94.933415 -122.912825 
L 95.085749 -122.748281 
L 95.238084 -122.582635 
L 95.390418 -122.415874 
L 95.542752 -122.247984 
L 95.695086 -122.078951 
L 95.84742 -121.908763 
L 95.999754 -121.737405 
L 96.152088 -121.564864 
L 96.304423 -121.391127 
L 96.456757 -121.216179 
L 96.609091 -121.040008 
L 96.761425 -120.8626 
L 96.913759 -120.683941 
L 97.066093 -120.504019 
L 97.218428 -120.322821 
L 97.370762 -120.140333 
L 97.523096 -119.956544 
L 97.67543 -119.771441 
L 97.827764 -119.585012 
L 97.980098 -119.397246 
L 98.132432 -119.20813 
L 98.284767 -119.017655 
L 98.437101 -118.825808 
L 98.589435 -118.632581 
L 98.741769 -118.437962 
L 98.894103 -118.241944 
L 99.046437 -118.044516 
L 99.198771 -117.84567 
L 99.351106 -117.645399 
L 99.50344 -117.443694 
L 99.655774 -117.24055 
L 99.808108 -117.03596 
L 99.960442 -116.829917 
L 100.112776 -116.622418 
L 100.265111 -116.413457 
L 100.417445 -116.203031 
L 100.569779 -115.991136 
L 100.722113 -115.77777 
L 100.874447 -115.562932 
L 101.026781 -115.34662 
L 101.179115 -115.128833 
L 101.33145 -114.909572 
L 101.483784 -114.688838 
L 101.636118 -114.466632 
L 101.788452 -114.242957 
L 101.940786 -114.017817 
L 102.09312 -113.791214 
L 102.245455 -113.563155 
L 102.397789 -113.333643 
L 102.550123 -113.102685 
L 102.702457 -112.870289 
L 102.854791 -112.636461 
L 103.007125 -112.40121 
L 103.159459 -112.164545 
L 103.311794 -111.926476 
L 103.464128 -111.687012 
L 103.616462 -111.446166 
L 103.768796 -111.203949 
L 103.92113 -110.960374 
L 104.073464 -110.715454 
L 104.225799 -110.469202 
L 104.378133 -110.221633 
L 104.530467 -109.972763 
L 104.682801 -109.722607 
L 104.835135 -109.471181 
L 104.987469 -109.218503 
L 105.139803 -108.96459 
L 105.292138 -108.70946 
L 105.444472 -108.453131 
L 105.596806 -108.195624 
L 105.74914 -107.936957 
L 105.901474 -107.67715 
L 106.053808 -107.416226 
L 106.206143 -107.154204 
L 106.358477 -106.891106 
L 106.510811 -106.626954 
L 106.663145 -106.361771 
L 106.815479 -106.095579 
L 106.967813 -105.828402 
L 107.120147 -105.560264 
L 107.272482 -105.291188 
L 107.424816 -105.021198 
L 107.57715 -104.750319 
L 107.729484 -104.478576 
L 107.881818 -104.205995 
L 108.034152 -103.9326 
L 108.186486 -103.658418 
L 108.338821 -103.383473 
L 108.491155 -103.107794 
L 108.643489 -102.831405 
L 108.795823 -102.554334 
L 108.948157 -102.276607 
L 109.100491 -101.998252 
L 109.252826 -101.719295 
L 109.40516 -101.439764 
L 109.557494 -101.159687 
L 109.709828 -100.87909 
L 109.862162 -100.598002 
L 110.014496 -100.316451 
L 110.16683 -100.034465 
L 110.319165 -99.752071 
L 110.471499 -99.469298 
L 110.623833 -99.186174 
L 110.776167 -98.902728 
L 110.928501 -98.618988 
L 111.080835 -98.334982 
L 111.23317 -98.050739 
L 111.385504 -97.766288 
L 111.537838 -97.481656 
L 111.690172 -97.196874 
L 111.842506 -96.91197 
L 111.99484 -96.626972 
L 112.147174 -96.341909 
L 112.299509 -96.05681 
L 112.451843 -95.771705 
L 112.604177 -95.486621 
L 112.756511 -95.201587 
L 112.908845 -94.916634 
L 113.061179 -94.631788 
L 113.213514 -94.34708 
L 113.365848 -94.062538 
L 113.518182 -93.778191 
L 113.670516 -93.494067 
L 113.82285 -93.210197 
L 113.975184 -92.926608 
L 114.127518 -92.643329 
L 114.279853 -92.360389 
L 114.432187 -92.077816 
L 114.584521 -91.79564 
L 114.736855 -91.513889 
L 114.889189 -91.232591 
L 115.041523 -90.951775 
L 115.193857 -90.671469 
L 115.346192 -90.391702 
L 115.498526 -90.112502 
L 115.65086 -89.833897 
L 115.803194 -89.555915 
L 115.955528 -89.278584 
L 116.107862 -89.001933 
L 116.260197 -88.725987 
L 116.412531 -88.450777 
L 116.564865 -88.176328 
L 116.717199 -87.902667 
L 116.869533 -87.629823 
L 117.021867 -87.357822 
L 117.174201 -87.086691 
L 117.326536 -86.816456 
L 117.47887 -86.547144 
L 117.631204 -86.27878 
L 117.783538 -86.011391 
L 117.935872 -85.745001 
L 118.088206 -85.479637 
L 118.240541 -85.215323 
L 118.392875 -84.952083 
L 118.545209 -84.689943 
L 118.697543 -84.428925 
L 118.849877 -84.169054 
L 119.002211 -83.910352 
L 119.154545 -83.652842 
L 119.30688 -83.396546 
L 119.459214 -83.141486 
L 119.611548 -82.887683 
L 119.763882 -82.635158 
L 119.916216 -82.383931 
L 120.06855 -82.134021 
L 120.220885 -81.885447 
L 120.373219 -81.638228 
L 120.525553 -81.39238 
L 120.677887 -81.147922 
L 120.830221 -80.904868 
L 120.982555 -80.663234 
L 121.134889 -80.423036 
L 121.287224 -80.184285 
L 121.439558 -79.946996 
L 121.591892 -79.71118 
L 121.744226 -79.476848 
L 121.89656 -79.24401 
L 122.048894 -79.012675 
L 122.201229 -78.782851 
L 122.353563 -78.554545 
L 122.505897 -78.327762 
L 122.658231 -78.102506 
L 122.810565 -77.878782 
L 122.962899 -77.656592 
L 123.115233 -77.435935 
L 123.267568 -77.216812 
L 123.419902 -76.999221 
L 123.572236 -76.783159 
L 123.72457 -76.568621 
L 123.876904 -76.355601 
L 124.029238 -76.144091 
L 124.181572 -75.934084 
L 124.333907 -75.725567 
L 124.486241 -75.518529 
L 124.638575 -75.312956 
L 124.790909 -75.108834 
L 124.943243 -74.906145 
L 125.095577 -74.70487 
L 125.247912 -74.50499 
L 125.400246 -74.306483 
L 125.55258 -74.109326 
L 125.704914 -73.913492 
L 125.857248 -73.718956 
L 126.009582 -73.525688 
L 126.161916 -73.33366 
L 126.314251 -73.142838 
L 126.466585 -72.953191 
L 126.618919 -72.764682 
L 126.771253 -72.577275 
L 126.923587 -72.390933 
L 127.075921 -72.205616 
L 127.228256 -72.021283 
L 127.38059 -71.837891 
L 127.532924 -71.655398 
L 127.685258 -71.473759 
L 127.837592 -71.292928 
L 127.989926 -71.112858 
L 128.14226 -70.933501 
L 128.294595 -70.754809 
L 128.446929 -70.576732 
L 128.599263 -70.399221 
L 128.751597 -70.222225 
L 128.903931 -70.045693 
L 129.056265 -69.869575 
L 129.2086 -69.693818 
L 129.360934 -69.518373 
L 129.513268 -69.343189 
L 129.665602 -69.168215 
L 129.817936 -68.993401 
L 129.97027 -68.818698 
L 130.122604 -68.644058 
L 130.274939 -68.469434 
L 130.427273 -68.294779 
L 130.579607 -68.120048 
L 130.731941 -67.945199 
L 130.884275 -67.770189 
L 131.036609 -67.594979 
L 131.188943 -67.41953 
L 131.341278 -67.243806 
L 131.493612 -67.067773 
L 131.645946 -66.891399 
L 131.79828 -66.714655 
L 131.950614 -66.537513 
L 132.102948 -66.35995 
L 132.255283 -66.181943 
L 132.407617 -66.003473 
L 132.559951 -65.824523 
L 132.712285 -65.645079 
L 132.864619 -65.465129 
L 133.016953 -65.284666 
L 133.169287 -65.103682 
L 133.321622 -64.922175 
L 133.473956 -64.740144 
L 133.62629 -64.557591 
L 133.778624 -64.374521 
L 133.930958 -64.19094 
L 134.083292 -64.006859 
L 134.235627 -63.822288 
L 134.387961 -63.637243 
L 134.540295 -63.451739 
L 134.692629 -63.265795 
L 134.844963 -63.079431 
L 134.997297 -62.892669 
L 135.149631 -62.705535 
L 135.301966 -62.518053 
L 135.4543 -62.33025 
L 135.606634 -62.142157 
L 135.758968 -61.953803 
L 135.911302 -61.76522 
L 136.063636 -61.57644 
L 136.215971 -61.387497 
L 136.368305 -61.198427 
L 136.520639 -61.009263 
L 136.672973 -60.820044 
L 136.825307 -60.630806 
L 136.977641 -60.441586 
L 137.129975 -60.252423 
L 137.28231 -60.063355 
L 137.434644 -59.874421 
L 137.586978 -59.68566 
L 137.739312 -59.497111 
L 137.891646 -59.308813 
L 138.04398 -59.120807 
L 138.196314 -58.93313 
L 138.348649 -58.745823 
L 138.500983 -58.558925 
L 138.653317 -58.372474 
L 138.805651 -58.186509 
L 138.957985 -58.001069 
L 139.110319 -57.816191 
L 139.262654 -57.631914 
L 139.414988 -57.448274 
L 139.567322 -57.265308 
L 139.719656 -57.083053 
L 139.87199 -56.901545 
L 140.024324 -56.720819 
L 140.176658 -56.540909 
L 140.328993 -56.36185 
L 140.481327 -56.183676 
L 140.633661 -56.00642 
L 140.785995 -55.830113 
L 140.938329 -55.654788 
L 141.090663 -55.480476 
L 141.242998 -55.307207 
L 141.395332 -55.135012 
L 141.547666 -54.963918 
L 141.7 -54.793954 
L 141.852334 -54.625149 
L 142.004668 -54.457529 
L 142.157002 -54.291119 
L 142.309337 -54.125947 
L 142.461671 -53.962036 
L 142.614005 -53.799411 
L 142.766339 -53.638094 
L 142.918673 -53.478109 
L 143.071007 -53.319478 
L 143.223342 -53.162221 
L 143.375676 -53.006359 
L 143.52801 -52.851912 
L 143.680344 -52.698899 
L 143.832678 -52.547338 
L 143.985012 -52.397246 
L 144.137346 -52.24864 
L 144.289681 -52.101537 
L 144.442015 -51.955952 
L 144.594349 -51.8119 
L 144.746683 -51.669394 
L 144.899017 -51.528449 
L 145.051351 -51.389075 
L 145.203686 -51.251287 
L 145.35602 -51.115094 
L 145.508354 -50.980508 
L 145.660688 -50.847538 
L 145.813022 -50.716194 
L 145.965356 -50.586484 
L 146.11769 -50.458416 
L 146.270025 -50.331999 
L 146.422359 -50.207237 
L 146.574693 -50.084139 
L 146.727027 -49.962709 
L 146.879361 -49.842951 
L 147.031695 -49.724872 
L 147.184029 -49.608473 
L 147.336364 -49.493759 
L 147.488698 -49.380733 
L 147.641032 -49.269395 
L 147.793366 -49.159748 
L 147.9457 -49.051793 
L 148.098034 -48.94553 
L 148.250369 -48.840959 
L 148.402703 -48.738081 
L 148.555037 -48.636893 
L 148.707371 -48.537394 
L 148.859705 -48.439582 
L 149.012039 -48.343456 
L 149.164373 -48.249011 
L 149.316708 -48.156246 
L 149.469042 -48.065156 
L 149.621376 -47.975736 
L 149.77371 -47.887983 
L 149.926044 -47.801892 
L 150.078378 -47.717457 
L 150.230713 -47.634674 
L 150.383047 -47.553534 
L 150.535381 -47.474034 
L 150.687715 -47.396165 
L 150.840049 -47.319921 
L 150.992383 -47.245295 
L 151.144717 -47.172278 
L 151.297052 -47.100865 
L 151.449386 -47.031045 
L 151.60172 -46.962811 
L 151.754054 -46.896154 
L 151.906388 -46.831065 
L 152.058722 -46.767536 
L 152.211057 -46.705557 
L 152.363391 -46.645118 
L 152.515725 -46.58621 
L 152.668059 -46.528824 
L 152.820393 -46.472948 
L 152.972727 -46.418573 
L 153.125061 -46.365689 
L 153.277396 -46.314285 
L 153.42973 -46.26435 
L 153.582064 -46.215874 
L 153.734398 -46.168846 
L 153.886732 -46.123256 
L 154.039066 -46.079091 
L 154.1914 -46.036342 
L 154.343735 -45.994997 
L 154.496069 -45.955044 
L 154.648403 -45.916474 
L 154.800737 -45.879273 
L 154.953071 -45.843432 
L 155.105405 -45.808938 
L 155.25774 -45.77578 
L 155.410074 -45.743947 
L 155.562408 -45.713428 
L 155.714742 -45.684211 
L 155.867076 -45.656284 
L 156.01941 -45.629637 
L 156.171744 -45.604258 
L 156.324079 -45.580136 
L 156.476413 -45.557259 
L 156.628747 -45.535615 
L 156.781081 -45.515195 
L 156.933415 -45.495987 
L 157.085749 -45.477978 
L 157.238084 -45.46116 
L 157.390418 -45.445519 
L 157.542752 -45.431046 
L 157.695086 -45.417729 
L 157.84742 -45.405558 
L 157.999754 -45.394521 
L 158.152088 -45.384608 
L 158.304423 -45.375809 
L 158.456757 -45.368111 
L 158.609091 -45.361506 
L 158.761425 -45.355983 
L 158.913759 -45.35153 
L 159.066093 -45.348139 
L 159.218428 -45.345797 
L 159.370762 -45.344496 
L 159.523096 -45.344225 
L 159.67543 -45.344975 
L 159.827764 -45.346734 
L 159.980098 -45.349493 
L 160.132432 -45.353242 
L 160.284767 -45.357972 
L 160.437101 -45.363673 
L 160.589435 -45.370334 
L 160.741769 -45.377947 
L 160.894103 -45.386502 
L 161.046437 -45.39599 
L 161.198771 -45.4064 
L 161.351106 -45.417723 
L 161.50344 -45.429951 
L 161.655774 -45.443074 
L 161.808108 -45.457083 
L 161.960442 -45.471968 
L 162.112776 -45.487721 
L 162.265111 -45.504332 
L 162.417445 -45.521792 
L 162.569779 -45.540092 
L 162.722113 -45.559224 
L 162.874447 -45.579178 
L 163.026781 -45.599946 
L 163.179115 -45.621518 
L 163.33145 -45.643886 
L 163.483784 -45.667041 
L 163.636118 -45.690974 
L 163.788452 -45.715676 
L 163.940786 -45.741139 
L 164.09312 -45.767354 
L 164.245455 -45.794312 
L 164.397789 -45.822005 
L 164.550123 -45.850423 
L 164.702457 -45.879559 
L 164.854791 -45.909403 
L 165.007125 -45.939948 
L 165.159459 -45.971184 
L 165.311794 -46.003103 
L 165.464128 -46.035696 
L 165.616462 -46.068955 
L 165.768796 -46.102871 
L 165.92113 -46.137436 
L 166.073464 -46.172642 
L 166.225799 -46.208479 
L 166.378133 -46.24494 
L 166.530467 -46.282017 
L 166.682801 -46.3197 
L 166.835135 -46.357981 
L 166.987469 -46.396853 
L 167.139803 -46.436306 
L 167.292138 -46.476334 
L 167.444472 -46.516927 
L 167.596806 -46.558077 
L 167.74914 -46.599777 
L 167.901474 -46.642019 
L 168.053808 -46.684794 
L 168.206143 -46.728094 
L 168.358477 -46.771912 
L 168.510811 -46.81624 
L 168.663145 -46.861071 
L 168.815479 -46.906396 
L 168.967813 -46.952209 
L 169.120147 -46.998501 
L 169.272482 -47.045266 
L 169.424816 -47.092497 
L 169.57715 -47.140185 
L 169.729484 -47.188326 
L 169.881818 -47.23691 
L 170.034152 -47.285933 
L 170.186486 -47.335387 
L 170.338821 -47.385265 
L 170.491155 -47.435563 
L 170.643489 -47.486273 
L 170.795823 -47.537389 
L 170.948157 -47.588906 
L 171.100491 -47.640818 
L 171.252826 -47.69312 
L 171.40516 -47.745807 
L 171.557494 -47.798873 
L 171.709828 -47.852314 
L 171.862162 -47.906125 
L 172.014496 -47.960302 
L 172.16683 -48.01484 
L 172.319165 -48.069736 
L 172.471499 -48.124986 
L 172.623833 -48.180587 
L 172.776167 -48.236535 
L 172.928501 -48.292828 
L 173.080835 -48.349463 
L 173.23317 -48.406437 
L 173.385504 -48.463749 
L 173.537838 -48.521396 
L 173.690172 -48.579377 
L 173.842506 -48.637692 
L 173.99484 -48.696338 
L 174.147174 -48.755315 
L 174.299509 -48.814624 
L 174.451843 -48.874263 
L 174.604177 -48.934234 
L 174.756511 -48.994536 
L 174.908845 -49.055172 
L 175.061179 -49.116141 
L 175.213514 -49.177446 
L 175.365848 -49.239089 
L 175.518182 -49.301072 
L 175.670516 -49.363397 
L 175.82285 -49.426067 
L 175.975184 -49.489085 
L 176.127518 -49.552456 
L 176.279853 -49.616183 
L 176.432187 -49.68027 
L 176.584521 -49.744722 
L 176.736855 -49.809543 
L 176.889189 -49.87474 
L 177.041523 -49.940317 
L 177.193857 -50.00628 
L 177.346192 -50.072635 
L 177.498526 -50.139389 
L 177.65086 -50.20655 
L 177.803194 -50.274122 
L 177.955528 -50.342116 
L 178.107862 -50.410537 
L 178.260197 -50.479394 
L 178.412531 -50.548695 
L 178.564865 -50.618448 
L 178.717199 -50.688664 
L 178.869533 -50.75935 
L 179.021867 -50.830515 
L 179.174201 -50.902171 
L 179.326536 -50.974325 
L 179.47887 -51.046989 
L 179.631204 -51.120172 
L 179.783538 -51.193885 
L 179.935872 -51.268139 
L 180.088206 -51.342945 
L 180.240541 -51.418313 
L 180.392875 -51.494255 
L 180.545209 -51.570781 
L 180.697543 -51.647905 
L 180.849877 -51.725636 
L 181.002211 -51.803987 
L 181.154545 -51.88297 
L 181.30688 -51.962597 
L 181.459214 -52.042879 
L 181.611548 -52.123829 
L 181.763882 -52.205459 
L 181.916216 -52.28778 
L 182.06855 -52.370806 
L 182.220885 -52.454549 
L 182.373219 -52.539019 
L 182.525553 -52.624231 
L 182.677887 -52.710196 
L 182.830221 -52.796925 
L 182.982555 -52.884432 
L 183.134889 -52.972728 
L 183.287224 -53.061825 
L 183.439558 -53.151734 
L 183.591892 -53.242469 
L 183.744226 -53.334039 
L 183.89656 -53.426456 
L 184.048894 -53.519732 
L 184.201229 -53.613878 
L 184.353563 -53.708904 
L 184.505897 -53.804822 
L 184.658231 -53.901641 
L 184.810565 -53.999372 
L 184.962899 -54.098025 
L 185.115233 -54.19761 
L 185.267568 -54.298136 
L 185.419902 -54.399612 
L 185.572236 -54.502047 
L 185.72457 -54.60545 
L 185.876904 -54.709829 
L 186.029238 -54.815192 
L 186.181572 -54.921546 
L 186.333907 -55.028898 
L 186.486241 -55.137256 
L 186.638575 -55.246626 
L 186.790909 -55.357013 
L 186.790909 -148.947481 
L 186.790909 -148.947481 
L 186.638575 -148.9774 
L 186.486241 -149.005308 
L 186.333907 -149.031203 
L 186.181572 -149.055083 
L 186.029238 -149.076949 
L 185.876904 -149.096798 
L 185.72457 -149.114631 
L 185.572236 -149.130447 
L 185.419902 -149.144246 
L 185.267568 -149.15603 
L 185.115233 -149.1658 
L 184.962899 -149.173556 
L 184.810565 -149.1793 
L 184.658231 -149.183035 
L 184.505897 -149.184762 
L 184.353563 -149.184484 
L 184.201229 -149.182204 
L 184.048894 -149.177925 
L 183.89656 -149.17165 
L 183.744226 -149.163383 
L 183.591892 -149.153128 
L 183.439558 -149.140888 
L 183.287224 -149.126667 
L 183.134889 -149.110471 
L 182.982555 -149.092303 
L 182.830221 -149.072168 
L 182.677887 -149.050071 
L 182.525553 -149.026018 
L 182.373219 -149.000012 
L 182.220885 -148.97206 
L 182.06855 -148.942166 
L 181.916216 -148.910337 
L 181.763882 -148.876577 
L 181.611548 -148.840892 
L 181.459214 -148.803288 
L 181.30688 -148.76377 
L 181.154545 -148.722344 
L 181.002211 -148.679017 
L 180.849877 -148.633792 
L 180.697543 -148.586677 
L 180.545209 -148.537677 
L 180.392875 -148.486797 
L 180.240541 -148.434044 
L 180.088206 -148.379423 
L 179.935872 -148.32294 
L 179.783538 -148.2646 
L 179.631204 -148.204408 
L 179.47887 -148.142371 
L 179.326536 -148.078493 
L 179.174201 -148.012779 
L 179.021867 -147.945236 
L 178.869533 -147.875867 
L 178.717199 -147.804679 
L 178.564865 -147.731675 
L 178.412531 -147.65686 
L 178.260197 -147.58024 
L 178.107862 -147.501818 
L 177.955528 -147.4216 
L 177.803194 -147.339588 
L 177.65086 -147.255788 
L 177.498526 -147.170203 
L 177.346192 -147.082838 
L 177.193857 -146.993695 
L 177.041523 -146.902778 
L 176.889189 -146.810091 
L 176.736855 -146.715637 
L 176.584521 -146.61942 
L 176.432187 -146.521441 
L 176.279853 -146.421704 
L 176.127518 -146.320211 
L 175.975184 -146.216966 
L 175.82285 -146.111969 
L 175.670516 -146.005225 
L 175.518182 -145.896733 
L 175.365848 -145.786498 
L 175.213514 -145.67452 
L 175.061179 -145.560801 
L 174.908845 -145.445342 
L 174.756511 -145.328146 
L 174.604177 -145.209213 
L 174.451843 -145.088545 
L 174.299509 -144.966143 
L 174.147174 -144.842007 
L 173.99484 -144.71614 
L 173.842506 -144.58854 
L 173.690172 -144.45921 
L 173.537838 -144.32815 
L 173.385504 -144.195361 
L 173.23317 -144.060843 
L 173.080835 -143.924596 
L 172.928501 -143.786622 
L 172.776167 -143.64692 
L 172.623833 -143.505491 
L 172.471499 -143.362336 
L 172.319165 -143.217454 
L 172.16683 -143.070846 
L 172.014496 -142.922513 
L 171.862162 -142.772454 
L 171.709828 -142.620671 
L 171.557494 -142.467164 
L 171.40516 -142.311933 
L 171.252826 -142.154978 
L 171.100491 -141.996301 
L 170.948157 -141.835902 
L 170.795823 -141.673781 
L 170.643489 -141.50994 
L 170.491155 -141.34438 
L 170.338821 -141.177101 
L 170.186486 -141.008105 
L 170.034152 -140.837393 
L 169.881818 -140.664966 
L 169.729484 -140.490826 
L 169.57715 -140.314974 
L 169.424816 -140.137413 
L 169.272482 -139.958144 
L 169.120147 -139.77717 
L 168.967813 -139.594493 
L 168.815479 -139.410115 
L 168.663145 -139.224039 
L 168.510811 -139.036269 
L 168.358477 -138.846807 
L 168.206143 -138.655656 
L 168.053808 -138.462821 
L 167.901474 -138.268304 
L 167.74914 -138.072111 
L 167.596806 -137.874245 
L 167.444472 -137.67471 
L 167.292138 -137.473513 
L 167.139803 -137.270657 
L 166.987469 -137.066147 
L 166.835135 -136.859991 
L 166.682801 -136.652192 
L 166.530467 -136.442758 
L 166.378133 -136.231694 
L 166.225799 -136.019008 
L 166.073464 -135.804706 
L 165.92113 -135.588795 
L 165.768796 -135.371283 
L 165.616462 -135.152178 
L 165.464128 -134.931487 
L 165.311794 -134.709219 
L 165.159459 -134.485383 
L 165.007125 -134.259988 
L 164.854791 -134.033042 
L 164.702457 -133.804555 
L 164.550123 -133.574538 
L 164.397789 -133.342999 
L 164.245455 -133.10995 
L 164.09312 -132.875401 
L 163.940786 -132.639363 
L 163.788452 -132.401848 
L 163.636118 -132.162866 
L 163.483784 -131.92243 
L 163.33145 -131.680551 
L 163.179115 -131.437243 
L 163.026781 -131.192517 
L 162.874447 -130.946387 
L 162.722113 -130.698866 
L 162.569779 -130.449967 
L 162.417445 -130.199704 
L 162.265111 -129.948091 
L 162.112776 -129.695142 
L 161.960442 -129.440872 
L 161.808108 -129.185296 
L 161.655774 -128.928428 
L 161.50344 -128.670284 
L 161.351106 -128.410879 
L 161.198771 -128.15023 
L 161.046437 -127.888352 
L 160.894103 -127.625261 
L 160.741769 -127.360973 
L 160.589435 -127.095506 
L 160.437101 -126.828877 
L 160.284767 -126.561102 
L 160.132432 -126.292199 
L 159.980098 -126.022185 
L 159.827764 -125.751078 
L 159.67543 -125.478896 
L 159.523096 -125.205657 
L 159.370762 -124.93138 
L 159.218428 -124.656083 
L 159.066093 -124.379785 
L 158.913759 -124.102505 
L 158.761425 -123.824261 
L 158.609091 -123.545074 
L 158.456757 -123.264962 
L 158.304423 -122.983946 
L 158.152088 -122.702045 
L 157.999754 -122.419279 
L 157.84742 -122.135669 
L 157.695086 -121.851234 
L 157.542752 -121.565995 
L 157.390418 -121.279973 
L 157.238084 -120.99319 
L 157.085749 -120.705665 
L 156.933415 -120.41742 
L 156.781081 -120.128476 
L 156.628747 -119.838855 
L 156.476413 -119.548579 
L 156.324079 -119.25767 
L 156.171744 -118.966149 
L 156.01941 -118.674038 
L 155.867076 -118.381361 
L 155.714742 -118.08814 
L 155.562408 -117.794396 
L 155.410074 -117.500154 
L 155.25774 -117.205437 
L 155.105405 -116.910266 
L 154.953071 -116.614667 
L 154.800737 -116.318662 
L 154.648403 -116.022276 
L 154.496069 -115.725532 
L 154.343735 -115.428454 
L 154.1914 -115.131067 
L 154.039066 -114.833396 
L 153.886732 -114.535465 
L 153.734398 -114.237299 
L 153.582064 -113.938924 
L 153.42973 -113.640364 
L 153.277396 -113.341646 
L 153.125061 -113.042795 
L 152.972727 -112.743837 
L 152.820393 -112.444799 
L 152.668059 -112.145708 
L 152.515725 -111.846589 
L 152.363391 -111.547471 
L 152.211057 -111.24838 
L 152.058722 -110.949344 
L 151.906388 -110.650391 
L 151.754054 -110.351549 
L 151.60172 -110.052847 
L 151.449386 -109.754313 
L 151.297052 -109.455975 
L 151.144717 -109.157865 
L 150.992383 -108.86001 
L 150.840049 -108.562441 
L 150.687715 -108.265189 
L 150.535381 -107.968283 
L 150.383047 -107.671755 
L 150.230713 -107.375635 
L 150.078378 -107.079956 
L 149.926044 -106.784748 
L 149.77371 -106.490046 
L 149.621376 -106.19588 
L 149.469042 -105.902284 
L 149.316708 -105.609292 
L 149.164373 -105.316936 
L 149.012039 -105.025252 
L 148.859705 -104.734273 
L 148.707371 -104.444034 
L 148.555037 -104.154571 
L 148.402703 -103.865919 
L 148.250369 -103.578115 
L 148.098034 -103.291194 
L 147.9457 -103.005193 
L 147.793366 -102.720151 
L 147.641032 -102.436104 
L 147.488698 -102.15309 
L 147.336364 -101.871149 
L 147.184029 -101.590318 
L 147.031695 -101.310638 
L 146.879361 -101.032149 
L 146.727027 -100.75489 
L 146.574693 -100.478902 
L 146.422359 -100.204226 
L 146.270025 -99.930904 
L 146.11769 -99.658978 
L 145.965356 -99.388491 
L 145.813022 -99.119484 
L 145.660688 -98.852002 
L 145.508354 -98.586089 
L 145.35602 -98.321788 
L 145.203686 -98.059145 
L 145.051351 -97.798204 
L 144.899017 -97.53901 
L 144.746683 -97.281611 
L 144.594349 -97.026052 
L 144.442015 -96.77238 
L 144.289681 -96.520643 
L 144.137346 -96.270889 
L 143.985012 -96.023164 
L 143.832678 -95.777519 
L 143.680344 -95.534002 
L 143.52801 -95.292662 
L 143.375676 -95.05355 
L 143.223342 -94.816716 
L 143.071007 -94.58221 
L 142.918673 -94.350083 
L 142.766339 -94.120387 
L 142.614005 -93.893174 
L 142.461671 -93.668495 
L 142.309337 -93.446404 
L 142.157002 -93.226954 
L 142.004668 -93.010197 
L 141.852334 -92.796187 
L 141.7 -92.584978 
L 141.547666 -92.376625 
L 141.395332 -92.171182 
L 141.242998 -91.968704 
L 141.090663 -91.769245 
L 140.938329 -91.572862 
L 140.785995 -91.37961 
L 140.633661 -91.189544 
L 140.481327 -91.002721 
L 140.328993 -90.819197 
L 140.176658 -90.639028 
L 140.024324 -90.462271 
L 139.87199 -90.288982 
L 139.719656 -90.119218 
L 139.567322 -89.953036 
L 139.414988 -89.790492 
L 139.262654 -89.631643 
L 139.110319 -89.476545 
L 138.957985 -89.325256 
L 138.805651 -89.177832 
L 138.653317 -89.034328 
L 138.500983 -88.894802 
L 138.348649 -88.759308 
L 138.196314 -88.627902 
L 138.04398 -88.500639 
L 137.891646 -88.377574 
L 137.739312 -88.258761 
L 137.586978 -88.144253 
L 137.434644 -88.034103 
L 137.28231 -87.928363 
L 137.129975 -87.827085 
L 136.977641 -87.73032 
L 136.825307 -87.638116 
L 136.672973 -87.550523 
L 136.520639 -87.467587 
L 136.368305 -87.389356 
L 136.215971 -87.315873 
L 136.063636 -87.247183 
L 135.911302 -87.183327 
L 135.758968 -87.124346 
L 135.606634 -87.070278 
L 135.4543 -87.02116 
L 135.301966 -86.977027 
L 135.149631 -86.937912 
L 134.997297 -86.903845 
L 134.844963 -86.874854 
L 134.692629 -86.850966 
L 134.540295 -86.832204 
L 134.387961 -86.818589 
L 134.235627 -86.810138 
L 134.083292 -86.806868 
L 133.930958 -86.80879 
L 133.778624 -86.815914 
L 133.62629 -86.828247 
L 133.473956 -86.845791 
L 133.321622 -86.868546 
L 133.169287 -86.896509 
L 133.016953 -86.929674 
L 132.864619 -86.968029 
L 132.712285 -87.011563 
L 132.559951 -87.060258 
L 132.407617 -87.114093 
L 132.255283 -87.173046 
L 132.102948 -87.237088 
L 131.950614 -87.306189 
L 131.79828 -87.380316 
L 131.645946 -87.459431 
L 131.493612 -87.543493 
L 131.341278 -87.63246 
L 131.188943 -87.726285 
L 131.036609 -87.824918 
L 130.884275 -87.928307 
L 130.731941 -88.036397 
L 130.579607 -88.149129 
L 130.427273 -88.266445 
L 130.274939 -88.38828 
L 130.122604 -88.514572 
L 129.97027 -88.645252 
L 129.817936 -88.780253 
L 129.665602 -88.919505 
L 129.513268 -89.062934 
L 129.360934 -89.210469 
L 129.2086 -89.362034 
L 129.056265 -89.517555 
L 128.903931 -89.676955 
L 128.751597 -89.840156 
L 128.599263 -90.007082 
L 128.446929 -90.177653 
L 128.294595 -90.351791 
L 128.14226 -90.529418 
L 127.989926 -90.710455 
L 127.837592 -90.894823 
L 127.685258 -91.082444 
L 127.532924 -91.273239 
L 127.38059 -91.46713 
L 127.228256 -91.664041 
L 127.075921 -91.863895 
L 126.923587 -92.066616 
L 126.771253 -92.272128 
L 126.618919 -92.480357 
L 126.466585 -92.691229 
L 126.314251 -92.904672 
L 126.161916 -93.120614 
L 126.009582 -93.338985 
L 125.857248 -93.559714 
L 125.704914 -93.782734 
L 125.55258 -94.007977 
L 125.400246 -94.235377 
L 125.247912 -94.464868 
L 125.095577 -94.696388 
L 124.943243 -94.929872 
L 124.790909 -95.16526 
L 124.638575 -95.40249 
L 124.486241 -95.641505 
L 124.333907 -95.882246 
L 124.181572 -96.124655 
L 124.029238 -96.368677 
L 123.876904 -96.614259 
L 123.72457 -96.861345 
L 123.572236 -97.109883 
L 123.419902 -97.359823 
L 123.267568 -97.611115 
L 123.115233 -97.863708 
L 122.962899 -98.117555 
L 122.810565 -98.372608 
L 122.658231 -98.628822 
L 122.505897 -98.886151 
L 122.353563 -99.144551 
L 122.201229 -99.403978 
L 122.048894 -99.66439 
L 121.89656 -99.925746 
L 121.744226 -100.188004 
L 121.591892 -100.451124 
L 121.439558 -100.715068 
L 121.287224 -100.979796 
L 121.134889 -101.245272 
L 120.982555 -101.511458 
L 120.830221 -101.778318 
L 120.677887 -102.045816 
L 120.525553 -102.313918 
L 120.373219 -102.582589 
L 120.220885 -102.851795 
L 120.06855 -103.121504 
L 119.916216 -103.391682 
L 119.763882 -103.662299 
L 119.611548 -103.933322 
L 119.459214 -104.204721 
L 119.30688 -104.476466 
L 119.154545 -104.748526 
L 119.002211 -105.020873 
L 118.849877 -105.293477 
L 118.697543 -105.566311 
L 118.545209 -105.839345 
L 118.392875 -106.112554 
L 118.240541 -106.38591 
L 118.088206 -106.659385 
L 117.935872 -106.932955 
L 117.783538 -107.206594 
L 117.631204 -107.480275 
L 117.47887 -107.753975 
L 117.326536 -108.027668 
L 117.174201 -108.30133 
L 117.021867 -108.574938 
L 116.869533 -108.848469 
L 116.717199 -109.121898 
L 116.564865 -109.395204 
L 116.412531 -109.668365 
L 116.260197 -109.941358 
L 116.107862 -110.214162 
L 115.955528 -110.486756 
L 115.803194 -110.759119 
L 115.65086 -111.031231 
L 115.498526 -111.303072 
L 115.346192 -111.574622 
L 115.193857 -111.845862 
L 115.041523 -112.116773 
L 114.889189 -112.387337 
L 114.736855 -112.657535 
L 114.584521 -112.92735 
L 114.432187 -113.196765 
L 114.279853 -113.465763 
L 114.127518 -113.734326 
L 113.975184 -114.00244 
L 113.82285 -114.270089 
L 113.670516 -114.537257 
L 113.518182 -114.803929 
L 113.365848 -115.070091 
L 113.213514 -115.335729 
L 113.061179 -115.60083 
L 112.908845 -115.865379 
L 112.756511 -116.129366 
L 112.604177 -116.392776 
L 112.451843 -116.655599 
L 112.299509 -116.917823 
L 112.147174 -117.179437 
L 111.99484 -117.440431 
L 111.842506 -117.700794 
L 111.690172 -117.960517 
L 111.537838 -118.21959 
L 111.385504 -118.478006 
L 111.23317 -118.735756 
L 111.080835 -118.992832 
L 110.928501 -119.249226 
L 110.776167 -119.504932 
L 110.623833 -119.759943 
L 110.471499 -120.014254 
L 110.319165 -120.267859 
L 110.16683 -120.520752 
L 110.014496 -120.772929 
L 109.862162 -121.024386 
L 109.709828 -121.275119 
L 109.557494 -121.525125 
L 109.40516 -121.7744 
L 109.252826 -122.022942 
L 109.100491 -122.27075 
L 108.948157 -122.51782 
L 108.795823 -122.764152 
L 108.643489 -123.009745 
L 108.491155 -123.254598 
L 108.338821 -123.498711 
L 108.186486 -123.742083 
L 108.034152 -123.984716 
L 107.881818 -124.22661 
L 107.729484 -124.467767 
L 107.57715 -124.708186 
L 107.424816 -124.947871 
L 107.272482 -125.186822 
L 107.120147 -125.425042 
L 106.967813 -125.662534 
L 106.815479 -125.899299 
L 106.663145 -126.135341 
L 106.510811 -126.370663 
L 106.358477 -126.605267 
L 106.206143 -126.839157 
L 106.053808 -127.072336 
L 105.901474 -127.304808 
L 105.74914 -127.536576 
L 105.596806 -127.767644 
L 105.444472 -127.998015 
L 105.292138 -128.227694 
L 105.139803 -128.456683 
L 104.987469 -128.684988 
L 104.835135 -128.91261 
L 104.682801 -129.139555 
L 104.530467 -129.365825 
L 104.378133 -129.591424 
L 104.225799 -129.816355 
L 104.073464 -130.040622 
L 103.92113 -130.264228 
L 103.768796 -130.487176 
L 103.616462 -130.709468 
L 103.464128 -130.931107 
L 103.311794 -131.152095 
L 103.159459 -131.372436 
L 103.007125 -131.592129 
L 102.854791 -131.811178 
L 102.702457 -132.029584 
L 102.550123 -132.247348 
L 102.397789 -132.46447 
L 102.245455 -132.680951 
L 102.09312 -132.896792 
L 101.940786 -133.111992 
L 101.788452 -133.326552 
L 101.636118 -133.540469 
L 101.483784 -133.753745 
L 101.33145 -133.966376 
L 101.179115 -134.178361 
L 101.026781 -134.389699 
L 100.874447 -134.600387 
L 100.722113 -134.810422 
L 100.569779 -135.019802 
L 100.417445 -135.228522 
L 100.265111 -135.43658 
L 100.112776 -135.643971 
L 99.960442 -135.85069 
L 99.808108 -136.056735 
L 99.655774 -136.262098 
L 99.50344 -136.466776 
L 99.351106 -136.670762 
L 99.198771 -136.874051 
L 99.046437 -137.076638 
L 98.894103 -137.278514 
L 98.741769 -137.479675 
L 98.589435 -137.680114 
L 98.437101 -137.879823 
L 98.284767 -138.078795 
L 98.132432 -138.277024 
L 97.980098 -138.474501 
L 97.827764 -138.671219 
L 97.67543 -138.867171 
L 97.523096 -139.062348 
L 97.370762 -139.256743 
L 97.218428 -139.450348 
L 97.066093 -139.643155 
L 96.913759 -139.835155 
L 96.761425 -140.026341 
L 96.609091 -140.216705 
L 96.456757 -140.406239 
L 96.304423 -140.594933 
L 96.152088 -140.782782 
L 95.999754 -140.969776 
L 95.84742 -141.155909 
L 95.695086 -141.341171 
L 95.542752 -141.525557 
L 95.390418 -141.709057 
L 95.238084 -141.891666 
L 95.085749 -142.073376 
L 94.933415 -142.25418 
L 94.781081 -142.434071 
L 94.628747 -142.613043 
L 94.476413 -142.791089 
L 94.324079 -142.968204 
L 94.171744 -143.144382 
L 94.01941 -143.319616 
L 93.867076 -143.493903 
L 93.714742 -143.667236 
L 93.562408 -143.839611 
L 93.410074 -144.011024 
L 93.25774 -144.18147 
L 93.105405 -144.350946 
L 92.953071 -144.519448 
L 92.800737 -144.686972 
L 92.648403 -144.853516 
L 92.496069 -145.019078 
L 92.343735 -145.183655 
L 92.1914 -145.347244 
L 92.039066 -145.509845 
L 91.886732 -145.671456 
L 91.734398 -145.832076 
L 91.582064 -145.991704 
L 91.42973 -146.150341 
L 91.277396 -146.307985 
L 91.125061 -146.464637 
L 90.972727 -146.620298 
L 90.820393 -146.774969 
L 90.668059 -146.92865 
L 90.515725 -147.081343 
L 90.363391 -147.23305 
L 90.211057 -147.383773 
L 90.058722 -147.533513 
L 89.906388 -147.682274 
L 89.754054 -147.830058 
L 89.60172 -147.976867 
L 89.449386 -148.122706 
L 89.297052 -148.267577 
L 89.144717 -148.411483 
L 88.992383 -148.554429 
L 88.840049 -148.696417 
L 88.687715 -148.837453 
L 88.535381 -148.97754 
L 88.383047 -149.116682 
L 88.230713 -149.254884 
L 88.078378 -149.392149 
L 87.926044 -149.528483 
L 87.77371 -149.66389 
L 87.621376 -149.798374 
L 87.469042 -149.931939 
L 87.316708 -150.064591 
L 87.164373 -150.196334 
L 87.012039 -150.327171 
L 86.859705 -150.457108 
L 86.707371 -150.586148 
L 86.555037 -150.714297 
L 86.402703 -150.841557 
L 86.250369 -150.967933 
L 86.098034 -151.093429 
L 85.9457 -151.218049 
L 85.793366 -151.341795 
L 85.641032 -151.464671 
L 85.488698 -151.586681 
L 85.336364 -151.707826 
L 85.184029 -151.82811 
L 85.031695 -151.947535 
L 84.879361 -152.066102 
L 84.727027 -152.183815 
L 84.574693 -152.300673 
L 84.422359 -152.416679 
L 84.270025 -152.531833 
L 84.11769 -152.646135 
L 83.965356 -152.759586 
L 83.813022 -152.872186 
L 83.660688 -152.983933 
L 83.508354 -153.094828 
L 83.35602 -153.204867 
L 83.203686 -153.314051 
L 83.051351 -153.422376 
L 82.899017 -153.52984 
L 82.746683 -153.636441 
L 82.594349 -153.742173 
L 82.442015 -153.847035 
L 82.289681 -153.951021 
L 82.137346 -154.054127 
L 81.985012 -154.156347 
L 81.832678 -154.257676 
L 81.680344 -154.358109 
L 81.52801 -154.457638 
L 81.375676 -154.556257 
L 81.223342 -154.653959 
L 81.071007 -154.750735 
L 80.918673 -154.846578 
L 80.766339 -154.94148 
L 80.614005 -155.03543 
L 80.461671 -155.128421 
L 80.309337 -155.220441 
L 80.157002 -155.311482 
L 80.004668 -155.401533 
L 79.852334 -155.490582 
L 79.7 -155.578619 
L 79.547666 -155.665632 
L 79.395332 -155.751609 
L 79.242998 -155.836537 
L 79.090663 -155.920406 
L 78.938329 -156.0032 
L 78.785995 -156.084909 
L 78.633661 -156.165517 
L 78.481327 -156.245012 
L 78.328993 -156.323379 
L 78.176658 -156.400605 
L 78.024324 -156.476676 
L 77.87199 -156.551575 
L 77.719656 -156.62529 
L 77.567322 -156.697805 
L 77.414988 -156.769105 
L 77.262654 -156.839175 
L 77.110319 -156.908 
L 76.957985 -156.975564 
L 76.805651 -157.041851 
L 76.653317 -157.106848 
L 76.500983 -157.170536 
L 76.348649 -157.232902 
L 76.196314 -157.29393 
L 76.04398 -157.353603 
L 75.891646 -157.411906 
L 75.739312 -157.468824 
L 75.586978 -157.52434 
L 75.434644 -157.57844 
L 75.28231 -157.631108 
L 75.129975 -157.682328 
L 74.977641 -157.732085 
L 74.825307 -157.780364 
L 74.672973 -157.827149 
L 74.520639 -157.872427 
L 74.368305 -157.916181 
L 74.215971 -157.958398 
L 74.063636 -157.999063 
L 73.911302 -158.038161 
L 73.758968 -158.075678 
L 73.606634 -158.111601 
L 73.4543 -158.145915 
L 73.301966 -158.178607 
L 73.149631 -158.209664 
L 72.997297 -158.239073 
L 72.844963 -158.266821 
L 72.692629 -158.292895 
L 72.540295 -158.317283 
L 72.387961 -158.339972 
L 72.235627 -158.360952 
L 72.083292 -158.38021 
L 71.930958 -158.397735 
L 71.778624 -158.413516 
L 71.62629 -158.427543 
L 71.473956 -158.439804 
L 71.321622 -158.45029 
L 71.169287 -158.458991 
L 71.016953 -158.465897 
L 70.864619 -158.470998 
L 70.712285 -158.474287 
L 70.559951 -158.475753 
L 70.407617 -158.475388 
L 70.255283 -158.473184 
L 70.102948 -158.469134 
L 69.950614 -158.463228 
L 69.79828 -158.455461 
L 69.645946 -158.445824 
L 69.493612 -158.434311 
L 69.341278 -158.420915 
L 69.188943 -158.40563 
L 69.036609 -158.388449 
L 68.884275 -158.369367 
L 68.731941 -158.348377 
L 68.579607 -158.325474 
L 68.427273 -158.300653 
L 68.274939 -158.273909 
L 68.122604 -158.245237 
L 67.97027 -158.214631 
L 67.817936 -158.182089 
L 67.665602 -158.147604 
L 67.513268 -158.111174 
L 67.360934 -158.072793 
L 67.2086 -158.032459 
L 67.056265 -157.990167 
L 66.903931 -157.945914 
L 66.751597 -157.899696 
L 66.599263 -157.85151 
L 66.446929 -157.801353 
L 66.294595 -157.749221 
L 66.14226 -157.695111 
L 65.989926 -157.639022 
L 65.837592 -157.580948 
L 65.685258 -157.520888 
L 65.532924 -157.45884 
L 65.38059 -157.394799 
L 65.228256 -157.328765 
L 65.075921 -157.260733 
L 64.923587 -157.190702 
L 64.771253 -157.118668 
L 64.618919 -157.04463 
L 64.466585 -156.968585 
L 64.314251 -156.89053 
L 64.161916 -156.810464 
L 64.009582 -156.728382 
L 63.857248 -156.644285 
L 63.704914 -156.558168 
L 63.55258 -156.470029 
L 63.400246 -156.379867 
L 63.247912 -156.287678 
L 63.095577 -156.193461 
L 62.943243 -156.097213 
L 62.790909 -155.998932 
L 62.638575 -155.898616 
L 62.486241 -155.796262 
L 62.333907 -155.691869 
L 62.181572 -155.585434 
L 62.029238 -155.476955 
L 61.876904 -155.36643 
L 61.72457 -155.253857 
L 61.572236 -155.139235 
L 61.419902 -155.022561 
L 61.267568 -154.903834 
L 61.115233 -154.783052 
L 60.962899 -154.660214 
L 60.810565 -154.535319 
L 60.658231 -154.408365 
L 60.505897 -154.279352 
L 60.353563 -154.148277 
L 60.201229 -154.015142 
L 60.048894 -153.879945 
L 59.89656 -153.742687 
L 59.744226 -153.603366 
L 59.591892 -153.461984 
L 59.439558 -153.318541 
L 59.287224 -153.173037 
L 59.134889 -153.025475 
L 58.982555 -152.875854 
L 58.830221 -152.724178 
L 58.677887 -152.570448 
L 58.525553 -152.414667 
L 58.373219 -152.256837 
L 58.220885 -152.096962 
L 58.06855 -151.935046 
L 57.916216 -151.771093 
L 57.763882 -151.605107 
L 57.611548 -151.437094 
L 57.459214 -151.267059 
L 57.30688 -151.095009 
L 57.154545 -150.92095 
L 57.002211 -150.74489 
L 56.849877 -150.566836 
L 56.697543 -150.386798 
L 56.545209 -150.204783 
L 56.392875 -150.020802 
L 56.240541 -149.834864 
L 56.088206 -149.646982 
L 55.935872 -149.457167 
L 55.783538 -149.265431 
L 55.631204 -149.071787 
L 55.47887 -148.87625 
L 55.326536 -148.678832 
L 55.174201 -148.479551 
L 55.021867 -148.278422 
L 54.869533 -148.075461 
L 54.717199 -147.870686 
L 54.564865 -147.664116 
L 54.412531 -147.455769 
L 54.260197 -147.245666 
L 54.107862 -147.033828 
L 53.955528 -146.820275 
L 53.803194 -146.60503 
L 53.65086 -146.388117 
L 53.498526 -146.169559 
L 53.346192 -145.94938 
L 53.193857 -145.727608 
L 53.041523 -145.504268 
L 52.889189 -145.279387 
L 52.736855 -145.052993 
L 52.584521 -144.825116 
L 52.432187 -144.595784 
L 52.279853 -144.365029 
L 52.127518 -144.132882 
L 51.975184 -143.899374 
L 51.82285 -143.664539 
L 51.670516 -143.42841 
L 51.518182 -143.191021 
L 51.365848 -142.952408 
L 51.213514 -142.712607 
L 51.061179 -142.471653 
L 50.908845 -142.229584 
L 50.756511 -141.986439 
L 50.604177 -141.742254 
L 50.451843 -141.497071 
L 50.299509 -141.250928 
L 50.147174 -141.003867 
L 49.99484 -140.755927 
L 49.842506 -140.507151 
L 49.690172 -140.257581 
L 49.537838 -140.007259 
L 49.385504 -139.756229 
L 49.23317 -139.504533 
L 49.080835 -139.252217 
L 48.928501 -138.999324 
L 48.776167 -138.745898 
L 48.623833 -138.491986 
L 48.471499 -138.237633 
L 48.319165 -137.982883 
L 48.16683 -137.727784 
L 48.014496 -137.472381 
L 47.862162 -137.21672 
L 47.709828 -136.960848 
L 47.557494 -136.704811 
L 47.40516 -136.448657 
L 47.252826 -136.192431 
L 47.100491 -135.93618 
L 46.948157 -135.679951 
L 46.795823 -135.423791 
L 46.643489 -135.167746 
L 46.491155 -134.911862 
L 46.338821 -134.656185 
L 46.186486 -134.400762 
L 46.034152 -134.145638 
L 45.881818 -133.890858 
L 45.729484 -133.636469 
L 45.57715 -133.382514 
L 45.424816 -133.129037 
L 45.272482 -132.876084 
L 45.120147 -132.623698 
L 44.967813 -132.371921 
L 44.815479 -132.120797 
L 44.663145 -131.870368 
L 44.510811 -131.620676 
L 44.358477 -131.371761 
L 44.206143 -131.123664 
L 44.053808 -130.876424 
L 43.901474 -130.630082 
L 43.74914 -130.384676 
L 43.596806 -130.140244 
L 43.444472 -129.896823 
L 43.292138 -129.65445 
L 43.139803 -129.41316 
L 42.987469 -129.172989 
L 42.835135 -128.933972 
L 42.682801 -128.696141 
L 42.530467 -128.45953 
L 42.378133 -128.22417 
L 42.225799 -127.990095 
L 42.073464 -127.757333 
L 41.92113 -127.525915 
L 41.768796 -127.295871 
L 41.616462 -127.067227 
L 41.464128 -126.840013 
L 41.311794 -126.614254 
L 41.159459 -126.389978 
L 41.007125 -126.167208 
L 40.854791 -125.94597 
L 40.702457 -125.726287 
L 40.550123 -125.508183 
L 40.397789 -125.29168 
L 40.245455 -125.0768 
L 40.09312 -124.863563 
L 39.940786 -124.65199 
L 39.788452 -124.442101 
L 39.636118 -124.233913 
L 39.483784 -124.027447 
L 39.33145 -123.822719 
L 39.179115 -123.619746 
L 39.026781 -123.418546 
L 38.874447 -123.219133 
L 38.722113 -123.021523 
L 38.569779 -122.825731 
L 38.417445 -122.631771 
L 38.265111 -122.439658 
L 38.112776 -122.249403 
L 37.960442 -122.06102 
L 37.808108 -121.874521 
L 37.655774 -121.689919 
L 37.50344 -121.507223 
L 37.351106 -121.326447 
L 37.198771 -121.147599 
L 37.046437 -120.97069 
L 36.894103 -120.795731 
L 36.741769 -120.62273 
L 36.589435 -120.451698 
L 36.437101 -120.282641 
L 36.284767 -120.115571 
L 36.132432 -119.950493 
L 35.980098 -119.787417 
L 35.827764 -119.626351 
L 35.67543 -119.467301 
L 35.523096 -119.310275 
L 35.370762 -119.15528 
L 35.218428 -119.002323 
L 35.066093 -118.85141 
L 34.913759 -118.702548 
L 34.761425 -118.555743 
L 34.609091 -118.411001 
z
" style="stroke: #ec6842; stroke-opacity: 0.3"/>
    </defs>
    <g clip-path="url(#p563904e1e9)">
     <use xlink:href="#mde87a08b33" x="0" y="216" style="fill: #ec6842; fill-opacity: 0.3; stroke: #ec6842; stroke-opacity: 0.3"/>
    </g>
   </g>
   <g id="line2d_10">
    <defs>
     <path id="m60bd3d9a6b" d="M 0 1.5 
C 0.397805 1.5 0.77937 1.341951 1.06066 1.06066 
C 1.341951 0.77937 1.5 0.397805 1.5 0 
C 1.5 -0.397805 1.341951 -0.77937 1.06066 -1.06066 
C 0.77937 -1.341951 0.397805 -1.5 0 -1.5 
C -0.397805 -1.5 -0.77937 -1.341951 -1.06066 -1.06066 
C -1.341951 -0.77937 -1.5 -0.397805 -1.5 0 
C -1.5 0.397805 -1.341951 0.77937 -1.06066 1.06066 
C -0.77937 1.341951 -0.397805 1.5 0 1.5 
z
" style="stroke: #0076c2"/>
    </defs>
    <g clip-path="url(#p563904e1e9)">
     <use xlink:href="#m60bd3d9a6b" x="96.631355" y="87.051283" style="fill: #0076c2; stroke: #0076c2"/>
     <use xlink:href="#m60bd3d9a6b" x="66.38116" y="67.826662" style="fill: #0076c2; stroke: #0076c2"/>
     <use xlink:href="#m60bd3d9a6b" x="83.061985" y="73.184407" style="fill: #0076c2; stroke: #0076c2"/>
     <use xlink:href="#m60bd3d9a6b" x="131.028767" y="138.214002" style="fill: #0076c2; stroke: #0076c2"/>
     <use xlink:href="#m60bd3d9a6b" x="35.147684" y="110.582046" style="fill: #0076c2; stroke: #0076c2"/>
     <use xlink:href="#m60bd3d9a6b" x="48.484548" y="83.14489" style="fill: #0076c2; stroke: #0076c2"/>
     <use xlink:href="#m60bd3d9a6b" x="111.165952" y="107.082691" style="fill: #0076c2; stroke: #0076c2"/>
     <use xlink:href="#m60bd3d9a6b" x="128.868921" y="137.861146" style="fill: #0076c2; stroke: #0076c2"/>
     <use xlink:href="#m60bd3d9a6b" x="50.212284" y="86.317336" style="fill: #0076c2; stroke: #0076c2"/>
     <use xlink:href="#m60bd3d9a6b" x="100.248152" y="87.407109" style="fill: #0076c2; stroke: #0076c2"/>
    </g>
   </g>
   <g id="line2d_11">
    <path d="M 34.609091 109.08 
L 42.225799 96.218638 
L 46.338821 89.721195 
L 49.690172 84.830694 
L 52.584521 80.976911 
L 55.326536 77.694887 
L 57.763882 75.113671 
L 60.048894 73.005463 
L 62.181572 71.326938 
L 64.161916 70.02999 
L 66.14226 68.993955 
L 67.97027 68.27521 
L 69.79828 67.78879 
L 71.62629 67.537465 
L 73.4543 67.522665 
L 75.28231 67.744476 
L 77.110319 68.201633 
L 78.938329 68.891534 
L 80.766339 69.810251 
L 82.746683 71.057643 
L 84.879361 72.684822 
L 87.012039 74.594001 
L 89.297052 76.935633 
L 91.734398 79.747927 
L 94.476413 83.264974 
L 97.523096 87.558335 
L 101.026781 92.91167 
L 105.292138 99.873114 
L 112.299509 111.823926 
L 118.697543 122.561475 
L 122.658231 128.785104 
L 126.009582 133.646879 
L 128.903931 137.470945 
L 131.493612 140.550727 
L 133.930958 143.121582 
L 136.215971 145.219381 
L 138.348649 146.88767 
L 140.328993 148.174732 
L 142.309337 149.200582 
L 144.137346 149.90972 
L 145.965356 150.38639 
L 147.793366 150.627879 
L 149.621376 150.632812 
L 151.449386 150.401162 
L 153.277396 149.934246 
L 155.105405 149.234723 
L 156.933415 148.306576 
L 158.913759 147.049248 
L 161.046437 145.411767 
L 163.179115 143.492778 
L 165.464128 141.141266 
L 167.901474 138.319251 
L 170.643489 134.792393 
L 173.690172 130.489679 
L 177.193857 125.127783 
L 181.459214 118.159328 
L 186.790909 109.08 
L 186.790909 109.08 
" clip-path="url(#p563904e1e9)" style="fill: none; stroke: #000000; stroke-linecap: round"/>
   </g>
   <g id="line2d_12">
    <path d="M 34.609091 108.62027 
L 36.589435 106.167344 
L 38.874447 102.974555 
L 41.616462 98.737196 
L 45.881818 91.658569 
L 50.604177 83.924303 
L 53.346192 79.851764 
L 55.631204 76.83419 
L 57.763882 74.387498 
L 59.744226 72.466137 
L 61.572236 71.005173 
L 63.247912 69.931917 
L 64.923587 69.10937 
L 66.599263 68.529464 
L 68.274939 68.180694 
L 69.950614 68.049091 
L 71.778624 68.134997 
L 73.606634 68.440057 
L 75.586978 68.994105 
L 77.719656 69.82389 
L 80.004668 70.952467 
L 82.442015 72.401886 
L 85.031695 74.197408 
L 87.77371 76.372787 
L 90.515725 78.830577 
L 93.25774 81.582396 
L 95.999754 84.646409 
L 98.741769 88.041181 
L 101.636118 91.996449 
L 104.530467 96.330706 
L 107.729484 101.526828 
L 111.690172 108.421304 
L 121.744226 126.167574 
L 124.486241 130.419983 
L 126.771253 133.575299 
L 128.903931 136.138676 
L 130.731941 138.009202 
L 132.559951 139.55761 
L 134.235627 140.683787 
L 135.758968 141.460926 
L 137.28231 142.004141 
L 138.805651 142.317829 
L 140.328993 142.409476 
L 141.852334 142.289332 
L 143.52801 141.927713 
L 145.203686 141.344784 
L 147.031695 140.482245 
L 149.164373 139.217026 
L 151.60172 137.492171 
L 154.496069 135.159712 
L 158.913759 131.272982 
L 165.616462 125.389434 
L 169.120147 122.612164 
L 172.319165 120.356405 
L 175.365848 118.487207 
L 178.260197 116.970183 
L 181.154545 115.697343 
L 184.201229 114.601959 
L 186.790909 113.847753 
L 186.790909 113.847753 
" clip-path="url(#p563904e1e9)" style="fill: none; stroke: #ec6842; stroke-width: 1.5; stroke-linecap: round"/>
   </g>
   <g id="patch_3">
    <path d="M 27 192.24 
L 27 25.92 
" style="fill: none; stroke: #ffffff; stroke-width: 1.25; stroke-linejoin: miter; stroke-linecap: square"/>
   </g>
   <g id="patch_4">
    <path d="M 194.4 192.24 
L 194.4 25.92 
" style="fill: none; stroke: #ffffff; stroke-width: 1.25; stroke-linejoin: miter; stroke-linecap: square"/>
   </g>
   <g id="patch_5">
    <path d="M 27 192.24 
L 194.4 192.24 
" style="fill: none; stroke: #ffffff; stroke-width: 1.25; stroke-linejoin: miter; stroke-linecap: square"/>
   </g>
   <g id="patch_6">
    <path d="M 27 25.92 
L 194.4 25.92 
" style="fill: none; stroke: #ffffff; stroke-width: 1.25; stroke-linejoin: miter; stroke-linecap: square"/>
   </g>
   <g id="legend_1">
    <g id="patch_7">
     <path d="M 111.462031 71.126875 
L 189.5 71.126875 
Q 190.9 71.126875 190.9 69.726875 
L 190.9 30.82 
Q 190.9 29.42 189.5 29.42 
L 111.462031 29.42 
Q 110.062031 29.42 110.062031 30.82 
L 110.062031 69.726875 
Q 110.062031 71.126875 111.462031 71.126875 
z
" style="fill: #eaeaf2; opacity: 0.8; stroke: #cccccc; stroke-linejoin: miter"/>
    </g>
    <g id="line2d_13">
     <g>
      <use xlink:href="#m60bd3d9a6b" x="119.862031" y="34.780469" style="fill: #0076c2; stroke: #0076c2"/>
     </g>
    </g>
    <g id="text_12">
     <!-- Observations -->
     <g style="fill: #262626" transform="translate(132.462031 37.230469) scale(0.07 -0.07)">
      <defs>
       <path id="ArialMT-4f" d="M 309 2231 
Q 309 3372 921 4017 
Q 1534 4663 2503 4663 
Q 3138 4663 3647 4359 
Q 4156 4056 4423 3514 
Q 4691 2972 4691 2284 
Q 4691 1588 4409 1038 
Q 4128 488 3612 205 
Q 3097 -78 2500 -78 
Q 1853 -78 1343 234 
Q 834 547 571 1087 
Q 309 1628 309 2231 
z
M 934 2222 
Q 934 1394 1379 917 
Q 1825 441 2497 441 
Q 3181 441 3623 922 
Q 4066 1403 4066 2288 
Q 4066 2847 3877 3264 
Q 3688 3681 3323 3911 
Q 2959 4141 2506 4141 
Q 1863 4141 1398 3698 
Q 934 3256 934 2222 
z
" transform="scale(0.015625)"/>
       <path id="ArialMT-62" d="M 941 0 
L 419 0 
L 419 4581 
L 981 4581 
L 981 2947 
Q 1338 3394 1891 3394 
Q 2197 3394 2470 3270 
Q 2744 3147 2920 2923 
Q 3097 2700 3197 2384 
Q 3297 2069 3297 1709 
Q 3297 856 2875 390 
Q 2453 -75 1863 -75 
Q 1275 -75 941 416 
L 941 0 
z
M 934 1684 
Q 934 1088 1097 822 
Q 1363 388 1816 388 
Q 2184 388 2453 708 
Q 2722 1028 2722 1663 
Q 2722 2313 2464 2622 
Q 2206 2931 1841 2931 
Q 1472 2931 1203 2611 
Q 934 2291 934 1684 
z
" transform="scale(0.015625)"/>
       <path id="ArialMT-73" d="M 197 991 
L 753 1078 
Q 800 744 1014 566 
Q 1228 388 1613 388 
Q 2000 388 2187 545 
Q 2375 703 2375 916 
Q 2375 1106 2209 1216 
Q 2094 1291 1634 1406 
Q 1016 1563 777 1677 
Q 538 1791 414 1992 
Q 291 2194 291 2438 
Q 291 2659 392 2848 
Q 494 3038 669 3163 
Q 800 3259 1026 3326 
Q 1253 3394 1513 3394 
Q 1903 3394 2198 3281 
Q 2494 3169 2634 2976 
Q 2775 2784 2828 2463 
L 2278 2388 
Q 2241 2644 2061 2787 
Q 1881 2931 1553 2931 
Q 1166 2931 1000 2803 
Q 834 2675 834 2503 
Q 834 2394 903 2306 
Q 972 2216 1119 2156 
Q 1203 2125 1616 2013 
Q 2213 1853 2448 1751 
Q 2684 1650 2818 1456 
Q 2953 1263 2953 975 
Q 2953 694 2789 445 
Q 2625 197 2315 61 
Q 2006 -75 1616 -75 
Q 969 -75 630 194 
Q 291 463 197 991 
z
" transform="scale(0.015625)"/>
       <path id="ArialMT-65" d="M 2694 1069 
L 3275 997 
Q 3138 488 2766 206 
Q 2394 -75 1816 -75 
Q 1088 -75 661 373 
Q 234 822 234 1631 
Q 234 2469 665 2931 
Q 1097 3394 1784 3394 
Q 2450 3394 2872 2941 
Q 3294 2488 3294 1666 
Q 3294 1616 3291 1516 
L 816 1516 
Q 847 969 1125 678 
Q 1403 388 1819 388 
Q 2128 388 2347 550 
Q 2566 713 2694 1069 
z
M 847 1978 
L 2700 1978 
Q 2663 2397 2488 2606 
Q 2219 2931 1791 2931 
Q 1403 2931 1139 2672 
Q 875 2413 847 1978 
z
" transform="scale(0.015625)"/>
       <path id="ArialMT-72" d="M 416 0 
L 416 3319 
L 922 3319 
L 922 2816 
Q 1116 3169 1280 3281 
Q 1444 3394 1641 3394 
Q 1925 3394 2219 3213 
L 2025 2691 
Q 1819 2813 1613 2813 
Q 1428 2813 1281 2702 
Q 1134 2591 1072 2394 
Q 978 2094 978 1738 
L 978 0 
L 416 0 
z
" transform="scale(0.015625)"/>
       <path id="ArialMT-76" d="M 1344 0 
L 81 3319 
L 675 3319 
L 1388 1331 
Q 1503 1009 1600 663 
Q 1675 925 1809 1294 
L 2547 3319 
L 3125 3319 
L 1869 0 
L 1344 0 
z
" transform="scale(0.015625)"/>
       <path id="ArialMT-61" d="M 2588 409 
Q 2275 144 1986 34 
Q 1697 -75 1366 -75 
Q 819 -75 525 192 
Q 231 459 231 875 
Q 231 1119 342 1320 
Q 453 1522 633 1644 
Q 813 1766 1038 1828 
Q 1203 1872 1538 1913 
Q 2219 1994 2541 2106 
Q 2544 2222 2544 2253 
Q 2544 2597 2384 2738 
Q 2169 2928 1744 2928 
Q 1347 2928 1158 2789 
Q 969 2650 878 2297 
L 328 2372 
Q 403 2725 575 2942 
Q 747 3159 1072 3276 
Q 1397 3394 1825 3394 
Q 2250 3394 2515 3294 
Q 2781 3194 2906 3042 
Q 3031 2891 3081 2659 
Q 3109 2516 3109 2141 
L 3109 1391 
Q 3109 606 3145 398 
Q 3181 191 3288 0 
L 2700 0 
Q 2613 175 2588 409 
z
M 2541 1666 
Q 2234 1541 1622 1453 
Q 1275 1403 1131 1340 
Q 988 1278 909 1158 
Q 831 1038 831 891 
Q 831 666 1001 516 
Q 1172 366 1500 366 
Q 1825 366 2078 508 
Q 2331 650 2450 897 
Q 2541 1088 2541 1459 
L 2541 1666 
z
" transform="scale(0.015625)"/>
       <path id="ArialMT-69" d="M 425 3934 
L 425 4581 
L 988 4581 
L 988 3934 
L 425 3934 
z
M 425 0 
L 425 3319 
L 988 3319 
L 988 0 
L 425 0 
z
" transform="scale(0.015625)"/>
       <path id="ArialMT-6f" d="M 213 1659 
Q 213 2581 725 3025 
Q 1153 3394 1769 3394 
Q 2453 3394 2887 2945 
Q 3322 2497 3322 1706 
Q 3322 1066 3130 698 
Q 2938 331 2570 128 
Q 2203 -75 1769 -75 
Q 1072 -75 642 372 
Q 213 819 213 1659 
z
M 791 1659 
Q 791 1022 1069 705 
Q 1347 388 1769 388 
Q 2188 388 2466 706 
Q 2744 1025 2744 1678 
Q 2744 2294 2464 2611 
Q 2184 2928 1769 2928 
Q 1347 2928 1069 2612 
Q 791 2297 791 1659 
z
" transform="scale(0.015625)"/>
       <path id="ArialMT-6e" d="M 422 0 
L 422 3319 
L 928 3319 
L 928 2847 
Q 1294 3394 1984 3394 
Q 2284 3394 2536 3286 
Q 2788 3178 2913 3003 
Q 3038 2828 3088 2588 
Q 3119 2431 3119 2041 
L 3119 0 
L 2556 0 
L 2556 2019 
Q 2556 2363 2490 2533 
Q 2425 2703 2258 2804 
Q 2091 2906 1866 2906 
Q 1506 2906 1245 2678 
Q 984 2450 984 1813 
L 984 0 
L 422 0 
z
" transform="scale(0.015625)"/>
      </defs>
      <use xlink:href="#ArialMT-4f"/>
      <use xlink:href="#ArialMT-62" x="77.783203"/>
      <use xlink:href="#ArialMT-73" x="133.398438"/>
      <use xlink:href="#ArialMT-65" x="183.398438"/>
      <use xlink:href="#ArialMT-72" x="239.013672"/>
      <use xlink:href="#ArialMT-76" x="272.314453"/>
      <use xlink:href="#ArialMT-61" x="322.314453"/>
      <use xlink:href="#ArialMT-74" x="377.929688"/>
      <use xlink:href="#ArialMT-69" x="405.712891"/>
      <use xlink:href="#ArialMT-6f" x="427.929688"/>
      <use xlink:href="#ArialMT-6e" x="483.544922"/>
      <use xlink:href="#ArialMT-73" x="539.160156"/>
     </g>
    </g>
    <g id="line2d_14">
     <path d="M 112.862031 44.682187 
L 119.862031 44.682187 
L 126.862031 44.682187 
" style="fill: none; stroke: #000000; stroke-linecap: round"/>
    </g>
    <g id="text_13">
     <!-- Ground truth -->
     <g style="fill: #262626" transform="translate(132.462031 47.132187) scale(0.07 -0.07)">
      <defs>
       <path id="ArialMT-47" d="M 2638 1797 
L 2638 2334 
L 4578 2338 
L 4578 638 
Q 4131 281 3656 101 
Q 3181 -78 2681 -78 
Q 2006 -78 1454 211 
Q 903 500 622 1047 
Q 341 1594 341 2269 
Q 341 2938 620 3517 
Q 900 4097 1425 4378 
Q 1950 4659 2634 4659 
Q 3131 4659 3532 4498 
Q 3934 4338 4162 4050 
Q 4391 3763 4509 3300 
L 3963 3150 
Q 3859 3500 3706 3700 
Q 3553 3900 3268 4020 
Q 2984 4141 2638 4141 
Q 2222 4141 1919 4014 
Q 1616 3888 1430 3681 
Q 1244 3475 1141 3228 
Q 966 2803 966 2306 
Q 966 1694 1177 1281 
Q 1388 869 1791 669 
Q 2194 469 2647 469 
Q 3041 469 3416 620 
Q 3791 772 3984 944 
L 3984 1797 
L 2638 1797 
z
" transform="scale(0.015625)"/>
       <path id="ArialMT-75" d="M 2597 0 
L 2597 488 
Q 2209 -75 1544 -75 
Q 1250 -75 995 37 
Q 741 150 617 320 
Q 494 491 444 738 
Q 409 903 409 1263 
L 409 3319 
L 972 3319 
L 972 1478 
Q 972 1038 1006 884 
Q 1059 663 1231 536 
Q 1403 409 1656 409 
Q 1909 409 2131 539 
Q 2353 669 2445 892 
Q 2538 1116 2538 1541 
L 2538 3319 
L 3100 3319 
L 3100 0 
L 2597 0 
z
" transform="scale(0.015625)"/>
       <path id="ArialMT-64" d="M 2575 0 
L 2575 419 
Q 2259 -75 1647 -75 
Q 1250 -75 917 144 
Q 584 363 401 755 
Q 219 1147 219 1656 
Q 219 2153 384 2558 
Q 550 2963 881 3178 
Q 1213 3394 1622 3394 
Q 1922 3394 2156 3267 
Q 2391 3141 2538 2938 
L 2538 4581 
L 3097 4581 
L 3097 0 
L 2575 0 
z
M 797 1656 
Q 797 1019 1065 703 
Q 1334 388 1700 388 
Q 2069 388 2326 689 
Q 2584 991 2584 1609 
Q 2584 2291 2321 2609 
Q 2059 2928 1675 2928 
Q 1300 2928 1048 2622 
Q 797 2316 797 1656 
z
" transform="scale(0.015625)"/>
       <path id="ArialMT-20" transform="scale(0.015625)"/>
       <path id="ArialMT-68" d="M 422 0 
L 422 4581 
L 984 4581 
L 984 2938 
Q 1378 3394 1978 3394 
Q 2347 3394 2619 3248 
Q 2891 3103 3008 2847 
Q 3125 2591 3125 2103 
L 3125 0 
L 2563 0 
L 2563 2103 
Q 2563 2525 2380 2717 
Q 2197 2909 1863 2909 
Q 1613 2909 1392 2779 
Q 1172 2650 1078 2428 
Q 984 2206 984 1816 
L 984 0 
L 422 0 
z
" transform="scale(0.015625)"/>
      </defs>
      <use xlink:href="#ArialMT-47"/>
      <use xlink:href="#ArialMT-72" x="77.783203"/>
      <use xlink:href="#ArialMT-6f" x="111.083984"/>
      <use xlink:href="#ArialMT-75" x="166.699219"/>
      <use xlink:href="#ArialMT-6e" x="222.314453"/>
      <use xlink:href="#ArialMT-64" x="277.929688"/>
      <use xlink:href="#ArialMT-20" x="333.544922"/>
      <use xlink:href="#ArialMT-74" x="361.328125"/>
      <use xlink:href="#ArialMT-72" x="389.111328"/>
      <use xlink:href="#ArialMT-75" x="422.412109"/>
      <use xlink:href="#ArialMT-74" x="478.027344"/>
      <use xlink:href="#ArialMT-68" x="505.810547"/>
     </g>
    </g>
    <g id="line2d_15">
     <path d="M 112.862031 54.583906 
L 119.862031 54.583906 
L 126.862031 54.583906 
" style="fill: none; stroke: #ec6842; stroke-width: 1.5; stroke-linecap: round"/>
    </g>
    <g id="text_14">
     <!-- Predictive mean -->
     <g style="fill: #262626" transform="translate(132.462031 57.033906) scale(0.07 -0.07)">
      <defs>
       <path id="ArialMT-50" d="M 494 0 
L 494 4581 
L 2222 4581 
Q 2678 4581 2919 4538 
Q 3256 4481 3484 4323 
Q 3713 4166 3852 3881 
Q 3991 3597 3991 3256 
Q 3991 2672 3619 2267 
Q 3247 1863 2275 1863 
L 1100 1863 
L 1100 0 
L 494 0 
z
M 1100 2403 
L 2284 2403 
Q 2872 2403 3119 2622 
Q 3366 2841 3366 3238 
Q 3366 3525 3220 3729 
Q 3075 3934 2838 4000 
Q 2684 4041 2272 4041 
L 1100 4041 
L 1100 2403 
z
" transform="scale(0.015625)"/>
       <path id="ArialMT-63" d="M 2588 1216 
L 3141 1144 
Q 3050 572 2676 248 
Q 2303 -75 1759 -75 
Q 1078 -75 664 370 
Q 250 816 250 1647 
Q 250 2184 428 2587 
Q 606 2991 970 3192 
Q 1334 3394 1763 3394 
Q 2303 3394 2647 3120 
Q 2991 2847 3088 2344 
L 2541 2259 
Q 2463 2594 2264 2762 
Q 2066 2931 1784 2931 
Q 1359 2931 1093 2626 
Q 828 2322 828 1663 
Q 828 994 1084 691 
Q 1341 388 1753 388 
Q 2084 388 2306 591 
Q 2528 794 2588 1216 
z
" transform="scale(0.015625)"/>
       <path id="ArialMT-6d" d="M 422 0 
L 422 3319 
L 925 3319 
L 925 2853 
Q 1081 3097 1340 3245 
Q 1600 3394 1931 3394 
Q 2300 3394 2536 3241 
Q 2772 3088 2869 2813 
Q 3263 3394 3894 3394 
Q 4388 3394 4653 3120 
Q 4919 2847 4919 2278 
L 4919 0 
L 4359 0 
L 4359 2091 
Q 4359 2428 4304 2576 
Q 4250 2725 4106 2815 
Q 3963 2906 3769 2906 
Q 3419 2906 3187 2673 
Q 2956 2441 2956 1928 
L 2956 0 
L 2394 0 
L 2394 2156 
Q 2394 2531 2256 2718 
Q 2119 2906 1806 2906 
Q 1569 2906 1367 2781 
Q 1166 2656 1075 2415 
Q 984 2175 984 1722 
L 984 0 
L 422 0 
z
" transform="scale(0.015625)"/>
      </defs>
      <use xlink:href="#ArialMT-50"/>
      <use xlink:href="#ArialMT-72" x="66.699219"/>
      <use xlink:href="#ArialMT-65" x="100"/>
      <use xlink:href="#ArialMT-64" x="155.615234"/>
      <use xlink:href="#ArialMT-69" x="211.230469"/>
      <use xlink:href="#ArialMT-63" x="233.447266"/>
      <use xlink:href="#ArialMT-74" x="283.447266"/>
      <use xlink:href="#ArialMT-69" x="311.230469"/>
      <use xlink:href="#ArialMT-76" x="333.447266"/>
      <use xlink:href="#ArialMT-65" x="383.447266"/>
      <use xlink:href="#ArialMT-20" x="439.0625"/>
      <use xlink:href="#ArialMT-6d" x="466.845703"/>
      <use xlink:href="#ArialMT-65" x="550.146484"/>
      <use xlink:href="#ArialMT-61" x="605.761719"/>
      <use xlink:href="#ArialMT-6e" x="661.376953"/>
     </g>
    </g>
    <g id="patch_8">
     <path d="M 112.862031 66.935625 
L 126.862031 66.935625 
L 126.862031 62.035625 
L 112.862031 62.035625 
z
" style="fill: #ec6842; fill-opacity: 0.3; stroke: #ec6842; stroke-opacity: 0.3; stroke-linejoin: miter"/>
    </g>
    <g id="text_15">
     <!-- 95% conf. interval -->
     <g style="fill: #262626" transform="translate(132.462031 66.935625) scale(0.07 -0.07)">
      <defs>
       <path id="ArialMT-39" d="M 350 1059 
L 891 1109 
Q 959 728 1153 556 
Q 1347 384 1650 384 
Q 1909 384 2104 503 
Q 2300 622 2425 820 
Q 2550 1019 2634 1356 
Q 2719 1694 2719 2044 
Q 2719 2081 2716 2156 
Q 2547 1888 2255 1720 
Q 1963 1553 1622 1553 
Q 1053 1553 659 1965 
Q 266 2378 266 3053 
Q 266 3750 677 4175 
Q 1088 4600 1706 4600 
Q 2153 4600 2523 4359 
Q 2894 4119 3086 3673 
Q 3278 3228 3278 2384 
Q 3278 1506 3087 986 
Q 2897 466 2520 194 
Q 2144 -78 1638 -78 
Q 1100 -78 759 220 
Q 419 519 350 1059 
z
M 2653 3081 
Q 2653 3566 2395 3850 
Q 2138 4134 1775 4134 
Q 1400 4134 1122 3828 
Q 844 3522 844 3034 
Q 844 2597 1108 2323 
Q 1372 2050 1759 2050 
Q 2150 2050 2401 2323 
Q 2653 2597 2653 3081 
z
" transform="scale(0.015625)"/>
       <path id="ArialMT-35" d="M 266 1200 
L 856 1250 
Q 922 819 1161 601 
Q 1400 384 1738 384 
Q 2144 384 2425 690 
Q 2706 997 2706 1503 
Q 2706 1984 2436 2262 
Q 2166 2541 1728 2541 
Q 1456 2541 1237 2417 
Q 1019 2294 894 2097 
L 366 2166 
L 809 4519 
L 3088 4519 
L 3088 3981 
L 1259 3981 
L 1013 2750 
Q 1425 3038 1878 3038 
Q 2478 3038 2890 2622 
Q 3303 2206 3303 1553 
Q 3303 931 2941 478 
Q 2500 -78 1738 -78 
Q 1113 -78 717 272 
Q 322 622 266 1200 
z
" transform="scale(0.015625)"/>
       <path id="ArialMT-25" d="M 372 3481 
Q 372 3972 619 4315 
Q 866 4659 1334 4659 
Q 1766 4659 2048 4351 
Q 2331 4044 2331 3447 
Q 2331 2866 2045 2552 
Q 1759 2238 1341 2238 
Q 925 2238 648 2547 
Q 372 2856 372 3481 
z
M 1350 4272 
Q 1141 4272 1002 4090 
Q 863 3909 863 3425 
Q 863 2984 1003 2804 
Q 1144 2625 1350 2625 
Q 1563 2625 1702 2806 
Q 1841 2988 1841 3469 
Q 1841 3913 1700 4092 
Q 1559 4272 1350 4272 
z
M 1353 -169 
L 3859 4659 
L 4316 4659 
L 1819 -169 
L 1353 -169 
z
M 3334 1075 
Q 3334 1569 3581 1911 
Q 3828 2253 4300 2253 
Q 4731 2253 5014 1945 
Q 5297 1638 5297 1041 
Q 5297 459 5011 145 
Q 4725 -169 4303 -169 
Q 3888 -169 3611 142 
Q 3334 453 3334 1075 
z
M 4316 1866 
Q 4103 1866 3964 1684 
Q 3825 1503 3825 1019 
Q 3825 581 3965 400 
Q 4106 219 4313 219 
Q 4528 219 4667 400 
Q 4806 581 4806 1063 
Q 4806 1506 4665 1686 
Q 4525 1866 4316 1866 
z
" transform="scale(0.015625)"/>
       <path id="ArialMT-66" d="M 556 0 
L 556 2881 
L 59 2881 
L 59 3319 
L 556 3319 
L 556 3672 
Q 556 4006 616 4169 
Q 697 4388 901 4523 
Q 1106 4659 1475 4659 
Q 1713 4659 2000 4603 
L 1916 4113 
Q 1741 4144 1584 4144 
Q 1328 4144 1222 4034 
Q 1116 3925 1116 3625 
L 1116 3319 
L 1763 3319 
L 1763 2881 
L 1116 2881 
L 1116 0 
L 556 0 
z
" transform="scale(0.015625)"/>
       <path id="ArialMT-2e" d="M 581 0 
L 581 641 
L 1222 641 
L 1222 0 
L 581 0 
z
" transform="scale(0.015625)"/>
       <path id="ArialMT-6c" d="M 409 0 
L 409 4581 
L 972 4581 
L 972 0 
L 409 0 
z
" transform="scale(0.015625)"/>
      </defs>
      <use xlink:href="#ArialMT-39"/>
      <use xlink:href="#ArialMT-35" x="55.615234"/>
      <use xlink:href="#ArialMT-25" x="111.230469"/>
      <use xlink:href="#ArialMT-20" x="200.146484"/>
      <use xlink:href="#ArialMT-63" x="227.929688"/>
      <use xlink:href="#ArialMT-6f" x="277.929688"/>
      <use xlink:href="#ArialMT-6e" x="333.544922"/>
      <use xlink:href="#ArialMT-66" x="389.160156"/>
      <use xlink:href="#ArialMT-2e" x="416.943359"/>
      <use xlink:href="#ArialMT-20" x="444.726562"/>
      <use xlink:href="#ArialMT-69" x="472.509766"/>
      <use xlink:href="#ArialMT-6e" x="494.726562"/>
      <use xlink:href="#ArialMT-74" x="550.341797"/>
      <use xlink:href="#ArialMT-65" x="578.125"/>
      <use xlink:href="#ArialMT-72" x="633.740234"/>
      <use xlink:href="#ArialMT-76" x="667.041016"/>
      <use xlink:href="#ArialMT-61" x="717.041016"/>
      <use xlink:href="#ArialMT-6c" x="772.65625"/>
     </g>
    </g>
   </g>
  </g>
 </g>
 <defs>
  <clipPath id="p563904e1e9">
   <rect x="27" y="25.92" width="167.4" height="166.32"/>
  </clipPath>
 </defs>
</svg>
